<?xml version="1.0" encoding="utf-8"?>
<!-- Generator: Adobe Illustrator 25.2.3, SVG Export Plug-In . SVG Version: 6.00 Build 0)  -->
<svg version="1.1" id="Layer_1" xmlns="http://www.w3.org/2000/svg" xmlns:xlink="http://www.w3.org/1999/xlink" x="0px" y="0px"
	 viewBox="0 0 1012 300" style="enable-background:new 0 0 1012 300;" xml:space="preserve">
<style type="text/css">
	.st0{fill:#1565C0;}
	.st1{fill:#FFFFFF;}
	.st2{fill:none;stroke:#111E61;}
	.st3{fill:#FFCA28;}
	.st4{fill:none;stroke:#111E61;stroke-width:3;}
	.st5{fill:#111E61;}
</style>
<path id="marek-piwnicki-LGgKrtjNsoI-unsplash" class="st0" d="M10,0h992c5.5,0,10,4.5,10,10v280c0,5.5-4.5,10-10,10H10
	c-5.5,0-10-4.5-10-10V10C0,4.5,4.5,0,10,0z"/>
<g id="Rectángulo_4886" transform="translate(7277 2861)">
	<path class="st1" d="M-7234-2740h181l0,0v58l0,0h-181c-5.5,0-10-4.5-10-10v-38C-7244-2735.5-7239.5-2740-7234-2740z"/>
	<path class="st2" d="M-7234-2739.5h180c0.3,0,0.5,0.2,0.5,0.5v56c0,0.3-0.2,0.5-0.5,0.5h-180c-5.2,0-9.5-4.3-9.5-9.5v-38
		C-7243.5-2735.2-7239.2-2739.5-7234-2739.5z"/>
</g>
<g id="Rectángulo_4887" transform="translate(7731 2861)">
	<path class="st1" d="M-7244-2740h181c5.5,0,10,4.5,10,10v38c0,5.5-4.5,10-10,10h-181l0,0V-2740L-7244-2740z"/>
	<path class="st2" d="M-7243-2739.5h180c5.2,0,9.5,4.3,9.5,9.5v38c0,5.2-4.3,9.5-9.5,9.5h-180c-0.3,0-0.5-0.2-0.5-0.5v-56
		C-7243.5-2739.3-7243.3-2739.5-7243-2739.5z"/>
</g>
<g id="Rectángulo_4891" transform="translate(7952 2861)">
	<rect x="-7243.9" y="-2739.2" class="st3" width="272" height="58"/>
	<rect x="-7243.4" y="-2738.7" class="st2" width="271" height="57"/>
</g>
<path id="Trazado_2616" class="st4" d="M224,150h263"/>
<g id="Rectángulo_4888" transform="translate(7520 2872)">
	<rect x="-7239.5" y="-2741.4" class="st3" width="37" height="36"/>
	<rect x="-7239" y="-2740.9" class="st2" width="36" height="35"/>
</g>
<g id="Rectángulo_4889" transform="translate(7641 2872)">
	<rect x="-7246" y="-2741.4" class="st3" width="37" height="36"/>
	<rect x="-7245.5" y="-2740.9" class="st2" width="36" height="35"/>
</g>
<circle id="Elipse_1208" class="st5" cx="223" cy="150" r="4"/>
<circle id="Elipse_1209" class="st5" cx="488" cy="150" r="4"/>
<path id="Trazado_101102" class="st5" d="M103.1,145.1H98V159h-4.1v-13.9h-5v-3.2h14.3L103.1,145.1z M109.9,159
	c-0.2-0.4-0.3-0.7-0.4-1.1c-0.7,0.9-1.9,1.4-3,1.4c-1.1,0-2.2-0.4-3-1.1c-0.8-0.7-1.3-1.7-1.3-2.7c-0.1-1.2,0.5-2.4,1.5-3.1
	c1.3-0.8,2.9-1.2,4.4-1.1h1.2v-0.7c0-1.2-0.5-1.8-1.5-1.8c-0.7-0.1-1.3,0.4-1.4,1c0,0.1,0,0.2,0,0.3h-3.9c0-1.2,0.6-2.3,1.6-3
	c1.2-0.8,2.6-1.2,4-1.1c1.4-0.1,2.7,0.3,3.8,1.2c0.9,0.8,1.5,2,1.4,3.2v5.6c0,0.9,0.1,1.8,0.5,2.7v0.2H109.9z M107.4,156.4
	c0.4,0,0.9-0.1,1.2-0.3c0.3-0.2,0.5-0.4,0.7-0.7v-2h-1.1c-1.4,0-2.1,0.6-2.1,1.9c0,0.3,0.1,0.6,0.4,0.9
	C106.7,156.3,107.1,156.4,107.4,156.4z M127.2,152.8c0.1,1.7-0.3,3.4-1.3,4.8c-0.9,1.1-2.2,1.7-3.6,1.7c-1.2,0-2.4-0.5-3.1-1.5
	L119,159h-3.5v-18h3.9v6.3c0.7-0.8,1.8-1.3,2.9-1.3c1.4-0.1,2.8,0.6,3.7,1.7c0.9,1.4,1.4,3.1,1.3,4.8L127.2,152.8z M123.3,152.5
	c0.1-0.9-0.1-1.8-0.5-2.6c-0.3-0.5-0.9-0.8-1.5-0.8c-0.8-0.1-1.5,0.3-1.9,1v5c0.4,0.7,1.1,1.1,1.9,1c0.8,0.1,1.6-0.5,1.8-1.4
	C123.2,154.1,123.3,153.3,123.3,152.5L123.3,152.5z M133.1,159h-4v-18h4V159z M142.7,159c-0.2-0.4-0.3-0.7-0.4-1.1
	c-0.7,0.9-1.9,1.4-3,1.4c-1.1,0-2.2-0.4-3-1.1c-0.8-0.7-1.3-1.7-1.3-2.7c-0.1-1.2,0.5-2.4,1.5-3.1c1.3-0.8,2.9-1.2,4.4-1.1h1.2v-0.7
	c0-1.2-0.5-1.8-1.5-1.8c-0.7-0.1-1.3,0.4-1.4,1c0,0.1,0,0.2,0,0.3h-4c0-1.2,0.6-2.3,1.6-3c1.2-0.8,2.6-1.2,4-1.1
	c1.4-0.1,2.7,0.3,3.8,1.2c0.9,0.8,1.5,2,1.4,3.2v5.6c0,0.9,0.2,1.8,0.5,2.7v0.2H142.7z M140.2,156.4c0.4,0,0.9-0.1,1.2-0.3
	c0.3-0.2,0.5-0.4,0.7-0.7v-2H141c-1.4,0-2.1,0.6-2.1,1.9c0,0.3,0.1,0.6,0.4,0.9C139.6,156.3,139.9,156.4,140.2,156.4z M164.2,155.8
	h-5.6l-1,3.2h-4.4l6.3-17.1h3.9l6.3,17.1h-4.4L164.2,155.8z M159.5,152.6h3.7l-1.8-5.9L159.5,152.6z"/>
<path id="Trazado_101105" class="st5" d="M557.6,145.1h-5.1V159h-4.1v-13.9h-5v-3.2h14.3V145.1z M564.3,159
	c-0.2-0.4-0.3-0.7-0.4-1.1c-0.7,0.9-1.9,1.4-3,1.4c-1.1,0-2.2-0.4-3-1.1c-0.8-0.7-1.3-1.7-1.3-2.7c-0.1-1.2,0.5-2.4,1.5-3.1
	c1.3-0.8,2.9-1.2,4.4-1.1h1.2v-0.7c0-1.2-0.5-1.8-1.5-1.8c-0.7-0.1-1.3,0.4-1.4,1c0,0.1,0,0.2,0,0.3h-3.9c0-1.2,0.6-2.3,1.6-3
	c1.2-0.8,2.6-1.2,4-1.1c1.4-0.1,2.7,0.3,3.8,1.2c0.9,0.8,1.5,2,1.4,3.2v5.6c0,0.9,0.1,1.8,0.5,2.7v0.2H564.3z M561.8,156.4
	c0.4,0,0.9-0.1,1.2-0.3c0.3-0.2,0.5-0.4,0.7-0.7v-2h-1.1c-1.4,0-2.1,0.6-2.1,1.9c0,0.3,0.1,0.6,0.4,0.9
	C561.2,156.3,561.5,156.4,561.8,156.4z M581.7,152.8c0.1,1.7-0.3,3.4-1.3,4.8c-0.9,1.1-2.2,1.7-3.6,1.7c-1.2,0-2.4-0.5-3.1-1.5
	l-0.2,1.3h-3.5v-18h3.9v6.3c0.7-0.8,1.8-1.3,2.8-1.3c1.4-0.1,2.8,0.6,3.7,1.7c0.9,1.4,1.4,3.1,1.3,4.8V152.8z M577.7,152.5
	c0.1-0.9-0.1-1.8-0.5-2.6c-0.3-0.5-0.9-0.8-1.5-0.8c-0.8-0.1-1.5,0.3-1.9,1v5c0.4,0.7,1.1,1.1,1.9,1c0.8,0.1,1.6-0.5,1.8-1.4
	C577.7,154.1,577.7,153.3,577.7,152.5z M587.6,159h-4v-18h4V159z M597.2,159c-0.2-0.4-0.3-0.7-0.4-1.1c-0.7,0.9-1.9,1.4-3,1.4
	c-1.1,0-2.2-0.4-3-1.1c-0.8-0.7-1.3-1.7-1.3-2.7c-0.1-1.2,0.5-2.4,1.5-3.1c1.3-0.8,2.9-1.2,4.4-1.1h1.2v-0.7c0-1.2-0.5-1.8-1.5-1.8
	c-0.7-0.1-1.3,0.4-1.4,1c0,0.1,0,0.2,0,0.3h-4c0-1.2,0.6-2.3,1.6-3c1.2-0.8,2.6-1.2,4-1.1c1.4-0.1,2.7,0.3,3.8,1.2
	c0.9,0.8,1.5,2,1.4,3.2v5.6c0,0.9,0.1,1.8,0.5,2.7v0.2H597.2z M594.7,156.4c0.4,0,0.9-0.1,1.2-0.3c0.3-0.2,0.5-0.4,0.7-0.7v-2h-1.2
	c-1.4,0-2.1,0.6-2.1,1.9c0,0.3,0.1,0.6,0.4,0.9C594,156.3,594.3,156.4,594.7,156.4z M608.9,159v-17.1h6.1c1.8-0.1,3.5,0.3,5,1.2
	c1.1,0.8,1.8,2.1,1.7,3.5c0,0.8-0.2,1.6-0.6,2.3c-0.4,0.6-1.1,1.1-1.8,1.4c0.8,0.2,1.5,0.7,2.1,1.3c0.5,0.7,0.7,1.5,0.7,2.3
	c0.1,1.4-0.5,2.8-1.6,3.8c-1.4,0.9-3,1.4-4.7,1.3H608.9z M613,151.7v4.1h2.7c0.6,0,1.2-0.1,1.7-0.5c0.4-0.4,0.6-0.9,0.6-1.4
	c0.1-1-0.6-2-1.6-2.1c-0.2,0-0.3,0-0.5,0L613,151.7z M613,149h2.1c0.7,0.1,1.4-0.1,1.9-0.5c0.4-0.4,0.6-0.9,0.6-1.4
	c0.1-0.6-0.2-1.2-0.6-1.6c-0.6-0.4-1.3-0.5-2-0.5h-2V149z"/>
<path id="Trazado_101104" class="st5" d="M411.9,149.2l-3.8-1.1l0.8-2.2l3.7,1.5l-0.3-4.1h2.5l-0.3,4.2l3.6-1.5l0.8,2.2l-3.9,1.1
	l2.6,3.1l-2,1.4l-2.1-3.4l-2.2,3.3l-2-1.3L411.9,149.2z"/>
<g>
	<path class="st5" d="M752.1,153.6v5.6h-3.4v-14.7h5.6c1.7,0,3,0.4,4,1.2c1,0.8,1.5,1.9,1.5,3.2c0,0.8-0.2,1.4-0.6,2
		c-0.4,0.5-1,1-1.8,1.3c0.9,0.3,1.5,0.7,1.9,1.3c0.4,0.6,0.6,1.3,0.6,2.2v0.9c0,0.4,0.1,0.8,0.2,1.3s0.3,0.8,0.6,1v0.2h-3.5
		c-0.3-0.2-0.4-0.6-0.5-1.1c-0.1-0.5-0.1-1-0.1-1.5v-0.9c0-0.7-0.2-1.2-0.6-1.6c-0.4-0.4-0.9-0.6-1.6-0.6H752.1z M752.1,151h2.2
		c0.7,0,1.2-0.2,1.6-0.5c0.4-0.3,0.5-0.8,0.5-1.3c0-0.6-0.2-1.1-0.6-1.4s-0.9-0.5-1.6-0.5h-2.2V151z"/>
	<path class="st5" d="M767.1,159.5c-1.6,0-2.9-0.5-3.8-1.5c-1-1-1.4-2.3-1.4-3.8v-0.4c0-1.7,0.4-3,1.3-4.1c0.9-1.1,2.1-1.6,3.7-1.6
		c1.5,0,2.6,0.4,3.5,1.3c0.8,0.9,1.3,2.1,1.3,3.6v1.8h-6.2l0,0.1c0.1,0.6,0.3,1,0.7,1.4c0.4,0.4,0.9,0.5,1.5,0.5
		c0.6,0,1.2-0.1,1.5-0.2c0.4-0.1,0.9-0.3,1.5-0.5l0.8,2.1c-0.5,0.3-1.1,0.6-1.9,0.9C768.8,159.3,768,159.5,767.1,159.5z
		 M766.9,150.8c-0.5,0-0.9,0.2-1.1,0.5s-0.4,0.8-0.4,1.4l0,0.1h2.9v-0.3c0-0.6-0.1-1-0.3-1.3C767.7,150.9,767.4,150.8,766.9,150.8z"
		/>
	<path class="st5" d="M776.6,159.2h-3.4v-15.7h3.4V159.2z"/>
	<path class="st5" d="M785,159.2c-0.1-0.2-0.2-0.4-0.3-0.6s-0.1-0.4-0.2-0.7c-0.3,0.5-0.7,0.8-1.2,1.1s-1,0.4-1.7,0.4
		c-1,0-1.9-0.3-2.5-0.9s-1-1.4-1-2.4c0-1.1,0.4-1.9,1.2-2.5c0.8-0.6,2-0.9,3.7-0.9h1.2V152c0-0.5-0.1-0.8-0.3-1.1
		c-0.2-0.2-0.6-0.4-1-0.4c-0.4,0-0.7,0.1-0.9,0.3s-0.3,0.5-0.3,0.9l-3.3,0l0-0.1c0-1,0.4-1.8,1.2-2.5s2-1,3.5-1c1.3,0,2.4,0.3,3.3,1
		c0.8,0.7,1.3,1.6,1.3,2.9v4.1c0,0.6,0,1.1,0.1,1.6c0.1,0.5,0.2,1,0.4,1.5L785,159.2z M782.7,157c0.3,0,0.6-0.1,0.9-0.2
		c0.3-0.1,0.5-0.3,0.7-0.5v-1.7h-1.2c-0.5,0-0.9,0.1-1.2,0.4c-0.2,0.3-0.4,0.6-0.4,1c0,0.3,0.1,0.6,0.3,0.8
		C782.1,156.9,782.4,157,782.7,157z"/>
	<path class="st5" d="M794.3,156.8c0.5,0,0.8-0.1,1-0.4c0.2-0.2,0.3-0.6,0.3-1.1h3.1l0,0.1c0,1.2-0.4,2.2-1.2,2.9
		c-0.9,0.7-1.9,1.1-3.3,1.1c-1.7,0-2.9-0.5-3.8-1.5s-1.3-2.4-1.3-4v-0.2c0-1.6,0.4-3,1.3-4c0.9-1,2.2-1.5,3.8-1.5
		c1.4,0,2.5,0.4,3.3,1.2c0.8,0.8,1.2,1.8,1.2,3.2l0,0.1h-3.1c0-0.5-0.1-0.9-0.3-1.3s-0.6-0.5-1-0.5c-0.6,0-1.1,0.3-1.4,0.8
		s-0.4,1.2-0.4,2.1v0.2c0,0.9,0.1,1.6,0.4,2.1S793.6,156.8,794.3,156.8z"/>
	<path class="st5" d="M803.8,145.8h-3.4v-2.3h3.4V145.8z M803.8,159.2h-3.4v-10.9h3.4V159.2z"/>
	<path class="st5" d="M805.4,153.7c0-1.6,0.5-3,1.4-4c0.9-1,2.2-1.5,3.9-1.5c1.7,0,3,0.5,3.9,1.5c0.9,1,1.4,2.4,1.4,4v0.2
		c0,1.6-0.5,3-1.4,4s-2.2,1.5-3.9,1.5c-1.7,0-3-0.5-3.9-1.5s-1.4-2.4-1.4-4V153.7z M808.8,153.9c0,0.9,0.1,1.6,0.4,2.2
		c0.3,0.5,0.8,0.8,1.5,0.8c0.7,0,1.1-0.3,1.4-0.8c0.3-0.5,0.4-1.2,0.4-2.1v-0.2c0-0.9-0.1-1.6-0.4-2.1c-0.3-0.5-0.8-0.8-1.5-0.8
		c-0.7,0-1.2,0.3-1.4,0.8c-0.3,0.5-0.4,1.2-0.4,2.1V153.9z M811,144.1h3.5l0,0.1l-2.8,2.6h-2.8L811,144.1z"/>
	<path class="st5" d="M820.6,148.3l0.1,1.5c0.4-0.5,0.8-1,1.3-1.3c0.5-0.3,1.1-0.5,1.8-0.5c1.1,0,1.9,0.3,2.5,1
		c0.6,0.7,0.9,1.8,0.9,3.3v6.8h-3.4v-6.8c0-0.6-0.1-1.1-0.4-1.3s-0.6-0.4-1.1-0.4c-0.3,0-0.6,0.1-0.8,0.2c-0.2,0.1-0.5,0.3-0.6,0.5
		v7.8h-3.4v-10.9H820.6z"/>
	<path class="st5" d="M841.4,159.2H838V148h-3.3v-2.4l6.7-1V159.2z"/>
	<path class="st5" d="M857.6,159.2c-0.1-0.2-0.2-0.4-0.3-0.6s-0.1-0.4-0.2-0.7c-0.3,0.5-0.7,0.8-1.2,1.1s-1,0.4-1.7,0.4
		c-1,0-1.9-0.3-2.5-0.9s-1-1.4-1-2.4c0-1.1,0.4-1.9,1.2-2.5c0.8-0.6,2-0.9,3.7-0.9h1.2V152c0-0.5-0.1-0.8-0.3-1.1
		c-0.2-0.2-0.6-0.4-1-0.4c-0.4,0-0.7,0.1-0.9,0.3s-0.3,0.5-0.3,0.9l-3.3,0l0-0.1c0-1,0.4-1.8,1.2-2.5s2-1,3.5-1c1.3,0,2.4,0.3,3.3,1
		c0.8,0.7,1.3,1.6,1.3,2.9v4.1c0,0.6,0,1.1,0.1,1.6c0.1,0.5,0.2,1,0.4,1.5L857.6,159.2z M855.3,157c0.3,0,0.6-0.1,0.9-0.2
		c0.3-0.1,0.5-0.3,0.7-0.5v-1.7h-1.2c-0.5,0-0.9,0.1-1.2,0.4c-0.2,0.3-0.4,0.6-0.4,1c0,0.3,0.1,0.6,0.3,0.8
		C854.7,156.9,855,157,855.3,157z"/>
	<path class="st5" d="M870.6,148.3l0.1,1.4c0.3-0.5,0.8-0.9,1.3-1.2c0.5-0.3,1.1-0.4,1.8-0.4c0.7,0,1.3,0.1,1.8,0.4
		c0.5,0.3,0.9,0.7,1.1,1.4c0.3-0.6,0.8-1,1.3-1.3c0.5-0.3,1.1-0.5,1.8-0.5c1.1,0,1.9,0.4,2.5,1.1s0.9,1.9,0.9,3.4v6.6h-3.4v-6.6
		c0-0.7-0.1-1.2-0.3-1.5c-0.2-0.3-0.5-0.4-1-0.4c-0.3,0-0.6,0.1-0.9,0.2s-0.5,0.3-0.6,0.5c0,0.1,0,0.2,0,0.3s0,0.2,0,0.2v7.3h-3.4
		v-6.6c0-0.7-0.1-1.2-0.3-1.5c-0.2-0.3-0.5-0.4-1-0.4c-0.3,0-0.6,0.1-0.8,0.2s-0.5,0.3-0.6,0.5v7.8h-3.4v-10.9H870.6z"/>
	<path class="st5" d="M891.7,157.9c-0.3,0.5-0.8,0.9-1.3,1.1s-1.1,0.4-1.7,0.4c-1.1,0-2-0.4-2.7-1.1c-0.6-0.7-1-1.9-1-3.4v-6.7h3.4
		v6.7c0,0.6,0.1,1.1,0.3,1.4c0.2,0.3,0.6,0.5,1,0.5c0.4,0,0.7-0.1,1-0.2c0.3-0.1,0.5-0.3,0.7-0.5v-7.9h3.4v10.9h-3L891.7,157.9z"/>
	<path class="st5" d="M901.4,156.8c0.5,0,0.8-0.1,1-0.4c0.2-0.2,0.3-0.6,0.3-1.1h3.1l0,0.1c0,1.2-0.4,2.2-1.2,2.9
		c-0.9,0.7-1.9,1.1-3.3,1.1c-1.7,0-2.9-0.5-3.8-1.5s-1.3-2.4-1.3-4v-0.2c0-1.6,0.4-3,1.3-4c0.9-1,2.2-1.5,3.8-1.5
		c1.4,0,2.5,0.4,3.3,1.2c0.8,0.8,1.2,1.8,1.2,3.2l0,0.1h-3.1c0-0.5-0.1-0.9-0.3-1.3s-0.6-0.5-1-0.5c-0.6,0-1.1,0.3-1.4,0.8
		s-0.4,1.2-0.4,2.1v0.2c0,0.9,0.1,1.6,0.4,2.1S900.8,156.8,901.4,156.8z"/>
	<path class="st5" d="M910.6,149.7c0.3-0.5,0.7-0.9,1.2-1.1s1-0.4,1.6-0.4c1.1,0,2,0.4,2.7,1.2s1,2,1,3.7v6.3h-3.4v-6.3
		c0-0.8-0.1-1.4-0.4-1.7c-0.3-0.3-0.6-0.5-1.2-0.5c-0.3,0-0.6,0-0.9,0.1s-0.4,0.2-0.6,0.4v7.9h-3.4v-15.7h3.4V149.7z"/>
	<path class="st5" d="M918.5,153.7c0-1.6,0.5-3,1.4-4c0.9-1,2.2-1.5,3.9-1.5c1.7,0,3,0.5,3.9,1.5c0.9,1,1.4,2.4,1.4,4v0.2
		c0,1.6-0.5,3-1.4,4s-2.2,1.5-3.9,1.5c-1.7,0-3-0.5-3.9-1.5s-1.4-2.4-1.4-4V153.7z M921.9,153.9c0,0.9,0.1,1.6,0.4,2.2
		c0.3,0.5,0.8,0.8,1.5,0.8c0.7,0,1.1-0.3,1.4-0.8c0.3-0.5,0.4-1.2,0.4-2.1v-0.2c0-0.9-0.1-1.6-0.4-2.1c-0.3-0.5-0.8-0.8-1.5-0.8
		c-0.7,0-1.2,0.3-1.4,0.8c-0.3,0.5-0.4,1.2-0.4,2.1V153.9z"/>
	<path class="st5" d="M936.2,156.2c0-0.3-0.2-0.5-0.5-0.7c-0.3-0.2-0.9-0.4-1.7-0.6c-1.3-0.2-2.2-0.6-2.9-1.2s-1-1.2-1-2.1
		c0-1,0.4-1.8,1.2-2.4s1.9-1,3.3-1c1.5,0,2.6,0.3,3.5,1c0.9,0.6,1.3,1.5,1.2,2.5l0,0.1h-3.3c0-0.4-0.1-0.8-0.3-1
		c-0.2-0.2-0.6-0.3-1.1-0.3c-0.4,0-0.7,0.1-0.9,0.3c-0.2,0.2-0.4,0.4-0.4,0.7c0,0.3,0.1,0.5,0.4,0.7c0.3,0.2,0.8,0.4,1.7,0.5
		c1.3,0.3,2.3,0.7,3,1.2c0.6,0.5,1,1.3,1,2.2c0,1-0.4,1.8-1.3,2.4c-0.9,0.6-2,1-3.5,1c-1.5,0-2.7-0.4-3.5-1.1
		c-0.9-0.8-1.3-1.6-1.2-2.5l0-0.1h3.1c0,0.5,0.2,0.9,0.5,1.1s0.7,0.3,1.3,0.3c0.5,0,0.8-0.1,1-0.3S936.2,156.5,936.2,156.2z"/>
</g>
<g>
	<path class="st5" d="M302.4,155.9H299v-11.3h-3.3v-2.4l6.7-1V155.9z"/>
</g>
</svg>
