<svg xmlns="http://www.w3.org/2000/svg" xmlns:xlink="http://www.w3.org/1999/xlink" width="1020" height="302" viewBox="0 0 1020 302">
  <defs>
    <filter id="Rectángulo_4886" x="74" y="116" width="210" height="76" filterUnits="userSpaceOnUse">
      <feOffset dy="3" input="SourceAlpha"/>
      <feGaussianBlur stdDeviation="3" result="blur"/>
      <feFlood flood-color="#05206a" flood-opacity="0.251"/>
      <feComposite operator="in" in2="blur"/>
      <feComposite in="SourceGraphic"/>
    </filter>
  </defs>
  <g id="Grupo_55172" data-name="Grupo 55172" transform="translate(-284 -3521)">
    <g id="Grupo_55173" data-name="Grupo 55173">
      <rect id="marek-piwnicki-LGgKrtjNsoI-unsplash" width="1020" height="302" rx="10" transform="translate(284 3521)" fill="#1565c0" style="mix-blend-mode: multiply;isolation: isolate"/>
      <g id="Grupo_20817" data-name="Grupo 20817" transform="translate(366.641 3642.561)">
        <g transform="matrix(1, 0, 0, 1, -82.64, -121.56)" filter="url(#Rectángulo_4886)">
          <g id="Rectángulo_4886-2" data-name="Rectángulo 4886" transform="translate(83 122)" fill="#fff" stroke="#111e61" stroke-width="1">
            <path d="M10,0H192a0,0,0,0,1,0,0V58a0,0,0,0,1,0,0H10A10,10,0,0,1,0,48V10A10,10,0,0,1,10,0Z" stroke="none"/>
            <path d="M10,.5H191a.5.5,0,0,1,.5.5V57a.5.5,0,0,1-.5.5H10A9.5,9.5,0,0,1,.5,48V10A9.5,9.5,0,0,1,10,.5Z" fill="none"/>
          </g>
        </g>
        <g id="Rectángulo_4887" data-name="Rectángulo 4887" transform="translate(457.36 0.439)" fill="#fff" stroke="#111e61" stroke-width="1">
          <path d="M0,0H183a10,10,0,0,1,10,10V48a10,10,0,0,1-10,10H0a0,0,0,0,1,0,0V0A0,0,0,0,1,0,0Z" stroke="none"/>
          <path d="M1,.5H183a9.5,9.5,0,0,1,9.5,9.5V48a9.5,9.5,0,0,1-9.5,9.5H1A.5.5,0,0,1,.5,57V1A.5.5,0,0,1,1,.5Z" fill="none"/>
        </g>
        <g id="Rectángulo_4891" data-name="Rectángulo 4891" transform="translate(680.36 0.439)" fill="#ffca28" stroke="#111e61" stroke-width="1">
          <rect width="174" height="58" stroke="none"/>
          <rect x="0.5" y="0.5" width="173" height="57" fill="none"/>
        </g>
        <path id="Trazado_2616" data-name="Trazado 2616" d="M6071,2853h265.079" transform="translate(-5878.49 -2823.771)" fill="none" stroke="#111e61" stroke-width="3"/>
        <g id="Rectángulo_4888" data-name="Rectángulo 4888" transform="translate(245.36 11.439)" fill="#ffca28" stroke="#111e61" stroke-width="1">
          <rect width="37" height="36" stroke="none"/>
          <rect x="0.5" y="0.5" width="36" height="35" fill="none"/>
        </g>
        <g id="Rectángulo_4889" data-name="Rectángulo 4889" transform="translate(367.36 11.439)" fill="#ffca28" stroke="#111e61" stroke-width="1">
          <rect width="37" height="36" stroke="none"/>
          <rect x="0.5" y="0.5" width="36" height="35" fill="none"/>
        </g>
        <circle id="Elipse_1208" data-name="Elipse 1208" cx="4" cy="4" r="4" transform="translate(187.36 25.439)" fill="#111e61"/>
        <circle id="Elipse_1209" data-name="Elipse 1209" cx="4" cy="4" r="4" transform="translate(454.36 25.439)" fill="#111e61"/>
        <path id="Trazado_101098" data-name="Trazado 101098" d="M-4.1,0H-8.062V-12.609l-3.891,1.137v-3l7.488-2.59H-4.1Z" transform="translate(271.36 38.439)" fill="#111e61"/>
        <path id="Trazado_101097" data-name="Trazado 101097" d="M-25.852-13.887h-5.121V0h-4.113V-13.887h-5.027v-3.176h14.262ZM-19.125,0A4.459,4.459,0,0,1-19.5-1.137,3.672,3.672,0,0,1-22.547.234,4.5,4.5,0,0,1-25.594-.85a3.45,3.45,0,0,1-1.254-2.725,3.546,3.546,0,0,1,1.523-3.117,7.761,7.761,0,0,1,4.43-1.055h1.219v-.671q0-1.755-1.512-1.755a1.236,1.236,0,0,0-1.406,1.39h-3.949a3.54,3.54,0,0,1,1.564-2.985,6.575,6.575,0,0,1,3.99-1.147,5.764,5.764,0,0,1,3.832,1.184,4.115,4.115,0,0,1,1.441,3.246v5.613A5.748,5.748,0,0,0-15.176-.2V0ZM-21.6-2.578a2.2,2.2,0,0,0,1.225-.316,1.983,1.983,0,0,0,.7-.715V-5.637h-1.148q-2.062,0-2.062,1.852a1.131,1.131,0,0,0,.363.873A1.315,1.315,0,0,0-21.6-2.578Zm19.84-3.656A7.728,7.728,0,0,1-3.047-1.441,4.318,4.318,0,0,1-6.68.234,3.747,3.747,0,0,1-9.8-1.3L-9.961,0H-13.5V-18h3.949v6.34A3.615,3.615,0,0,1-6.7-12.914a4.319,4.319,0,0,1,3.656,1.7A7.768,7.768,0,0,1-1.758-6.434Zm-3.961-.252a5.155,5.155,0,0,0-.486-2.6A1.639,1.639,0,0,0-7.7-9.867,1.891,1.891,0,0,0-9.551-8.849v5.031A1.9,1.9,0,0,0-7.676-2.812,1.677,1.677,0,0,0-5.906-4.17,9.745,9.745,0,0,0-5.719-6.486ZM4.148,0H.188V-18H4.148Zm9.574,0a4.459,4.459,0,0,1-.375-1.137A3.672,3.672,0,0,1,10.3.234,4.5,4.5,0,0,1,7.254-.85,3.45,3.45,0,0,1,6-3.574,3.546,3.546,0,0,1,7.523-6.691a7.761,7.761,0,0,1,4.43-1.055h1.219v-.671q0-1.755-1.512-1.755a1.236,1.236,0,0,0-1.406,1.39H6.3a3.54,3.54,0,0,1,1.564-2.985,6.575,6.575,0,0,1,3.99-1.147,5.764,5.764,0,0,1,3.832,1.184,4.115,4.115,0,0,1,1.441,3.246v5.613A5.748,5.748,0,0,0,17.672-.2V0ZM11.25-2.578a2.2,2.2,0,0,0,1.225-.316,1.983,1.983,0,0,0,.7-.715V-5.637H12.023q-2.062,0-2.062,1.852a1.131,1.131,0,0,0,.363.873A1.315,1.315,0,0,0,11.25-2.578Zm23.918-.609H29.531L28.547,0H24.152L30.41-17.062h3.867L40.582,0H36.164ZM30.516-6.363h3.668l-1.84-5.918Z" transform="translate(96.36 38.439)" fill="#111e61"/>
        <path id="Trazado_101100" data-name="Trazado 101100" d="M-25.418-13.887h-5.121V0h-4.113V-13.887H-39.68v-3.176h14.262ZM-18.691,0a4.459,4.459,0,0,1-.375-1.137A3.672,3.672,0,0,1-22.113.234,4.5,4.5,0,0,1-25.16-.85a3.45,3.45,0,0,1-1.254-2.725,3.546,3.546,0,0,1,1.523-3.117,7.761,7.761,0,0,1,4.43-1.055h1.219v-.671q0-1.755-1.512-1.755a1.236,1.236,0,0,0-1.406,1.39h-3.949a3.54,3.54,0,0,1,1.564-2.985,6.575,6.575,0,0,1,3.99-1.147,5.764,5.764,0,0,1,3.832,1.184,4.115,4.115,0,0,1,1.441,3.246v5.613A5.748,5.748,0,0,0-14.742-.2V0Zm-2.473-2.578a2.2,2.2,0,0,0,1.225-.316,1.983,1.983,0,0,0,.7-.715V-5.637h-1.148q-2.062,0-2.062,1.852a1.131,1.131,0,0,0,.363.873A1.315,1.315,0,0,0-21.164-2.578Zm19.84-3.656A7.728,7.728,0,0,1-2.613-1.441,4.318,4.318,0,0,1-6.246.234,3.747,3.747,0,0,1-9.363-1.3L-9.527,0h-3.539V-18h3.949v6.34A3.615,3.615,0,0,1-6.27-12.914a4.319,4.319,0,0,1,3.656,1.7A7.768,7.768,0,0,1-1.324-6.434Zm-3.961-.252a5.155,5.155,0,0,0-.486-2.6,1.639,1.639,0,0,0-1.494-.778A1.891,1.891,0,0,0-9.117-8.849v5.031A1.9,1.9,0,0,0-7.242-2.812,1.677,1.677,0,0,0-5.473-4.17,9.745,9.745,0,0,0-5.285-6.486ZM4.582,0H.621V-18H4.582Zm9.574,0a4.459,4.459,0,0,1-.375-1.137A3.672,3.672,0,0,1,10.734.234,4.5,4.5,0,0,1,7.688-.85,3.45,3.45,0,0,1,6.434-3.574,3.546,3.546,0,0,1,7.957-6.691a7.761,7.761,0,0,1,4.43-1.055h1.219v-.671q0-1.755-1.512-1.755a1.236,1.236,0,0,0-1.406,1.39H6.738A3.54,3.54,0,0,1,8.3-11.767a6.575,6.575,0,0,1,3.99-1.147,5.764,5.764,0,0,1,3.832,1.184,4.115,4.115,0,0,1,1.441,3.246v5.613A5.748,5.748,0,0,0,18.105-.2V0ZM11.684-2.578a2.2,2.2,0,0,0,1.225-.316,1.983,1.983,0,0,0,.7-.715V-5.637H12.457q-2.062,0-2.062,1.852a1.131,1.131,0,0,0,.363.873A1.315,1.315,0,0,0,11.684-2.578ZM25.91,0V-17.062h6.129a8.679,8.679,0,0,1,5.01,1.207,4.016,4.016,0,0,1,1.717,3.5,4.06,4.06,0,0,1-.609,2.262,3.551,3.551,0,0,1-1.793,1.383,3.6,3.6,0,0,1,2.051,1.313,3.816,3.816,0,0,1,.715,2.344,4.518,4.518,0,0,1-1.588,3.768A7.556,7.556,0,0,1,32.836,0Zm4.113-7.254v4.09h2.7a2.564,2.564,0,0,0,1.711-.51,1.784,1.784,0,0,0,.6-1.436,1.891,1.891,0,0,0-2.121-2.145Zm0-2.7h2.145a3.047,3.047,0,0,0,1.922-.494,1.752,1.752,0,0,0,.574-1.422,1.839,1.839,0,0,0-.621-1.557,3.324,3.324,0,0,0-2-.476H30.023Z" transform="translate(554.359 38.439)" fill="#111e61"/>
        <path id="Trazado_101101" data-name="Trazado 101101" d="M-57.227-5.029h-1.855V0H-62.51V-14.219h5.6A6.246,6.246,0,0,1-52.959-13.1a3.8,3.8,0,0,1,1.426,3.17,4.616,4.616,0,0,1-.6,2.458,4.263,4.263,0,0,1-1.88,1.58l2.969,5.741V0h-3.672Zm-1.855-2.637h2.168a1.946,1.946,0,0,0,1.47-.514,1.987,1.987,0,0,0,.493-1.434,2.01,2.01,0,0,0-.5-1.444,1.928,1.928,0,0,0-1.465-.524h-2.168ZM-44.5.2a5.432,5.432,0,0,1-3.936-1.45,5.008,5.008,0,0,1-1.5-3.774V-5.3a6.489,6.489,0,0,1,.6-2.861,4.395,4.395,0,0,1,1.753-1.919,5.292,5.292,0,0,1,2.734-.679A4.574,4.574,0,0,1-41.338-9.38a5.43,5.43,0,0,1,1.289,3.853v1.279h-6.543a2.372,2.372,0,0,0,.771,1.4,2.3,2.3,0,0,0,1.543.508,2.958,2.958,0,0,0,2.441-1.094l1.5,1.777A4.2,4.2,0,0,1-42.075-.308,5.891,5.891,0,0,1-44.5.2Zm-.371-8.418q-1.445,0-1.719,1.914h3.32v-.254a1.63,1.63,0,0,0-.4-1.226A1.593,1.593,0,0,0-44.873-8.223ZM-35.254,0h-3.3V-15h3.3Zm7.979,0a3.716,3.716,0,0,1-.312-.947A3.06,3.06,0,0,1-30.127.2a3.749,3.749,0,0,1-2.539-.9,2.875,2.875,0,0,1-1.045-2.271,2.955,2.955,0,0,1,1.27-2.6,6.468,6.468,0,0,1,3.691-.879h1.016v-.559q0-1.462-1.26-1.462a1.03,1.03,0,0,0-1.172,1.158h-3.291a2.95,2.95,0,0,1,1.3-2.487,5.479,5.479,0,0,1,3.325-.956,4.8,4.8,0,0,1,3.193.986,3.429,3.429,0,0,1,1.2,2.705v4.678a4.79,4.79,0,0,0,.449,2.227V0Zm-2.061-2.148a1.836,1.836,0,0,0,1.021-.264,1.653,1.653,0,0,0,.581-.6V-4.7h-.957q-1.719,0-1.719,1.543a.942.942,0,0,0,.3.728A1.1,1.1,0,0,0-29.336-2.148Zm11.191-.2A1.464,1.464,0,0,0-17.07-2.72,1.379,1.379,0,0,0-16.7-3.77h3.086A3.653,3.653,0,0,1-14.858-.918,4.631,4.631,0,0,1-18.066.2,4.689,4.689,0,0,1-21.7-1.25a5.7,5.7,0,0,1-1.328-4v-.137a6.436,6.436,0,0,1,.591-2.827,4.3,4.3,0,0,1,1.7-1.885,5.081,5.081,0,0,1,2.637-.659,4.573,4.573,0,0,1,3.271,1.143,4.053,4.053,0,0,1,1.211,3.1H-16.7a1.807,1.807,0,0,0-.4-1.26,1.382,1.382,0,0,0-1.074-.439q-1.279,0-1.494,1.631a11.508,11.508,0,0,0-.068,1.426,4.52,4.52,0,0,0,.381,2.207A1.319,1.319,0,0,0-18.145-2.344ZM-8.75,0h-3.3V-10.566h3.3Zm-3.5-13.3a1.482,1.482,0,0,1,.508-1.159,1.909,1.909,0,0,1,1.318-.452A1.909,1.909,0,0,1-9.1-14.46,1.482,1.482,0,0,1-8.594-13.3,1.482,1.482,0,0,1-9.1-12.141a1.909,1.909,0,0,1-1.318.452,1.909,1.909,0,0,1-1.318-.452A1.482,1.482,0,0,1-12.246-13.3Zm5.107,7.92A6.236,6.236,0,0,1-6.523-8.2a4.4,4.4,0,0,1,1.768-1.9,5.323,5.323,0,0,1,2.705-.664,4.858,4.858,0,0,1,3.74,1.47,5.64,5.64,0,0,1,1.367,4v.117A5.472,5.472,0,0,1,1.685-1.255,4.871,4.871,0,0,1-2.031.2,4.927,4.927,0,0,1-5.654-1.157,5.29,5.29,0,0,1-7.129-4.824Zm3.291.205a3.932,3.932,0,0,0,.459,2.148,1.529,1.529,0,0,0,1.357.684q1.758,0,1.8-2.705v-.332q0-2.842-1.816-2.842-1.65,0-1.787,2.451ZM-1.6-15H1.875L-.84-11.934l-2.686,0Zm9.131,4.434.107,1.24a3.583,3.583,0,0,1,3.018-1.436,3.015,3.015,0,0,1,2.466.986,4.7,4.7,0,0,1,.845,2.969V0h-3.3V-6.67a1.783,1.783,0,0,0-.322-1.177A1.491,1.491,0,0,0,9.17-8.223a1.569,1.569,0,0,0-1.436.762V0H4.443V-10.566ZM28.008,0h-3.3V-10.508l-3.242.947v-2.5l6.24-2.158h.3ZM43.281,0a3.716,3.716,0,0,1-.312-.947A3.06,3.06,0,0,1,40.43.2a3.749,3.749,0,0,1-2.539-.9,2.875,2.875,0,0,1-1.045-2.271,2.955,2.955,0,0,1,1.27-2.6,6.468,6.468,0,0,1,3.691-.879h1.016v-.559q0-1.462-1.26-1.462a1.03,1.03,0,0,0-1.172,1.158H37.1a2.95,2.95,0,0,1,1.3-2.487,5.479,5.479,0,0,1,3.325-.956,4.8,4.8,0,0,1,3.193.986,3.429,3.429,0,0,1,1.2,2.705v4.678a4.79,4.79,0,0,0,.449,2.227V0ZM41.221-2.148a1.836,1.836,0,0,0,1.021-.264,1.653,1.653,0,0,0,.581-.6V-4.7h-.957q-1.719,0-1.719,1.543a.942.942,0,0,0,.3.728A1.1,1.1,0,0,0,41.221-2.148ZM60.166,0h-3.3V-10.508l-3.242.947v-2.5l6.24-2.158h.3Z" transform="translate(768.359 38.439)" fill="#111e61"/>
        <path id="Trazado_101099" data-name="Trazado 101099" d="M-4.1,0H-8.062V-12.609l-3.891,1.137v-3l7.488-2.59H-4.1Z" transform="translate(393.36 38.439)" fill="#111e61"/>
      </g>
    </g>
  </g>
</svg>
