<svg id="Grupo_21471" data-name="Grupo 21471" xmlns="http://www.w3.org/2000/svg" width="1031" height="400" viewBox="0 0 1031 400">
  <rect id="Rectángulo_5188" data-name="Rectángulo 5188" width="1031" height="400" fill="#f3f9ff"/>
  <g id="Grupo_21469" data-name="Grupo 21469" transform="translate(55 52)">
    <rect id="Rectángulo_4894" data-name="Rectángulo 4894" width="162" height="72" rx="10" transform="translate(181 112)" fill="#b7fff8"/>
    <rect id="Rectángulo_4906" data-name="Rectángulo 4906" width="163" height="72" rx="10" transform="translate(656 112)" fill="#b7fff8"/>
    <rect id="Rectángulo_4895" data-name="Rectángulo 4895" width="102" height="72" rx="10" transform="translate(241)" fill="#b7fff8"/>
    <rect id="Rectángulo_4907" data-name="Rectángulo 4907" width="102" height="72" rx="10" transform="translate(819)" fill="#b7fff8"/>
    <rect id="Rectángulo_4905" data-name="Rectángulo 4905" width="102" height="72" rx="10" transform="translate(241 224)" fill="#b7fff8"/>
    <rect id="Rectángulo_4910" data-name="Rectángulo 4910" width="102" height="72" rx="10" transform="translate(819 224)" fill="#b7fff8"/>
    <rect id="Rectángulo_4902" data-name="Rectángulo 4902" width="102" height="72" rx="10" transform="translate(76)" fill="#b7fff8"/>
    <rect id="Rectángulo_4908" data-name="Rectángulo 4908" width="102" height="72" rx="10" transform="translate(654)" fill="#b7fff8"/>
    <rect id="Rectángulo_4904" data-name="Rectángulo 4904" width="102" height="72" rx="10" transform="translate(76 224)" fill="#b7fff8"/>
    <rect id="Rectángulo_4909" data-name="Rectángulo 4909" width="133" height="72" rx="10" transform="translate(623 224)" fill="#b7fff8"/>
    <rect id="Rectángulo_4903" data-name="Rectángulo 4903" width="102" height="72" rx="10" transform="translate(0 113)" fill="#b7fff8"/>
    <circle id="Elipse_1210" data-name="Elipse 1210" cx="66" cy="66" r="66" transform="translate(431 82)" fill="#a6e1fe"/>
    <path id="Trazado_2618" data-name="Trazado 2618" d="M6162,2285.5h65.514" transform="translate(-5810.324 -2137.431)" fill="none" stroke="#111e61" stroke-linecap="round" stroke-width="3"/>
    <path id="Trazado_2617" data-name="Trazado 2617" d="M6162,2285.5h65.514" transform="translate(-5586.717 -2137.431)" fill="none" stroke="#111e61" stroke-linecap="round" stroke-width="3"/>
    <path id="Trazado_101120" data-name="Trazado 101120" d="M5.933-3.48,8.481-12.8h3.445L7.62,0H4.245L-.026-12.8H3.393Zm11,3.656a4.889,4.889,0,0,1-3.542-1.305,4.507,4.507,0,0,1-1.354-3.4v-.246a5.84,5.84,0,0,1,.541-2.575,3.955,3.955,0,0,1,1.578-1.727,4.763,4.763,0,0,1,2.461-.611,4.117,4.117,0,0,1,3.164,1.244,4.887,4.887,0,0,1,1.16,3.467v1.151H15.056a2.135,2.135,0,0,0,.694,1.257,2.066,2.066,0,0,0,1.389.457,2.662,2.662,0,0,0,2.2-.984l1.354,1.6A3.784,3.784,0,0,1,19.121-.277,5.3,5.3,0,0,1,16.937.176ZM16.6-7.4q-1.3,0-1.547,1.723h2.988v-.229a1.467,1.467,0,0,0-.36-1.1A1.434,1.434,0,0,0,16.6-7.4Zm8.429-1.09a2.964,2.964,0,0,1,2.426-1.2,2.956,2.956,0,0,1,2.373.932A4.186,4.186,0,0,1,30.647-6V0H27.677V-5.933a1.674,1.674,0,0,0-.308-1.112A1.322,1.322,0,0,0,26.323-7.4a1.424,1.424,0,0,0-1.292.58V0H22.069V-13.5h2.962ZM35.525,0H32.546V-9.51h2.979ZM34.418-13.324h3.129L35.1-10.564l-2.417,0ZM41.449-2.109a1.317,1.317,0,0,0,.967-.338,1.241,1.241,0,0,0,.334-.945h2.777A3.288,3.288,0,0,1,44.407-.826a4.168,4.168,0,0,1-2.887,1,4.22,4.22,0,0,1-3.27-1.3,5.125,5.125,0,0,1-1.2-3.6v-.123A5.792,5.792,0,0,1,37.586-7.4a3.872,3.872,0,0,1,1.534-1.7,4.573,4.573,0,0,1,2.373-.593,4.116,4.116,0,0,1,2.944,1.028,3.647,3.647,0,0,1,1.09,2.786H42.75A1.626,1.626,0,0,0,42.39-7a1.244,1.244,0,0,0-.967-.4q-1.151,0-1.345,1.468a10.357,10.357,0,0,0-.062,1.283,4.068,4.068,0,0,0,.343,1.986A1.187,1.187,0,0,0,41.449-2.109Zm11,1.081A3.054,3.054,0,0,1,49.9.176a3,3,0,0,1-2.369-.91,3.826,3.826,0,0,1-.8-2.615V-9.51h2.962v6.179A1.065,1.065,0,0,0,50.88-2.109a1.548,1.548,0,0,0,1.45-.729V-9.51H55.31V0H52.532ZM60.056,0H57.085V-13.5h2.971Zm1.45-4.843a5.613,5.613,0,0,1,.554-2.536A3.96,3.96,0,0,1,63.65-9.088a4.791,4.791,0,0,1,2.435-.6,4.373,4.373,0,0,1,3.366,1.323,5.076,5.076,0,0,1,1.23,3.6v.105a4.925,4.925,0,0,1-1.235,3.529A4.384,4.384,0,0,1,66.1.176a4.434,4.434,0,0,1-3.261-1.217,4.761,4.761,0,0,1-1.327-3.3Zm2.962.185a3.538,3.538,0,0,0,.413,1.934,1.376,1.376,0,0,0,1.222.615q1.582,0,1.617-2.435v-.3q0-2.558-1.635-2.558-1.485,0-1.608,2.206Z" transform="translate(234 154)" fill="#111e61"/>
    <path id="Trazado_101119" data-name="Trazado 101119" d="M11.013-10.415H7.172V0H4.087V-10.415H.316V-12.8h10.7ZM15.3,0H12.331V-9.51H15.3ZM12.155-11.971a1.334,1.334,0,0,1,.457-1.043,1.718,1.718,0,0,1,1.187-.407,1.718,1.718,0,0,1,1.187.407,1.334,1.334,0,0,1,.457,1.043,1.334,1.334,0,0,1-.457,1.043,1.718,1.718,0,0,1-1.187.407,1.718,1.718,0,0,1-1.187-.407A1.334,1.334,0,0,1,12.155-11.971ZM21.727.176a4.889,4.889,0,0,1-3.542-1.305,4.507,4.507,0,0,1-1.354-3.4v-.246a5.84,5.84,0,0,1,.541-2.575,3.955,3.955,0,0,1,1.578-1.727,4.763,4.763,0,0,1,2.461-.611,4.117,4.117,0,0,1,3.164,1.244,4.887,4.887,0,0,1,1.16,3.467v1.151H19.846a2.135,2.135,0,0,0,.694,1.257,2.066,2.066,0,0,0,1.389.457,2.662,2.662,0,0,0,2.2-.984l1.354,1.6A3.784,3.784,0,0,1,23.911-.277,5.3,5.3,0,0,1,21.727.176ZM21.393-7.4q-1.3,0-1.547,1.723h2.988v-.229a1.467,1.467,0,0,0-.36-1.1A1.434,1.434,0,0,0,21.393-7.4ZM29.646-9.51l.1,1.116a3.225,3.225,0,0,1,2.716-1.292,2.713,2.713,0,0,1,2.219.888,4.226,4.226,0,0,1,.76,2.672V0H32.467V-6a1.6,1.6,0,0,0-.29-1.059A1.342,1.342,0,0,0,31.122-7.4a1.413,1.413,0,0,0-1.292.686V0H26.868V-9.51ZM41.678.176a4.889,4.889,0,0,1-3.542-1.305,4.507,4.507,0,0,1-1.354-3.4v-.246a5.84,5.84,0,0,1,.541-2.575A3.955,3.955,0,0,1,38.9-9.075a4.763,4.763,0,0,1,2.461-.611,4.117,4.117,0,0,1,3.164,1.244,4.887,4.887,0,0,1,1.16,3.467v1.151H39.8a2.135,2.135,0,0,0,.694,1.257,2.066,2.066,0,0,0,1.389.457,2.662,2.662,0,0,0,2.2-.984l1.354,1.6A3.784,3.784,0,0,1,43.862-.277,5.3,5.3,0,0,1,41.678.176ZM41.344-7.4q-1.3,0-1.547,1.723h2.988v-.229a1.467,1.467,0,0,0-.36-1.1A1.434,1.434,0,0,0,41.344-7.4Z" transform="translate(475 154)" fill="#111e61"/>
    <path id="Trazado_101116" data-name="Trazado 101116" d="M.967,0V-12.8H5.089a6.064,6.064,0,0,1,3.05.769,5.406,5.406,0,0,1,2.114,2.171,6.554,6.554,0,0,1,.769,3.142v.589a6.592,6.592,0,0,1-.743,3.151A5.429,5.429,0,0,1,8.187-.8a5.93,5.93,0,0,1-3.01.8ZM4.052-10.415v8.042H5.124a2.4,2.4,0,0,0,2.039-.945,4.63,4.63,0,0,0,.712-2.808V-6.68a4.592,4.592,0,0,0-.712-2.795,2.442,2.442,0,0,0-2.074-.94Zm14.08,9.387a3.054,3.054,0,0,1-2.54,1.2,3,3,0,0,1-2.369-.91,3.826,3.826,0,0,1-.8-2.615V-9.51h2.962v6.179a1.065,1.065,0,0,0,1.187,1.222,1.548,1.548,0,0,0,1.45-.729V-9.51H21V0H18.22ZM27.22.176a4.889,4.889,0,0,1-3.542-1.305,4.507,4.507,0,0,1-1.354-3.4v-.246a5.84,5.84,0,0,1,.541-2.575,3.955,3.955,0,0,1,1.578-1.727A4.763,4.763,0,0,1,26.9-9.686a4.117,4.117,0,0,1,3.164,1.244,4.887,4.887,0,0,1,1.16,3.467v1.151H25.339a2.135,2.135,0,0,0,.694,1.257,2.066,2.066,0,0,0,1.389.457,2.662,2.662,0,0,0,2.2-.984l1.354,1.6A3.784,3.784,0,0,1,29.4-.277,5.3,5.3,0,0,1,27.22.176ZM26.886-7.4q-1.3,0-1.547,1.723h2.988v-.229a1.467,1.467,0,0,0-.36-1.1A1.434,1.434,0,0,0,26.886-7.4ZM35.139-9.51l.1,1.116a3.225,3.225,0,0,1,2.716-1.292A2.713,2.713,0,0,1,40.17-8.8a4.226,4.226,0,0,1,.76,2.672V0H37.96V-6a1.6,1.6,0,0,0-.29-1.059A1.342,1.342,0,0,0,36.615-7.4a1.413,1.413,0,0,0-1.292.686V0H32.361V-9.51Zm4.913-3.92a2.562,2.562,0,0,1-.584,1.7,1.813,1.813,0,0,1-1.446.7,2.852,2.852,0,0,1-1.292-.369,2.7,2.7,0,0,0-1.151-.369.66.66,0,0,0-.479.193.8.8,0,0,0-.2.6l-1.644-.088a2.576,2.576,0,0,1,.584-1.687,1.793,1.793,0,0,1,1.437-.712,2.967,2.967,0,0,1,1.151.325,7.07,7.07,0,0,0,.9.369,1.74,1.74,0,0,0,.4.044.671.671,0,0,0,.483-.2.807.807,0,0,0,.2-.6ZM42.2-4.843a5.613,5.613,0,0,1,.554-2.536,3.96,3.96,0,0,1,1.591-1.709,4.791,4.791,0,0,1,2.435-.6,4.373,4.373,0,0,1,3.366,1.323,5.076,5.076,0,0,1,1.23,3.6v.105a4.925,4.925,0,0,1-1.235,3.529A4.384,4.384,0,0,1,46.793.176a4.434,4.434,0,0,1-3.261-1.217,4.761,4.761,0,0,1-1.327-3.3Zm2.962.185a3.538,3.538,0,0,0,.413,1.934,1.376,1.376,0,0,0,1.222.615q1.582,0,1.617-2.435v-.3q0-2.558-1.635-2.558-1.485,0-1.608,2.206Z" transform="translate(697 154)" fill="#111e61"/>
    <path id="Trazado_101121" data-name="Trazado 101121" d="M-18.41,0h-2.344l-4.562-7.484V0H-27.66V-11.375h2.344l4.57,7.5v-7.5h2.336Zm6.961-.859A2.831,2.831,0,0,1-13.762.156a2.67,2.67,0,0,1-2.074-.781,3.335,3.335,0,0,1-.73-2.289V-8.453h2.258v5.467q0,1.322,1.2,1.322a1.63,1.63,0,0,0,1.578-.8V-8.453h2.266V0h-2.125ZM-12.457-12H-10L-12.16-9.578H-14Zm7.016,3.547.07.945a2.971,2.971,0,0,1,2.43-1.1A2.255,2.255,0,0,1-.7-7.32,2.9,2.9,0,0,1,1.84-8.609a2.521,2.521,0,0,1,2.047.8A3.681,3.681,0,0,1,4.559-5.4V0H2.293V-5.4a1.616,1.616,0,0,0-.281-1.053,1.245,1.245,0,0,0-.992-.333,1.409,1.409,0,0,0-1.406.971L-.379,0H-2.637V-5.4A1.6,1.6,0,0,0-2.926-6.46a1.257,1.257,0,0,0-.984-.329,1.463,1.463,0,0,0-1.391.8V0H-7.559V-8.453ZM10.184.156A4.15,4.15,0,0,1,7.156-.984,4.054,4.054,0,0,1,5.988-4.023v-.219A5.106,5.106,0,0,1,6.48-6.52,3.612,3.612,0,0,1,7.875-8.066a3.914,3.914,0,0,1,2.059-.543,3.508,3.508,0,0,1,2.73,1.094,4.444,4.444,0,0,1,1,3.1v.922H8.277a2.1,2.1,0,0,0,.66,1.328,2,2,0,0,0,1.395.5,2.437,2.437,0,0,0,2.039-.945L13.48-1.367A3.389,3.389,0,0,1,12.105-.246,4.511,4.511,0,0,1,10.184.156ZM9.926-6.789a1.411,1.411,0,0,0-1.09.455,2.357,2.357,0,0,0-.535,1.3h3.141v-.181a1.681,1.681,0,0,0-.406-1.165A1.456,1.456,0,0,0,9.926-6.789Zm9.766.453a6.134,6.134,0,0,0-.812-.062,1.654,1.654,0,0,0-1.68.867V0H14.941V-8.453h2.133l.063,1.008A2.092,2.092,0,0,1,19.02-8.609a2.366,2.366,0,0,1,.7.1ZM20.145-4.3a5.013,5.013,0,0,1,.484-2.242A3.546,3.546,0,0,1,22.023-8.07a4.069,4.069,0,0,1,2.113-.539A3.849,3.849,0,0,1,26.93-7.562a4.2,4.2,0,0,1,1.207,2.844l.016.578A4.418,4.418,0,0,1,27.066-1.02,3.775,3.775,0,0,1,24.152.156a3.793,3.793,0,0,1-2.918-1.172A4.5,4.5,0,0,1,20.145-4.2Zm2.258.16A3.16,3.16,0,0,0,22.855-2.3a1.5,1.5,0,0,0,1.3.638,1.5,1.5,0,0,0,1.281-.63,3.457,3.457,0,0,0,.461-2.015,3.128,3.128,0,0,0-.461-1.831,1.5,1.5,0,0,0-1.3-.649,1.474,1.474,0,0,0-1.281.646A3.516,3.516,0,0,0,22.4-4.144ZM-32.664,13.711a5.094,5.094,0,0,1,.887-3.148,2.877,2.877,0,0,1,2.426-1.172,2.589,2.589,0,0,1,2.039.922V6h2.266V18h-2.039l-.109-.9a2.657,2.657,0,0,1-2.172,1.055,2.869,2.869,0,0,1-2.395-1.176A5.258,5.258,0,0,1-32.664,13.711Zm2.258.161a3.355,3.355,0,0,0,.414,1.829,1.348,1.348,0,0,0,1.2.636,1.51,1.51,0,0,0,1.477-.887V12.1a1.489,1.489,0,0,0-1.461-.887Q-30.406,11.211-30.406,13.872Zm11,4.285a4.15,4.15,0,0,1-3.027-1.141A4.054,4.054,0,0,1-23.6,13.977v-.219a5.106,5.106,0,0,1,.492-2.277,3.612,3.612,0,0,1,1.395-1.547,3.914,3.914,0,0,1,2.059-.543,3.508,3.508,0,0,1,2.73,1.094,4.444,4.444,0,0,1,1,3.1v.922h-5.383a2.1,2.1,0,0,0,.66,1.328,2,2,0,0,0,1.395.5,2.437,2.437,0,0,0,2.039-.945l1.109,1.242a3.389,3.389,0,0,1-1.375,1.121A4.511,4.511,0,0,1-19.406,18.156Zm-.258-6.945a1.411,1.411,0,0,0-1.09.455,2.357,2.357,0,0,0-.535,1.3h3.141v-.181a1.681,1.681,0,0,0-.406-1.165A1.456,1.456,0,0,0-19.664,11.211Zm11.492,2.781V18h-2.344V6.625h4.438a5.134,5.134,0,0,1,2.254.469,3.454,3.454,0,0,1,1.5,1.332A3.714,3.714,0,0,1-1.8,10.391a3.266,3.266,0,0,1-1.145,2.637,4.767,4.767,0,0,1-3.168.965Zm0-1.9h2.094a2.059,2.059,0,0,0,1.418-.437,1.591,1.591,0,0,0,.488-1.25,1.876,1.876,0,0,0-.492-1.352,1.839,1.839,0,0,0-1.359-.531H-8.172ZM2.039,18H-.227V6H2.039ZM8.8,18a2.507,2.507,0,0,1-.227-.758,2.732,2.732,0,0,1-2.133.914,3,3,0,0,1-2.059-.719,2.312,2.312,0,0,1-.816-1.812,2.389,2.389,0,0,1,1-2.062,4.915,4.915,0,0,1,2.879-.727H8.477v-.484a1.393,1.393,0,0,0-.3-.937,1.183,1.183,0,0,0-.949-.352,1.345,1.345,0,0,0-.895.273.929.929,0,0,0-.324.75H3.75A2.268,2.268,0,0,1,4.2,10.727a3,3,0,0,1,1.281-.98,4.669,4.669,0,0,1,1.859-.355,3.689,3.689,0,0,1,2.48.785,2.747,2.747,0,0,1,.918,2.207v3.664a4.041,4.041,0,0,0,.336,1.82V18ZM6.93,16.43a1.945,1.945,0,0,0,.922-.223,1.462,1.462,0,0,0,.625-.6V14.156H7.633q-1.7,0-1.8,1.172l-.008.133a.9.9,0,0,0,.3.7A1.153,1.153,0,0,0,6.93,16.43Zm9.063-.094a1.481,1.481,0,0,0,1.016-.344,1.2,1.2,0,0,0,.406-.914h2.117a2.9,2.9,0,0,1-.469,1.574A3.093,3.093,0,0,1,17.8,17.762a3.949,3.949,0,0,1-1.77.395A3.67,3.67,0,0,1,13.172,17a4.56,4.56,0,0,1-1.047-3.184v-.148a4.508,4.508,0,0,1,1.039-3.117,3.627,3.627,0,0,1,2.852-1.164,3.555,3.555,0,0,1,2.543.9,3.2,3.2,0,0,1,.973,2.4H17.414a1.551,1.551,0,0,0-.406-1.072,1.51,1.51,0,0,0-2.223.163,3.333,3.333,0,0,0-.4,1.866v.235a3.375,3.375,0,0,0,.4,1.878A1.377,1.377,0,0,0,15.992,16.336ZM25.719,18a2.507,2.507,0,0,1-.227-.758,2.732,2.732,0,0,1-2.133.914,3,3,0,0,1-2.059-.719,2.312,2.312,0,0,1-.816-1.812,2.389,2.389,0,0,1,1-2.062,4.915,4.915,0,0,1,2.879-.727H25.4v-.484a1.393,1.393,0,0,0-.3-.937,1.183,1.183,0,0,0-.949-.352,1.345,1.345,0,0,0-.895.273.929.929,0,0,0-.324.75H20.672a2.268,2.268,0,0,1,.453-1.359,3,3,0,0,1,1.281-.98,4.669,4.669,0,0,1,1.859-.355,3.689,3.689,0,0,1,2.48.785,2.747,2.747,0,0,1,.918,2.207v3.664A4.041,4.041,0,0,0,28,17.867V18Zm-1.867-1.57a1.945,1.945,0,0,0,.922-.223,1.462,1.462,0,0,0,.625-.6V14.156h-.844q-1.7,0-1.8,1.172l-.008.133a.9.9,0,0,0,.3.7A1.153,1.153,0,0,0,23.852,16.43Zm5.664.461a1.137,1.137,0,0,1,.363-.875,1.412,1.412,0,0,1,1.828,0,1.137,1.137,0,0,1,.363.875,1.121,1.121,0,0,1-.359.863,1.435,1.435,0,0,1-1.836,0A1.121,1.121,0,0,1,29.516,16.891Z" transform="translate(292 33)" fill="#111e61"/>
    <path id="Trazado_101122" data-name="Trazado 101122" d="M-18.523-11.375l2.922,8.25,2.906-8.25h3.078V0h-2.352V-3.109l.234-5.367L-14.8,0h-1.609l-3.062-8.469.234,5.359V0h-2.344V-11.375ZM-2.82,0a2.507,2.507,0,0,1-.227-.758A2.732,2.732,0,0,1-5.18.156,3,3,0,0,1-7.238-.562a2.312,2.312,0,0,1-.816-1.812,2.389,2.389,0,0,1,1-2.062A4.915,4.915,0,0,1-4.18-5.164h1.039v-.484a1.393,1.393,0,0,0-.3-.937,1.183,1.183,0,0,0-.949-.352,1.345,1.345,0,0,0-.895.273.929.929,0,0,0-.324.75H-7.867a2.268,2.268,0,0,1,.453-1.359,3,3,0,0,1,1.281-.98,4.669,4.669,0,0,1,1.859-.355,3.689,3.689,0,0,1,2.48.785A2.747,2.747,0,0,1-.875-5.617v3.664A4.041,4.041,0,0,0-.539-.133V0ZM-4.687-1.57a1.945,1.945,0,0,0,.922-.223,1.462,1.462,0,0,0,.625-.6V-3.844h-.844q-1.7,0-1.8,1.172l-.008.133a.9.9,0,0,0,.3.7A1.153,1.153,0,0,0-4.687-1.57Zm10.3-4.766A6.134,6.134,0,0,0,4.8-6.4a1.654,1.654,0,0,0-1.68.867V0H.859V-8.453H2.992l.063,1.008A2.092,2.092,0,0,1,4.938-8.609a2.366,2.366,0,0,1,.7.1Zm4.453,4.672a1.481,1.481,0,0,0,1.016-.344,1.2,1.2,0,0,0,.406-.914H13.6a2.9,2.9,0,0,1-.469,1.574A3.093,3.093,0,0,1,11.871-.238,3.949,3.949,0,0,1,10.1.156,3.67,3.67,0,0,1,7.242-1,4.56,4.56,0,0,1,6.2-4.18v-.148A4.508,4.508,0,0,1,7.234-7.445a3.627,3.627,0,0,1,2.852-1.164,3.555,3.555,0,0,1,2.543.9A3.2,3.2,0,0,1,13.6-5.3H11.484a1.551,1.551,0,0,0-.406-1.072,1.354,1.354,0,0,0-1.031-.412,1.36,1.36,0,0,0-1.191.575,3.333,3.333,0,0,0-.4,1.866v.235a3.375,3.375,0,0,0,.4,1.878A1.377,1.377,0,0,0,10.063-1.664ZM19.789,0a2.507,2.507,0,0,1-.227-.758A2.732,2.732,0,0,1,17.43.156a3,3,0,0,1-2.059-.719,2.312,2.312,0,0,1-.816-1.812,2.389,2.389,0,0,1,1-2.062,4.915,4.915,0,0,1,2.879-.727h1.039v-.484a1.393,1.393,0,0,0-.3-.937,1.183,1.183,0,0,0-.949-.352,1.345,1.345,0,0,0-.895.273.929.929,0,0,0-.324.75H14.742A2.268,2.268,0,0,1,15.2-7.273a3,3,0,0,1,1.281-.98,4.669,4.669,0,0,1,1.859-.355,3.689,3.689,0,0,1,2.48.785,2.747,2.747,0,0,1,.918,2.207v3.664a4.041,4.041,0,0,0,.336,1.82V0ZM17.922-1.57a1.945,1.945,0,0,0,.922-.223,1.462,1.462,0,0,0,.625-.6V-3.844h-.844q-1.7,0-1.8,1.172l-.008.133a.9.9,0,0,0,.3.7A1.153,1.153,0,0,0,17.922-1.57Z" transform="translate(127 42)" fill="#111e61"/>
    <path id="Trazado_101123" data-name="Trazado 101123" d="M-28.375,0h-2.266V-8.453h2.266Zm-2.4-10.641a1.112,1.112,0,0,1,.34-.836,1.277,1.277,0,0,1,.926-.328,1.28,1.28,0,0,1,.922.328,1.105,1.105,0,0,1,.344.836,1.108,1.108,0,0,1-.348.844,1.283,1.283,0,0,1-.918.328,1.283,1.283,0,0,1-.918-.328A1.108,1.108,0,0,1-30.773-10.641Zm3.906,6.352a5.094,5.094,0,0,1,.887-3.148,2.877,2.877,0,0,1,2.426-1.172,2.589,2.589,0,0,1,2.039.922V-12h2.266V0h-2.039L-21.4-.9A2.657,2.657,0,0,1-23.57.156,2.869,2.869,0,0,1-25.965-1.02,5.258,5.258,0,0,1-26.867-4.289Zm2.258.161A3.355,3.355,0,0,0-24.2-2.3a1.348,1.348,0,0,0,1.2.636,1.51,1.51,0,0,0,1.477-.887V-5.9a1.489,1.489,0,0,0-1.461-.887Q-24.609-6.789-24.609-4.128ZM-13.367,0V-11.375h3.5a5.315,5.315,0,0,1,2.684.676A4.712,4.712,0,0,1-5.336-8.777a5.928,5.928,0,0,1,.664,2.832v.523A5.945,5.945,0,0,1-5.324-2.6,4.672,4.672,0,0,1-7.164-.687,5.355,5.355,0,0,1-9.844,0Zm2.344-9.477v7.594h1.133a2.545,2.545,0,0,0,2.1-.9,4.06,4.06,0,0,0,.742-2.57v-.6a4.124,4.124,0,0,0-.719-2.629,2.537,2.537,0,0,0-2.1-.895ZM1.945-.859A2.831,2.831,0,0,1-.367.156,2.67,2.67,0,0,1-2.441-.625a3.335,3.335,0,0,1-.73-2.289V-8.453H-.914v5.467q0,1.322,1.2,1.322a1.63,1.63,0,0,0,1.578-.8V-8.453H4.133V0H2.008ZM9.727.156A4.15,4.15,0,0,1,6.7-.984,4.054,4.054,0,0,1,5.531-4.023v-.219A5.106,5.106,0,0,1,6.023-6.52,3.612,3.612,0,0,1,7.418-8.066a3.914,3.914,0,0,1,2.059-.543,3.508,3.508,0,0,1,2.73,1.094,4.444,4.444,0,0,1,1,3.1v.922H7.82a2.1,2.1,0,0,0,.66,1.328,2,2,0,0,0,1.395.5,2.437,2.437,0,0,0,2.039-.945l1.109,1.242A3.389,3.389,0,0,1,11.648-.246,4.511,4.511,0,0,1,9.727.156ZM9.469-6.789a1.411,1.411,0,0,0-1.09.455,2.357,2.357,0,0,0-.535,1.3h3.141v-.181a1.681,1.681,0,0,0-.406-1.165A1.456,1.456,0,0,0,9.469-6.789Zm7.094-1.664.07.977a2.951,2.951,0,0,1,2.43-1.133,2.453,2.453,0,0,1,2,.789,3.682,3.682,0,0,1,.672,2.359V0H19.477V-5.419a1.47,1.47,0,0,0-.312-1.045,1.4,1.4,0,0,0-1.039-.325,1.553,1.553,0,0,0-1.43.814V0H14.438V-8.453ZM21.047-11.9a2.187,2.187,0,0,1-.516,1.48,1.6,1.6,0,0,1-1.258.6,1.908,1.908,0,0,1-.527-.066,3.539,3.539,0,0,1-.637-.285,3.435,3.435,0,0,0-.586-.27,1.432,1.432,0,0,0-.391-.051.627.627,0,0,0-.465.2.759.759,0,0,0-.191.555L15.164-9.82a2.22,2.22,0,0,1,.512-1.477,1.578,1.578,0,0,1,1.254-.609,1.614,1.614,0,0,1,.441.059,4.86,4.86,0,0,1,.676.285,4.392,4.392,0,0,0,.648.273,1.48,1.48,0,0,0,.375.047.659.659,0,0,0,.473-.191.728.728,0,0,0,.2-.551ZM23.094-4.3a5.013,5.013,0,0,1,.484-2.242A3.546,3.546,0,0,1,24.973-8.07a4.069,4.069,0,0,1,2.113-.539,3.849,3.849,0,0,1,2.793,1.047,4.2,4.2,0,0,1,1.207,2.844l.016.578A4.418,4.418,0,0,1,30.016-1.02,3.775,3.775,0,0,1,27.1.156a3.793,3.793,0,0,1-2.918-1.172A4.5,4.5,0,0,1,23.094-4.2Zm2.258.16A3.16,3.16,0,0,0,25.8-2.3a1.5,1.5,0,0,0,1.3.638,1.5,1.5,0,0,0,1.281-.63,3.457,3.457,0,0,0,.461-2.015,3.128,3.128,0,0,0-.461-1.831,1.5,1.5,0,0,0-1.3-.649,1.474,1.474,0,0,0-1.281.646A3.516,3.516,0,0,0,25.352-4.144Z" transform="translate(52 155)" fill="#111e61"/>
    <path id="Trazado_101114" data-name="Trazado 101114" d="M-28.375,0h-2.266V-8.453h2.266Zm-2.4-10.641a1.112,1.112,0,0,1,.34-.836,1.277,1.277,0,0,1,.926-.328,1.28,1.28,0,0,1,.922.328,1.105,1.105,0,0,1,.344.836,1.108,1.108,0,0,1-.348.844,1.283,1.283,0,0,1-.918.328,1.283,1.283,0,0,1-.918-.328A1.108,1.108,0,0,1-30.773-10.641Zm3.906,6.352a5.094,5.094,0,0,1,.887-3.148,2.877,2.877,0,0,1,2.426-1.172,2.589,2.589,0,0,1,2.039.922V-12h2.266V0h-2.039L-21.4-.9A2.657,2.657,0,0,1-23.57.156,2.869,2.869,0,0,1-25.965-1.02,5.258,5.258,0,0,1-26.867-4.289Zm2.258.161A3.355,3.355,0,0,0-24.2-2.3a1.348,1.348,0,0,0,1.2.636,1.51,1.51,0,0,0,1.477-.887V-5.9a1.489,1.489,0,0,0-1.461-.887Q-24.609-6.789-24.609-4.128ZM-13.367,0V-11.375h3.5a5.315,5.315,0,0,1,2.684.676A4.712,4.712,0,0,1-5.336-8.777a5.928,5.928,0,0,1,.664,2.832v.523A5.945,5.945,0,0,1-5.324-2.6,4.672,4.672,0,0,1-7.164-.687,5.355,5.355,0,0,1-9.844,0Zm2.344-9.477v7.594h1.133a2.545,2.545,0,0,0,2.1-.9,4.06,4.06,0,0,0,.742-2.57v-.6a4.124,4.124,0,0,0-.719-2.629,2.537,2.537,0,0,0-2.1-.895ZM1.945-.859A2.831,2.831,0,0,1-.367.156,2.67,2.67,0,0,1-2.441-.625a3.335,3.335,0,0,1-.73-2.289V-8.453H-.914v5.467q0,1.322,1.2,1.322a1.63,1.63,0,0,0,1.578-.8V-8.453H4.133V0H2.008ZM9.727.156A4.15,4.15,0,0,1,6.7-.984,4.054,4.054,0,0,1,5.531-4.023v-.219A5.106,5.106,0,0,1,6.023-6.52,3.612,3.612,0,0,1,7.418-8.066a3.914,3.914,0,0,1,2.059-.543,3.508,3.508,0,0,1,2.73,1.094,4.444,4.444,0,0,1,1,3.1v.922H7.82a2.1,2.1,0,0,0,.66,1.328,2,2,0,0,0,1.395.5,2.437,2.437,0,0,0,2.039-.945l1.109,1.242A3.389,3.389,0,0,1,11.648-.246,4.511,4.511,0,0,1,9.727.156ZM9.469-6.789a1.411,1.411,0,0,0-1.09.455,2.357,2.357,0,0,0-.535,1.3h3.141v-.181a1.681,1.681,0,0,0-.406-1.165A1.456,1.456,0,0,0,9.469-6.789Zm7.094-1.664.07.977a2.951,2.951,0,0,1,2.43-1.133,2.453,2.453,0,0,1,2,.789,3.682,3.682,0,0,1,.672,2.359V0H19.477V-5.419a1.47,1.47,0,0,0-.312-1.045,1.4,1.4,0,0,0-1.039-.325,1.553,1.553,0,0,0-1.43.814V0H14.438V-8.453ZM21.047-11.9a2.187,2.187,0,0,1-.516,1.48,1.6,1.6,0,0,1-1.258.6,1.908,1.908,0,0,1-.527-.066,3.539,3.539,0,0,1-.637-.285,3.435,3.435,0,0,0-.586-.27,1.432,1.432,0,0,0-.391-.051.627.627,0,0,0-.465.2.759.759,0,0,0-.191.555L15.164-9.82a2.22,2.22,0,0,1,.512-1.477,1.578,1.578,0,0,1,1.254-.609,1.614,1.614,0,0,1,.441.059,4.86,4.86,0,0,1,.676.285,4.392,4.392,0,0,0,.648.273,1.48,1.48,0,0,0,.375.047.659.659,0,0,0,.473-.191.728.728,0,0,0,.2-.551ZM23.094-4.3a5.013,5.013,0,0,1,.484-2.242A3.546,3.546,0,0,1,24.973-8.07a4.069,4.069,0,0,1,2.113-.539,3.849,3.849,0,0,1,2.793,1.047,4.2,4.2,0,0,1,1.207,2.844l.016.578A4.418,4.418,0,0,1,30.016-1.02,3.775,3.775,0,0,1,27.1.156a3.793,3.793,0,0,1-2.918-1.172A4.5,4.5,0,0,1,23.094-4.2Zm2.258.16A3.16,3.16,0,0,0,25.8-2.3a1.5,1.5,0,0,0,1.3.638,1.5,1.5,0,0,0,1.281-.63,3.457,3.457,0,0,0,.461-2.015,3.128,3.128,0,0,0-.461-1.831,1.5,1.5,0,0,0-1.3-.649,1.474,1.474,0,0,0-1.281.646A3.516,3.516,0,0,0,25.352-4.144Z" transform="translate(706 42)" fill="#111e61"/>
    <path id="Trazado_101115" data-name="Trazado 101115" d="M-22.617,0h-2.344l-4.562-7.484V0h-2.344V-11.375h2.344l4.57,7.5v-7.5h2.336Zm1.547-4.3a5.013,5.013,0,0,1,.484-2.242A3.546,3.546,0,0,1-19.191-8.07a4.069,4.069,0,0,1,2.113-.539,3.849,3.849,0,0,1,2.793,1.047,4.2,4.2,0,0,1,1.207,2.844l.016.578A4.418,4.418,0,0,1-14.148-1.02,3.775,3.775,0,0,1-17.062.156,3.793,3.793,0,0,1-19.98-1.016,4.5,4.5,0,0,1-21.07-4.2Zm2.258.16A3.16,3.16,0,0,0-18.359-2.3a1.5,1.5,0,0,0,1.3.638,1.5,1.5,0,0,0,1.281-.63,3.457,3.457,0,0,0,.461-2.015,3.128,3.128,0,0,0-.461-1.831,1.5,1.5,0,0,0-1.3-.649,1.474,1.474,0,0,0-1.281.646A3.516,3.516,0,0,0-18.812-4.144Zm9.258-4.309.07.945a2.971,2.971,0,0,1,2.43-1.1A2.255,2.255,0,0,1-4.812-7.32,2.9,2.9,0,0,1-2.273-8.609a2.521,2.521,0,0,1,2.047.8A3.681,3.681,0,0,1,.445-5.4V0H-1.82V-5.4A1.616,1.616,0,0,0-2.1-6.456a1.245,1.245,0,0,0-.992-.333A1.409,1.409,0,0,0-4.5-5.818L-4.492,0H-6.75V-5.4A1.6,1.6,0,0,0-7.039-6.46a1.257,1.257,0,0,0-.984-.329,1.463,1.463,0,0,0-1.391.8V0h-2.258V-8.453ZM9.8-4.148A5.119,5.119,0,0,1,8.93-.98,2.872,2.872,0,0,1,6.508.156,2.639,2.639,0,0,1,4.313-.9l-.1.9H2.18V-12H4.438v4.3a2.571,2.571,0,0,1,2.055-.914A2.9,2.9,0,0,1,8.918-7.473a5.126,5.126,0,0,1,.879,3.2ZM7.539-4.321A3.381,3.381,0,0,0,7.133-6.2a1.372,1.372,0,0,0-1.211-.592A1.489,1.489,0,0,0,4.438-5.9v3.346a1.509,1.509,0,0,0,1.5.893A1.4,1.4,0,0,0,7.375-2.745,5.6,5.6,0,0,0,7.539-4.321Zm8.4-2.015a6.134,6.134,0,0,0-.812-.062,1.654,1.654,0,0,0-1.68.867V0H11.188V-8.453H13.32l.063,1.008a2.092,2.092,0,0,1,1.883-1.164,2.366,2.366,0,0,1,.7.1ZM20.766.156A4.15,4.15,0,0,1,17.738-.984,4.054,4.054,0,0,1,16.57-4.023v-.219a5.106,5.106,0,0,1,.492-2.277,3.612,3.612,0,0,1,1.395-1.547,3.914,3.914,0,0,1,2.059-.543,3.508,3.508,0,0,1,2.73,1.094,4.444,4.444,0,0,1,1,3.1v.922H18.859a2.1,2.1,0,0,0,.66,1.328,2,2,0,0,0,1.395.5,2.437,2.437,0,0,0,2.039-.945l1.109,1.242A3.389,3.389,0,0,1,22.688-.246,4.511,4.511,0,0,1,20.766.156Zm-.258-6.945a1.411,1.411,0,0,0-1.09.455,2.357,2.357,0,0,0-.535,1.3h3.141v-.181a1.681,1.681,0,0,0-.406-1.165A1.456,1.456,0,0,0,20.508-6.789ZM30.1-2.336a.727.727,0,0,0-.41-.652,4.659,4.659,0,0,0-1.316-.426q-3.016-.633-3.016-2.562a2.323,2.323,0,0,1,.934-1.879,3.766,3.766,0,0,1,2.441-.754,4.053,4.053,0,0,1,2.574.758,2.388,2.388,0,0,1,.965,1.969H30.016a1.092,1.092,0,0,0-.312-.8A1.322,1.322,0,0,0,28.727-7a1.351,1.351,0,0,0-.883.258.814.814,0,0,0-.312.656.7.7,0,0,0,.355.605,3.657,3.657,0,0,0,1.2.4,9.8,9.8,0,0,1,1.422.379A2.336,2.336,0,0,1,32.3-2.43,2.2,2.2,0,0,1,31.3-.559a4.28,4.28,0,0,1-2.562.715,4.47,4.47,0,0,1-1.887-.379,3.166,3.166,0,0,1-1.293-1.039,2.414,2.414,0,0,1-.469-1.426h2.141a1.179,1.179,0,0,0,.445.922,1.766,1.766,0,0,0,1.109.32,1.635,1.635,0,0,0,.98-.246A.766.766,0,0,0,30.1-2.336Z" transform="translate(870 42)" fill="#111e61"/>
    <path id="Trazado_101118" data-name="Trazado 101118" d="M-45.586,0H-47.93V-11.375h2.344Zm1.672-4.289a5.094,5.094,0,0,1,.887-3.148A2.877,2.877,0,0,1-40.6-8.609a2.589,2.589,0,0,1,2.039.922V-12H-36.3V0h-2.039l-.109-.9A2.657,2.657,0,0,1-40.617.156,2.869,2.869,0,0,1-43.012-1.02,5.258,5.258,0,0,1-43.914-4.289Zm2.258.161A3.355,3.355,0,0,0-41.242-2.3a1.348,1.348,0,0,0,1.2.636,1.51,1.51,0,0,0,1.477-.887V-5.9a1.489,1.489,0,0,0-1.461-.887Q-41.656-6.789-41.656-4.128Zm11,4.285A4.15,4.15,0,0,1-33.684-.984a4.054,4.054,0,0,1-1.168-3.039v-.219a5.106,5.106,0,0,1,.492-2.277,3.612,3.612,0,0,1,1.395-1.547,3.914,3.914,0,0,1,2.059-.543,3.508,3.508,0,0,1,2.73,1.094,4.444,4.444,0,0,1,1,3.1v.922h-5.383a2.1,2.1,0,0,0,.66,1.328,2,2,0,0,0,1.395.5,2.437,2.437,0,0,0,2.039-.945l1.109,1.242A3.389,3.389,0,0,1-28.734-.246,4.511,4.511,0,0,1-30.656.156Zm-.258-6.945A1.411,1.411,0,0,0-32-6.334a2.357,2.357,0,0,0-.535,1.3H-29.4v-.181A1.681,1.681,0,0,0-29.8-6.377,1.456,1.456,0,0,0-30.914-6.789Zm7.094-1.664.07.977a2.951,2.951,0,0,1,2.43-1.133,2.453,2.453,0,0,1,2,.789,3.682,3.682,0,0,1,.672,2.359V0h-2.258V-5.419a1.47,1.47,0,0,0-.312-1.045,1.4,1.4,0,0,0-1.039-.325,1.553,1.553,0,0,0-1.43.814V0h-2.258V-8.453Zm9.586-2.078v2.078h1.445V-6.8h-1.445v4.219a1.007,1.007,0,0,0,.18.672.9.9,0,0,0,.688.2,3.6,3.6,0,0,0,.664-.055V-.047a4.648,4.648,0,0,1-1.367.2,2.156,2.156,0,0,1-2.422-2.4V-6.8h-1.234V-8.453h1.234v-2.078ZM-9.148,0h-2.266V-8.453h2.266Zm-2.4-10.641a1.112,1.112,0,0,1,.34-.836,1.277,1.277,0,0,1,.926-.328,1.28,1.28,0,0,1,.922.328,1.105,1.105,0,0,1,.344.836,1.108,1.108,0,0,1-.348.844,1.283,1.283,0,0,1-.918.328A1.283,1.283,0,0,1-11.2-9.8,1.108,1.108,0,0,1-11.547-10.641ZM-6.742,0V-6.8H-8V-8.453h1.258v-.391a3.17,3.17,0,0,1,.98-2.457,3.945,3.945,0,0,1,2.723-.863A9.031,9.031,0,0,1-.477-11.7L-.8-9.836a10,10,0,0,0-1.187-.293A5.835,5.835,0,0,0-2.9-10.2q-1.578,0-1.578,1.4v.344h1.664V-6.8H-4.477V0ZM.578,0H-1.687V-8.453H.578ZM5.961-1.664a1.481,1.481,0,0,0,1.016-.344,1.2,1.2,0,0,0,.406-.914H9.5a2.9,2.9,0,0,1-.469,1.574A3.093,3.093,0,0,1,7.77-.238,3.949,3.949,0,0,1,6,.156,3.67,3.67,0,0,1,3.141-1,4.56,4.56,0,0,1,2.094-4.18v-.148A4.508,4.508,0,0,1,3.133-7.445,3.627,3.627,0,0,1,5.984-8.609a3.555,3.555,0,0,1,2.543.9A3.2,3.2,0,0,1,9.5-5.3H7.383a1.551,1.551,0,0,0-.406-1.072,1.354,1.354,0,0,0-1.031-.412,1.36,1.36,0,0,0-1.191.575,3.333,3.333,0,0,0-.4,1.866v.235a3.375,3.375,0,0,0,.4,1.878A1.377,1.377,0,0,0,5.961-1.664ZM15.688,0a2.507,2.507,0,0,1-.227-.758,2.732,2.732,0,0,1-2.133.914A3,3,0,0,1,11.27-.562a2.312,2.312,0,0,1-.816-1.812,2.389,2.389,0,0,1,1-2.062,4.915,4.915,0,0,1,2.879-.727h1.039v-.484a1.393,1.393,0,0,0-.3-.937,1.183,1.183,0,0,0-.949-.352,1.345,1.345,0,0,0-.895.273.929.929,0,0,0-.324.75H10.641a2.268,2.268,0,0,1,.453-1.359,3,3,0,0,1,1.281-.98,4.669,4.669,0,0,1,1.859-.355,3.689,3.689,0,0,1,2.48.785,2.747,2.747,0,0,1,.918,2.207v3.664a4.041,4.041,0,0,0,.336,1.82V0ZM13.82-1.57a1.945,1.945,0,0,0,.922-.223,1.462,1.462,0,0,0,.625-.6V-3.844h-.844q-1.7,0-1.8,1.172l-.008.133a.9.9,0,0,0,.3.7A1.153,1.153,0,0,0,13.82-1.57Zm9.063-.094A1.481,1.481,0,0,0,23.9-2.008a1.2,1.2,0,0,0,.406-.914h2.117a2.9,2.9,0,0,1-.469,1.574A3.093,3.093,0,0,1,24.691-.238a3.949,3.949,0,0,1-1.77.395A3.67,3.67,0,0,1,20.063-1,4.56,4.56,0,0,1,19.016-4.18v-.148a4.508,4.508,0,0,1,1.039-3.117,3.627,3.627,0,0,1,2.852-1.164,3.555,3.555,0,0,1,2.543.9,3.2,3.2,0,0,1,.973,2.4H24.3A1.551,1.551,0,0,0,23.9-6.377a1.354,1.354,0,0,0-1.031-.412,1.36,1.36,0,0,0-1.191.575,3.333,3.333,0,0,0-.4,1.866v.235a3.375,3.375,0,0,0,.4,1.878A1.377,1.377,0,0,0,22.883-1.664ZM30.094,0H27.828V-8.453h2.266ZM27.7-10.641a1.112,1.112,0,0,1,.34-.836,1.277,1.277,0,0,1,.926-.328,1.28,1.28,0,0,1,.922.328,1.105,1.105,0,0,1,.344.836,1.108,1.108,0,0,1-.348.844,1.283,1.283,0,0,1-.918.328,1.283,1.283,0,0,1-.918-.328A1.108,1.108,0,0,1,27.7-10.641ZM31.6-4.3a5.013,5.013,0,0,1,.484-2.242A3.546,3.546,0,0,1,33.48-8.07a4.069,4.069,0,0,1,2.113-.539,3.849,3.849,0,0,1,2.793,1.047,4.2,4.2,0,0,1,1.207,2.844l.016.578A4.418,4.418,0,0,1,38.523-1.02,3.775,3.775,0,0,1,35.609.156a3.793,3.793,0,0,1-2.918-1.172A4.5,4.5,0,0,1,31.6-4.2Zm2.258.16A3.16,3.16,0,0,0,34.313-2.3a1.5,1.5,0,0,0,1.3.638,1.5,1.5,0,0,0,1.281-.63,3.457,3.457,0,0,0,.461-2.015,3.128,3.128,0,0,0-.461-1.831,1.5,1.5,0,0,0-1.3-.649,1.474,1.474,0,0,0-1.281.646A3.516,3.516,0,0,0,33.859-4.144ZM36.039-12H38.5L36.336-9.578H34.5Zm7.039,3.547.07.977a2.951,2.951,0,0,1,2.43-1.133,2.453,2.453,0,0,1,2,.789,3.682,3.682,0,0,1,.672,2.359V0H45.992V-5.419a1.47,1.47,0,0,0-.312-1.045,1.4,1.4,0,0,0-1.039-.325,1.553,1.553,0,0,0-1.43.814V0H40.953V-8.453Z" transform="translate(689 265)" fill="#111e61"/>
    <path id="Trazado_101117" data-name="Trazado 101117" d="M-26.094-2.344H-30.2L-30.984,0h-2.492l4.234-11.375h2.172L-22.812,0H-25.3Zm-3.477-1.9h2.844L-28.156-8.5Zm14.906.094a5.07,5.07,0,0,1-.887,3.129A2.843,2.843,0,0,1-17.945.156a2.633,2.633,0,0,1-2.07-.891V3.25h-2.258v-11.7h2.094l.078.828a2.654,2.654,0,0,1,2.141-.984,2.862,2.862,0,0,1,2.43,1.156,5.207,5.207,0,0,1,.867,3.188Zm-2.258-.172a3.345,3.345,0,0,0-.418-1.826,1.36,1.36,0,0,0-1.215-.643,1.478,1.478,0,0,0-1.461.815V-2.5a1.5,1.5,0,0,0,1.477.839Q-16.922-1.664-16.922-4.321ZM-9.375.156A4.15,4.15,0,0,1-12.4-.984,4.054,4.054,0,0,1-13.57-4.023v-.219a5.106,5.106,0,0,1,.492-2.277,3.612,3.612,0,0,1,1.395-1.547,3.914,3.914,0,0,1,2.059-.543,3.508,3.508,0,0,1,2.73,1.094,4.444,4.444,0,0,1,1,3.1v.922h-5.383a2.1,2.1,0,0,0,.66,1.328,2,2,0,0,0,1.395.5,2.437,2.437,0,0,0,2.039-.945l1.109,1.242A3.389,3.389,0,0,1-7.453-.246,4.511,4.511,0,0,1-9.375.156Zm-.258-6.945a1.411,1.411,0,0,0-1.09.455,2.357,2.357,0,0,0-.535,1.3h3.141v-.181a1.681,1.681,0,0,0-.406-1.165A1.456,1.456,0,0,0-9.633-6.789ZM-2.234,0H-4.5V-12h2.266ZM2.008,0H-.258V-12H2.008ZM6.25,0H3.984V-8.453H6.25Zm-2.4-10.641a1.112,1.112,0,0,1,.34-.836,1.277,1.277,0,0,1,.926-.328,1.28,1.28,0,0,1,.922.328,1.105,1.105,0,0,1,.344.836,1.108,1.108,0,0,1-.348.844,1.283,1.283,0,0,1-.918.328A1.283,1.283,0,0,1,4.2-9.8,1.108,1.108,0,0,1,3.852-10.641ZM7.758-4.289a5.094,5.094,0,0,1,.887-3.148A2.877,2.877,0,0,1,11.07-8.609a2.589,2.589,0,0,1,2.039.922V-12h2.266V0H13.336l-.109-.9A2.657,2.657,0,0,1,11.055.156,2.869,2.869,0,0,1,8.66-1.02,5.258,5.258,0,0,1,7.758-4.289Zm2.258.161A3.355,3.355,0,0,0,10.43-2.3a1.348,1.348,0,0,0,1.2.636,1.51,1.51,0,0,0,1.477-.887V-5.9a1.489,1.489,0,0,0-1.461-.887Q10.016-6.789,10.016-4.128ZM16.773-4.3a5.013,5.013,0,0,1,.484-2.242A3.546,3.546,0,0,1,18.652-8.07a4.069,4.069,0,0,1,2.113-.539,3.849,3.849,0,0,1,2.793,1.047,4.2,4.2,0,0,1,1.207,2.844l.016.578A4.418,4.418,0,0,1,23.7-1.02,3.775,3.775,0,0,1,20.781.156a3.793,3.793,0,0,1-2.918-1.172A4.5,4.5,0,0,1,16.773-4.2Zm2.258.16A3.16,3.16,0,0,0,19.484-2.3a1.5,1.5,0,0,0,1.3.638,1.5,1.5,0,0,0,1.281-.63,3.457,3.457,0,0,0,.461-2.015,3.128,3.128,0,0,0-.461-1.831,1.5,1.5,0,0,0-1.3-.649,1.474,1.474,0,0,0-1.281.646A3.516,3.516,0,0,0,19.031-4.144ZM30.75-2.336a.727.727,0,0,0-.41-.652,4.659,4.659,0,0,0-1.316-.426q-3.016-.633-3.016-2.562a2.323,2.323,0,0,1,.934-1.879,3.766,3.766,0,0,1,2.441-.754,4.053,4.053,0,0,1,2.574.758,2.388,2.388,0,0,1,.965,1.969H30.664a1.092,1.092,0,0,0-.312-.8A1.322,1.322,0,0,0,29.375-7a1.351,1.351,0,0,0-.883.258.814.814,0,0,0-.312.656.7.7,0,0,0,.355.605,3.657,3.657,0,0,0,1.2.4,9.8,9.8,0,0,1,1.422.379A2.336,2.336,0,0,1,32.945-2.43a2.2,2.2,0,0,1-.992,1.871,4.28,4.28,0,0,1-2.562.715A4.47,4.47,0,0,1,27.5-.223a3.166,3.166,0,0,1-1.293-1.039,2.414,2.414,0,0,1-.469-1.426h2.141a1.179,1.179,0,0,0,.445.922,1.766,1.766,0,0,0,1.109.32,1.635,1.635,0,0,0,.98-.246A.766.766,0,0,0,30.75-2.336Z" transform="translate(870 265)" fill="#111e61"/>
    <path id="Trazado_101124" data-name="Trazado 101124" d="M-18.41,0h-2.344l-4.562-7.484V0H-27.66V-11.375h2.344l4.57,7.5v-7.5h2.336Zm6.961-.859A2.831,2.831,0,0,1-13.762.156a2.67,2.67,0,0,1-2.074-.781,3.335,3.335,0,0,1-.73-2.289V-8.453h2.258v5.467q0,1.322,1.2,1.322a1.63,1.63,0,0,0,1.578-.8V-8.453h2.266V0h-2.125ZM-12.457-12H-10L-12.16-9.578H-14Zm7.016,3.547.07.945a2.971,2.971,0,0,1,2.43-1.1A2.255,2.255,0,0,1-.7-7.32,2.9,2.9,0,0,1,1.84-8.609a2.521,2.521,0,0,1,2.047.8A3.681,3.681,0,0,1,4.559-5.4V0H2.293V-5.4a1.616,1.616,0,0,0-.281-1.053,1.245,1.245,0,0,0-.992-.333,1.409,1.409,0,0,0-1.406.971L-.379,0H-2.637V-5.4A1.6,1.6,0,0,0-2.926-6.46a1.257,1.257,0,0,0-.984-.329,1.463,1.463,0,0,0-1.391.8V0H-7.559V-8.453ZM10.184.156A4.15,4.15,0,0,1,7.156-.984,4.054,4.054,0,0,1,5.988-4.023v-.219A5.106,5.106,0,0,1,6.48-6.52,3.612,3.612,0,0,1,7.875-8.066a3.914,3.914,0,0,1,2.059-.543,3.508,3.508,0,0,1,2.73,1.094,4.444,4.444,0,0,1,1,3.1v.922H8.277a2.1,2.1,0,0,0,.66,1.328,2,2,0,0,0,1.395.5,2.437,2.437,0,0,0,2.039-.945L13.48-1.367A3.389,3.389,0,0,1,12.105-.246,4.511,4.511,0,0,1,10.184.156ZM9.926-6.789a1.411,1.411,0,0,0-1.09.455,2.357,2.357,0,0,0-.535,1.3h3.141v-.181a1.681,1.681,0,0,0-.406-1.165A1.456,1.456,0,0,0,9.926-6.789Zm9.766.453a6.134,6.134,0,0,0-.812-.062,1.654,1.654,0,0,0-1.68.867V0H14.941V-8.453h2.133l.063,1.008A2.092,2.092,0,0,1,19.02-8.609a2.366,2.366,0,0,1,.7.1ZM20.145-4.3a5.013,5.013,0,0,1,.484-2.242A3.546,3.546,0,0,1,22.023-8.07a4.069,4.069,0,0,1,2.113-.539A3.849,3.849,0,0,1,26.93-7.562a4.2,4.2,0,0,1,1.207,2.844l.016.578A4.418,4.418,0,0,1,27.066-1.02,3.775,3.775,0,0,1,24.152.156a3.793,3.793,0,0,1-2.918-1.172A4.5,4.5,0,0,1,20.145-4.2Zm2.258.16A3.16,3.16,0,0,0,22.855-2.3a1.5,1.5,0,0,0,1.3.638,1.5,1.5,0,0,0,1.281-.63,3.457,3.457,0,0,0,.461-2.015,3.128,3.128,0,0,0-.461-1.831,1.5,1.5,0,0,0-1.3-.649,1.474,1.474,0,0,0-1.281.646A3.516,3.516,0,0,0,22.4-4.144ZM-32.664,13.711a5.094,5.094,0,0,1,.887-3.148,2.877,2.877,0,0,1,2.426-1.172,2.589,2.589,0,0,1,2.039.922V6h2.266V18h-2.039l-.109-.9a2.657,2.657,0,0,1-2.172,1.055,2.869,2.869,0,0,1-2.395-1.176A5.258,5.258,0,0,1-32.664,13.711Zm2.258.161a3.355,3.355,0,0,0,.414,1.829,1.348,1.348,0,0,0,1.2.636,1.51,1.51,0,0,0,1.477-.887V12.1a1.489,1.489,0,0,0-1.461-.887Q-30.406,11.211-30.406,13.872Zm11,4.285a4.15,4.15,0,0,1-3.027-1.141A4.054,4.054,0,0,1-23.6,13.977v-.219a5.106,5.106,0,0,1,.492-2.277,3.612,3.612,0,0,1,1.395-1.547,3.914,3.914,0,0,1,2.059-.543,3.508,3.508,0,0,1,2.73,1.094,4.444,4.444,0,0,1,1,3.1v.922h-5.383a2.1,2.1,0,0,0,.66,1.328,2,2,0,0,0,1.395.5,2.437,2.437,0,0,0,2.039-.945l1.109,1.242a3.389,3.389,0,0,1-1.375,1.121A4.511,4.511,0,0,1-19.406,18.156Zm-.258-6.945a1.411,1.411,0,0,0-1.09.455,2.357,2.357,0,0,0-.535,1.3h3.141v-.181a1.681,1.681,0,0,0-.406-1.165A1.456,1.456,0,0,0-19.664,11.211Zm11.492,2.781V18h-2.344V6.625h4.438a5.134,5.134,0,0,1,2.254.469,3.454,3.454,0,0,1,1.5,1.332A3.714,3.714,0,0,1-1.8,10.391a3.266,3.266,0,0,1-1.145,2.637,4.767,4.767,0,0,1-3.168.965Zm0-1.9h2.094a2.059,2.059,0,0,0,1.418-.437,1.591,1.591,0,0,0,.488-1.25,1.876,1.876,0,0,0-.492-1.352,1.839,1.839,0,0,0-1.359-.531H-8.172ZM2.039,18H-.227V6H2.039ZM8.8,18a2.507,2.507,0,0,1-.227-.758,2.732,2.732,0,0,1-2.133.914,3,3,0,0,1-2.059-.719,2.312,2.312,0,0,1-.816-1.812,2.389,2.389,0,0,1,1-2.062,4.915,4.915,0,0,1,2.879-.727H8.477v-.484a1.393,1.393,0,0,0-.3-.937,1.183,1.183,0,0,0-.949-.352,1.345,1.345,0,0,0-.895.273.929.929,0,0,0-.324.75H3.75A2.268,2.268,0,0,1,4.2,10.727a3,3,0,0,1,1.281-.98,4.669,4.669,0,0,1,1.859-.355,3.689,3.689,0,0,1,2.48.785,2.747,2.747,0,0,1,.918,2.207v3.664a4.041,4.041,0,0,0,.336,1.82V18ZM6.93,16.43a1.945,1.945,0,0,0,.922-.223,1.462,1.462,0,0,0,.625-.6V14.156H7.633q-1.7,0-1.8,1.172l-.008.133a.9.9,0,0,0,.3.7A1.153,1.153,0,0,0,6.93,16.43Zm9.063-.094a1.481,1.481,0,0,0,1.016-.344,1.2,1.2,0,0,0,.406-.914h2.117a2.9,2.9,0,0,1-.469,1.574A3.093,3.093,0,0,1,17.8,17.762a3.949,3.949,0,0,1-1.77.395A3.67,3.67,0,0,1,13.172,17a4.56,4.56,0,0,1-1.047-3.184v-.148a4.508,4.508,0,0,1,1.039-3.117,3.627,3.627,0,0,1,2.852-1.164,3.555,3.555,0,0,1,2.543.9,3.2,3.2,0,0,1,.973,2.4H17.414a1.551,1.551,0,0,0-.406-1.072,1.51,1.51,0,0,0-2.223.163,3.333,3.333,0,0,0-.4,1.866v.235a3.375,3.375,0,0,0,.4,1.878A1.377,1.377,0,0,0,15.992,16.336ZM25.719,18a2.507,2.507,0,0,1-.227-.758,2.732,2.732,0,0,1-2.133.914,3,3,0,0,1-2.059-.719,2.312,2.312,0,0,1-.816-1.812,2.389,2.389,0,0,1,1-2.062,4.915,4.915,0,0,1,2.879-.727H25.4v-.484a1.393,1.393,0,0,0-.3-.937,1.183,1.183,0,0,0-.949-.352,1.345,1.345,0,0,0-.895.273.929.929,0,0,0-.324.75H20.672a2.268,2.268,0,0,1,.453-1.359,3,3,0,0,1,1.281-.98,4.669,4.669,0,0,1,1.859-.355,3.689,3.689,0,0,1,2.48.785,2.747,2.747,0,0,1,.918,2.207v3.664A4.041,4.041,0,0,0,28,17.867V18Zm-1.867-1.57a1.945,1.945,0,0,0,.922-.223,1.462,1.462,0,0,0,.625-.6V14.156h-.844q-1.7,0-1.8,1.172l-.008.133a.9.9,0,0,0,.3.7A1.153,1.153,0,0,0,23.852,16.43Zm5.664.461a1.137,1.137,0,0,1,.363-.875,1.412,1.412,0,0,1,1.828,0,1.137,1.137,0,0,1,.363.875,1.121,1.121,0,0,1-.359.863,1.435,1.435,0,0,1-1.836,0A1.121,1.121,0,0,1,29.516,16.891Z" transform="translate(127 256)" fill="#111e61"/>
    <path id="Trazado_101125" data-name="Trazado 101125" d="M-18.41,0h-2.344l-4.562-7.484V0H-27.66V-11.375h2.344l4.57,7.5v-7.5h2.336Zm6.961-.859A2.831,2.831,0,0,1-13.762.156a2.67,2.67,0,0,1-2.074-.781,3.335,3.335,0,0,1-.73-2.289V-8.453h2.258v5.467q0,1.322,1.2,1.322a1.63,1.63,0,0,0,1.578-.8V-8.453h2.266V0h-2.125ZM-12.457-12H-10L-12.16-9.578H-14Zm7.016,3.547.07.945a2.971,2.971,0,0,1,2.43-1.1A2.255,2.255,0,0,1-.7-7.32,2.9,2.9,0,0,1,1.84-8.609a2.521,2.521,0,0,1,2.047.8A3.681,3.681,0,0,1,4.559-5.4V0H2.293V-5.4a1.616,1.616,0,0,0-.281-1.053,1.245,1.245,0,0,0-.992-.333,1.409,1.409,0,0,0-1.406.971L-.379,0H-2.637V-5.4A1.6,1.6,0,0,0-2.926-6.46a1.257,1.257,0,0,0-.984-.329,1.463,1.463,0,0,0-1.391.8V0H-7.559V-8.453ZM10.184.156A4.15,4.15,0,0,1,7.156-.984,4.054,4.054,0,0,1,5.988-4.023v-.219A5.106,5.106,0,0,1,6.48-6.52,3.612,3.612,0,0,1,7.875-8.066a3.914,3.914,0,0,1,2.059-.543,3.508,3.508,0,0,1,2.73,1.094,4.444,4.444,0,0,1,1,3.1v.922H8.277a2.1,2.1,0,0,0,.66,1.328,2,2,0,0,0,1.395.5,2.437,2.437,0,0,0,2.039-.945L13.48-1.367A3.389,3.389,0,0,1,12.105-.246,4.511,4.511,0,0,1,10.184.156ZM9.926-6.789a1.411,1.411,0,0,0-1.09.455,2.357,2.357,0,0,0-.535,1.3h3.141v-.181a1.681,1.681,0,0,0-.406-1.165A1.456,1.456,0,0,0,9.926-6.789Zm9.766.453a6.134,6.134,0,0,0-.812-.062,1.654,1.654,0,0,0-1.68.867V0H14.941V-8.453h2.133l.063,1.008A2.092,2.092,0,0,1,19.02-8.609a2.366,2.366,0,0,1,.7.1ZM20.145-4.3a5.013,5.013,0,0,1,.484-2.242A3.546,3.546,0,0,1,22.023-8.07a4.069,4.069,0,0,1,2.113-.539A3.849,3.849,0,0,1,26.93-7.562a4.2,4.2,0,0,1,1.207,2.844l.016.578A4.418,4.418,0,0,1,27.066-1.02,3.775,3.775,0,0,1,24.152.156a3.793,3.793,0,0,1-2.918-1.172A4.5,4.5,0,0,1,20.145-4.2Zm2.258.16A3.16,3.16,0,0,0,22.855-2.3a1.5,1.5,0,0,0,1.3.638,1.5,1.5,0,0,0,1.281-.63,3.457,3.457,0,0,0,.461-2.015,3.128,3.128,0,0,0-.461-1.831,1.5,1.5,0,0,0-1.3-.649,1.474,1.474,0,0,0-1.281.646A3.516,3.516,0,0,0,22.4-4.144ZM-36.98,13.711a5.094,5.094,0,0,1,.887-3.148,2.877,2.877,0,0,1,2.426-1.172,2.589,2.589,0,0,1,2.039.922V6h2.266V18H-31.4l-.109-.9a2.657,2.657,0,0,1-2.172,1.055,2.869,2.869,0,0,1-2.395-1.176A5.258,5.258,0,0,1-36.98,13.711Zm2.258.161a3.355,3.355,0,0,0,.414,1.829,1.348,1.348,0,0,0,1.2.636,1.51,1.51,0,0,0,1.477-.887V12.1a1.489,1.489,0,0,0-1.461-.887Q-34.723,11.211-34.723,13.872Zm11,4.285a4.15,4.15,0,0,1-3.027-1.141,4.054,4.054,0,0,1-1.168-3.039v-.219a5.106,5.106,0,0,1,.492-2.277,3.612,3.612,0,0,1,1.395-1.547,3.914,3.914,0,0,1,2.059-.543,3.508,3.508,0,0,1,2.73,1.094,4.444,4.444,0,0,1,1,3.1v.922h-5.383a2.1,2.1,0,0,0,.66,1.328,2,2,0,0,0,1.395.5,2.437,2.437,0,0,0,2.039-.945l1.109,1.242A3.389,3.389,0,0,1-21.8,17.754,4.511,4.511,0,0,1-23.723,18.156Zm-.258-6.945a1.411,1.411,0,0,0-1.09.455,2.357,2.357,0,0,0-.535,1.3h3.141v-.181a1.681,1.681,0,0,0-.406-1.165A1.456,1.456,0,0,0-23.98,11.211Zm18.078,3A4.025,4.025,0,0,1-7.258,17.1a4.76,4.76,0,0,1-3.223,1.055,4.28,4.28,0,0,1-3.441-1.473,6.038,6.038,0,0,1-1.254-4.043v-.7A6.819,6.819,0,0,1-14.6,9.055a4.332,4.332,0,0,1,1.652-1.918,4.629,4.629,0,0,1,2.5-.668A4.637,4.637,0,0,1-7.277,7.523a4.326,4.326,0,0,1,1.391,2.961H-8.23a2.376,2.376,0,0,0-.613-1.6,2.271,2.271,0,0,0-1.605-.5,1.991,1.991,0,0,0-1.754.84,4.707,4.707,0,0,0-.6,2.605V12.7a5.038,5.038,0,0,0,.559,2.7,1.954,1.954,0,0,0,1.762.852,2.314,2.314,0,0,0,1.621-.5,2.241,2.241,0,0,0,.613-1.535Zm3.594-3.742A2.818,2.818,0,0,1-.051,9.391q2.75,0,2.789,3.2V18H.48V12.636a1.577,1.577,0,0,0-.312-1.077,1.338,1.338,0,0,0-1.039-.348,1.536,1.536,0,0,0-1.437.767V18H-4.566V6h2.258ZM9.34,18a2.507,2.507,0,0,1-.227-.758,2.732,2.732,0,0,1-2.133.914,3,3,0,0,1-2.059-.719,2.312,2.312,0,0,1-.816-1.812,2.389,2.389,0,0,1,1-2.062,4.915,4.915,0,0,1,2.879-.727H9.02v-.484a1.393,1.393,0,0,0-.3-.937,1.183,1.183,0,0,0-.949-.352,1.345,1.345,0,0,0-.895.273.929.929,0,0,0-.324.75H4.293a2.268,2.268,0,0,1,.453-1.359,3,3,0,0,1,1.281-.98,4.669,4.669,0,0,1,1.859-.355,3.689,3.689,0,0,1,2.48.785,2.747,2.747,0,0,1,.918,2.207v3.664a4.041,4.041,0,0,0,.336,1.82V18ZM7.473,16.43a1.945,1.945,0,0,0,.922-.223,1.462,1.462,0,0,0,.625-.6V14.156H8.176q-1.7,0-1.8,1.172l-.008.133a.9.9,0,0,0,.3.7A1.153,1.153,0,0,0,7.473,16.43ZM17.6,15.664a.727.727,0,0,0-.41-.652,4.659,4.659,0,0,0-1.316-.426q-3.016-.633-3.016-2.562a2.323,2.323,0,0,1,.934-1.879,3.766,3.766,0,0,1,2.441-.754,4.053,4.053,0,0,1,2.574.758,2.388,2.388,0,0,1,.965,1.969H17.512a1.092,1.092,0,0,0-.312-.8A1.322,1.322,0,0,0,16.223,11a1.351,1.351,0,0,0-.883.258.814.814,0,0,0-.312.656.7.7,0,0,0,.355.605,3.657,3.657,0,0,0,1.2.4A9.8,9.8,0,0,1,18,13.3a2.336,2.336,0,0,1,1.789,2.273,2.2,2.2,0,0,1-.992,1.871,4.28,4.28,0,0,1-2.562.715,4.47,4.47,0,0,1-1.887-.379,3.166,3.166,0,0,1-1.293-1.039,2.414,2.414,0,0,1-.469-1.426H14.73a1.179,1.179,0,0,0,.445.922,1.766,1.766,0,0,0,1.109.32,1.635,1.635,0,0,0,.98-.246A.766.766,0,0,0,17.6,15.664ZM23.629,18H21.363V9.547h2.266ZM21.23,7.359a1.112,1.112,0,0,1,.34-.836,1.465,1.465,0,0,1,1.848,0,1.193,1.193,0,0,1,0,1.68,1.448,1.448,0,0,1-1.836,0A1.108,1.108,0,0,1,21.23,7.359Zm8.836,8.3a.727.727,0,0,0-.41-.652,4.659,4.659,0,0,0-1.316-.426q-3.016-.633-3.016-2.562a2.323,2.323,0,0,1,.934-1.879A3.766,3.766,0,0,1,28.7,9.391a4.053,4.053,0,0,1,2.574.758,2.388,2.388,0,0,1,.965,1.969H29.98a1.092,1.092,0,0,0-.312-.8A1.322,1.322,0,0,0,28.691,11a1.351,1.351,0,0,0-.883.258.814.814,0,0,0-.312.656.7.7,0,0,0,.355.605,3.657,3.657,0,0,0,1.2.4,9.8,9.8,0,0,1,1.422.379,2.336,2.336,0,0,1,1.789,2.273,2.2,2.2,0,0,1-.992,1.871,4.28,4.28,0,0,1-2.562.715,4.47,4.47,0,0,1-1.887-.379,3.166,3.166,0,0,1-1.293-1.039,2.414,2.414,0,0,1-.469-1.426H27.2a1.179,1.179,0,0,0,.445.922,1.766,1.766,0,0,0,1.109.32,1.635,1.635,0,0,0,.98-.246A.766.766,0,0,0,30.066,15.664Zm3.766,1.227a1.137,1.137,0,0,1,.363-.875,1.412,1.412,0,0,1,1.828,0,1.137,1.137,0,0,1,.363.875,1.121,1.121,0,0,1-.359.863,1.435,1.435,0,0,1-1.836,0A1.121,1.121,0,0,1,33.832,16.891Z" transform="translate(292 256)" fill="#111e61"/>
    <g id="Grupo_20847" data-name="Grupo 20847" transform="translate(127 104)">
      <circle id="Elipse_1215" data-name="Elipse 1215" cx="45" cy="45" r="45" fill="#4dd0e1"/>
      <g id="coche" transform="translate(14.024 22.735)">
        <g id="Grupo_20838" data-name="Grupo 20838" transform="translate(0.915 0.949)">
          <g id="Grupo_20827" data-name="Grupo 20827" transform="translate(53.911 12.869)">
            <path id="Trazado_2619" data-name="Trazado 2619" d="M454,186.2h-4.224a1.77,1.77,0,0,0-.761.173q.044.7.044,1.414v3.5a8.856,8.856,0,0,1,1.488,1.645H454a1.8,1.8,0,0,0,1.79-1.79v-3.15A1.8,1.8,0,0,0,454,186.2Z" transform="translate(-449.011 -186.195)" fill="#dfebfa"/>
          </g>
          <g id="Grupo_20828" data-name="Grupo 20828" transform="translate(53.912 12.869)">
            <path id="Trazado_2620" data-name="Trazado 2620" d="M451.924,191.134v-3.15a1.8,1.8,0,0,1,1.79-1.79h-3.942a1.77,1.77,0,0,0-.761.173q.044.7.044,1.414v3.5a8.866,8.866,0,0,1,1.488,1.645h3.171A1.8,1.8,0,0,1,451.924,191.134Z" transform="translate(-449.012 -186.194)" fill="#b1dbfc"/>
            <path id="Trazado_2621" data-name="Trazado 2621" d="M449.373,227.839h0Z" transform="translate(-449.329 -222.754)" fill="#b1dbfc"/>
          </g>
          <g id="Grupo_20829" data-name="Grupo 20829" transform="translate(0 12.869)">
            <path id="Trazado_2622" data-name="Trazado 2622" d="M13.261,191.279v-3.5c0-.534.021-1.063.057-1.587H9.284a1.8,1.8,0,0,0-1.79,1.79v3.15a1.8,1.8,0,0,0,1.79,1.79h2.489a8.868,8.868,0,0,1,1.488-1.645Z" transform="translate(-7.494 -186.194)" fill="#dfebfa"/>
          </g>
          <path id="Trazado_2623" data-name="Trazado 2623" d="M10.406,191.134v-3.15a1.8,1.8,0,0,1,1.79-1.79H9.284a1.8,1.8,0,0,0-1.79,1.79v3.15a1.8,1.8,0,0,0,1.79,1.79h2.489l.032-.045A1.8,1.8,0,0,1,10.406,191.134Z" transform="translate(-7.494 -173.325)" fill="#b1dbfc"/>
          <g id="Grupo_20830" data-name="Grupo 20830" transform="translate(5.523)">
            <path id="Trazado_2624" data-name="Trazado 2624" d="M58.418,96.776H95.711a8.662,8.662,0,0,1,5.692,2.139V95.386a19.623,19.623,0,0,0-2.536-10.01c-1.781-2.949-4.221-4.573-6.872-4.573H62.134c-2.651,0-5.091,1.624-6.872,4.573a19.623,19.623,0,0,0-2.536,10.01v3.529A8.664,8.664,0,0,1,58.418,96.776Z" transform="translate(-52.726 -80.803)" fill="#ff4756"/>
          </g>
          <g id="Grupo_20831" data-name="Grupo 20831" transform="translate(5.523)">
            <path id="Trazado_2625" data-name="Trazado 2625" d="M56.653,95.386a19.623,19.623,0,0,1,2.536-10.01c1.781-2.949,4.221-4.573,6.872-4.573H62.135c-2.651,0-5.091,1.624-6.872,4.573a19.623,19.623,0,0,0-2.536,10.01v3.529a8.718,8.718,0,0,1,3.926-1.954Z" transform="translate(-52.727 -80.803)" fill="#fc2d39"/>
          </g>
          <g id="Grupo_20832" data-name="Grupo 20832" transform="translate(8.605 3.109)">
            <path id="Trazado_2626" data-name="Trazado 2626" d="M80.574,119.125h37.293a8.611,8.611,0,0,1,2.61.4v-1.794a16.474,16.474,0,0,0-2.086-8.393c-1.2-1.987-2.706-3.081-4.24-3.081H84.291c-1.535,0-3.041,1.094-4.24,3.081a16.474,16.474,0,0,0-2.086,8.393v1.794a8.61,8.61,0,0,1,2.61-.4Z" transform="translate(-77.964 -106.261)" fill="#60b8fe"/>
          </g>
          <g id="Grupo_20833" data-name="Grupo 20833" transform="translate(8.605 3.109)">
            <path id="Trazado_2627" data-name="Trazado 2627" d="M81.889,117.735a16.473,16.473,0,0,1,2.086-8.393c1.2-1.987,2.706-3.081,4.24-3.081H84.29c-1.535,0-3.041,1.094-4.24,3.081a16.474,16.474,0,0,0-2.086,8.393v1.794a8.611,8.611,0,0,1,2.61-.4h1.316v-1.39Z" transform="translate(-77.963 -106.261)" fill="#23a8fe"/>
          </g>
          <path id="Trazado_2628" data-name="Trazado 2628" d="M293.5,148.059a6.817,6.817,0,0,0-6.786,6.846,6.967,6.967,0,0,0,.062.914h3.09a3.816,3.816,0,0,1-.111-.914,3.746,3.746,0,1,1,7.491,0,3.817,3.817,0,0,1-.111.914h3.09a6.953,6.953,0,0,0,.062-.914A6.817,6.817,0,0,0,293.5,148.059Z" transform="translate(-252.615 -139.847)" fill="#23a8fe"/>
          <path id="Trazado_2629" data-name="Trazado 2629" d="M293.5,148.059a6.817,6.817,0,0,0-6.786,6.846,6.967,6.967,0,0,0,.062.914h3.09a3.816,3.816,0,0,1-.111-.914,3.746,3.746,0,1,1,7.491,0,3.817,3.817,0,0,1-.111.914h3.09a6.953,6.953,0,0,0,.062-.914A6.817,6.817,0,0,0,293.5,148.059Z" transform="translate(-252.615 -139.847)" fill="#23a8fe"/>
          <g id="Grupo_20834" data-name="Grupo 20834" transform="translate(34.094 8.212)">
            <path id="Trazado_2630" data-name="Trazado 2630" d="M290.119,153.268a6.825,6.825,0,0,1,4.983-5.015,6.74,6.74,0,0,0-1.606-.195,6.817,6.817,0,0,0-6.786,6.846,6.967,6.967,0,0,0,.062.914h3.09a3.817,3.817,0,0,1,.258-2.551Z" transform="translate(-286.709 -148.059)" fill="#0193fa"/>
          </g>
          <path id="Trazado_2631" data-name="Trazado 2631" d="M73.708,210.476H36.415a8.778,8.778,0,0,0-8.752,8.752v8.952a1.463,1.463,0,0,1,.407-.058H48.451a1.478,1.478,0,0,1,1.184-.6H60.489a1.478,1.478,0,0,1,1.184.6H82.054a1.463,1.463,0,0,1,.407.058v-8.952a8.778,8.778,0,0,0-8.752-8.752Z" transform="translate(-25.2 -194.642)" fill="#ff656f"/>
          <g id="Grupo_20835" data-name="Grupo 20835" transform="translate(2.463 15.834)">
            <path id="Trazado_2632" data-name="Trazado 2632" d="M33.411,219.227a8.778,8.778,0,0,1,8.752-8.752H36.416a8.778,8.778,0,0,0-8.752,8.752v8.951a1.464,1.464,0,0,1,.407-.058h5.34v-8.893Z" transform="translate(-27.664 -210.475)" fill="#ff4756"/>
          </g>
          <path id="Trazado_2633" data-name="Trazado 2633" d="M156.112,219.022a4.665,4.665,0,0,0,3.978-2.227l3.874-6.319H135.5l3.874,6.319a4.665,4.665,0,0,0,3.978,2.227Z" transform="translate(-119.871 -194.641)" fill="#ff4756"/>
          <path id="Trazado_2634" data-name="Trazado 2634" d="M144.657,216.794l-3.874-6.319H135.5l3.874,6.319a4.666,4.666,0,0,0,3.978,2.227h5.281A4.665,4.665,0,0,1,144.657,216.794Z" transform="translate(-119.872 -194.641)" fill="#fc2d39"/>
          <circle id="Elipse_1216" data-name="Elipse 1216" cx="3.57" cy="3.57" r="3.57" transform="translate(45.804 21.045)" fill="#ffd301"/>
          <circle id="Elipse_1217" data-name="Elipse 1217" cx="3.57" cy="3.57" r="3.57" transform="translate(6.779 21.045)" fill="#ffd301"/>
          <path id="Trazado_2635" data-name="Trazado 2635" d="M386.156,256.725a3.568,3.568,0,0,1,1.8-3.1,3.57,3.57,0,1,0,0,6.2A3.568,3.568,0,0,1,386.156,256.725Z" transform="translate(-336.811 -232.11)" fill="#ffc20c"/>
          <path id="Trazado_2636" data-name="Trazado 2636" d="M66.556,256.725a3.568,3.568,0,0,1,1.8-3.1,3.57,3.57,0,1,0,0,6.2A3.568,3.568,0,0,1,66.556,256.725Z" transform="translate(-56.236 -232.11)" fill="#ffc20c"/>
          <g id="Grupo_20836" data-name="Grupo 20836" transform="translate(44.47 37.124)">
            <path id="Trazado_2637" data-name="Trazado 2637" d="M371.685,384.836v3.915a1.818,1.818,0,0,0,1.813,1.813h8.022a1.818,1.818,0,0,0,1.813-1.813v-3.915Z" transform="translate(-371.685 -384.836)" fill="#665e68"/>
          </g>
          <path id="Trazado_2638" data-name="Trazado 2638" d="M377.025,388.751v-3.915h-5.34v3.915a1.818,1.818,0,0,0,1.813,1.813h5.34A1.818,1.818,0,0,1,377.025,388.751Z" transform="translate(-327.215 -347.712)" fill="#544e55"/>
          <g id="Grupo_20837" data-name="Grupo 20837" transform="translate(3.606 37.124)">
            <path id="Trazado_2639" data-name="Trazado 2639" d="M37.028,384.836v3.915a1.818,1.818,0,0,0,1.813,1.813h8.022a1.818,1.818,0,0,0,1.813-1.813v-3.915Z" transform="translate(-37.028 -384.836)" fill="#665e68"/>
          </g>
          <path id="Trazado_2640" data-name="Trazado 2640" d="M42.368,388.751v-3.915h-5.34v3.915a1.818,1.818,0,0,0,1.813,1.813h5.34A1.818,1.818,0,0,1,42.368,388.751Z" transform="translate(-33.422 -347.712)" fill="#544e55"/>
          <path id="Trazado_2641" data-name="Trazado 2641" d="M40.567,353.725v-2.859a1.467,1.467,0,0,1,.3-.882h-20.5a1.483,1.483,0,0,0-1.479,1.479v1.664a1.483,1.483,0,0,0,1.479,1.479h20.5a1.468,1.468,0,0,1-.3-.882Z" transform="translate(-17.49 -317.116)" fill="#dfebfa"/>
          <path id="Trazado_2642" data-name="Trazado 2642" d="M24.22,353.128v-1.664a1.483,1.483,0,0,1,1.479-1.479h-5.34a1.483,1.483,0,0,0-1.479,1.479v1.664a1.483,1.483,0,0,0,1.479,1.479H25.7A1.484,1.484,0,0,1,24.22,353.128Z" transform="translate(-17.49 -317.116)" fill="#b1dbfc"/>
          <path id="Trazado_2643" data-name="Trazado 2643" d="M325.692,349.984h-20.5a1.467,1.467,0,0,1,.3.882v2.859a1.467,1.467,0,0,1-.3.882h20.5a1.483,1.483,0,0,0,1.479-1.479v-1.664A1.483,1.483,0,0,0,325.692,349.984Z" transform="translate(-268.838 -317.116)" fill="#dfebfa"/>
          <path id="Trazado_2644" data-name="Trazado 2644" d="M205.558,350.908H193.972a1.483,1.483,0,0,1-1.479-1.479V346.57a1.483,1.483,0,0,1,1.479-1.479h11.586a1.483,1.483,0,0,1,1.479,1.479v2.859A1.483,1.483,0,0,1,205.558,350.908Z" transform="translate(-169.904 -312.82)" fill="#b1dbfc"/>
          <path id="Trazado_2645" data-name="Trazado 2645" d="M197.834,349.429V346.57a1.483,1.483,0,0,1,1.479-1.479h-5.34a1.483,1.483,0,0,0-1.479,1.479v2.859a1.484,1.484,0,0,0,1.479,1.479h5.34A1.484,1.484,0,0,1,197.834,349.429Z" transform="translate(-169.905 -312.82)" fill="#8bcaff"/>
        </g>
        <g id="Grupo_20839" data-name="Grupo 20839" transform="translate(0)">
          <path id="Trazado_2646" data-name="Trazado 2646" d="M59.812,85.9H55.9c-.659-6.132-4.167-12.869-10.188-12.869H15.847c-2.982,0-5.7,1.766-7.654,4.972a19.231,19.231,0,0,0-2.534,7.9H2.706A2.709,2.709,0,0,0,0,88.6v3.15a2.709,2.709,0,0,0,2.706,2.706h.659a9.607,9.607,0,0,0-.9,4.071V106.3a2.394,2.394,0,0,0-1.072,1.995v1.664a2.4,2.4,0,0,0,2.216,2.386v2.642a2.732,2.732,0,0,0,2.729,2.729h8.022a2.732,2.732,0,0,0,2.729-2.729V112.35h6.322a2.382,2.382,0,0,0,1.577.6H36.57a2.382,2.382,0,0,0,1.577-.6h6.322v2.633a2.732,2.732,0,0,0,2.729,2.729H55.22a2.732,2.732,0,0,0,2.729-2.729v-2.642a2.4,2.4,0,0,0,2.216-2.386v-1.664a2.394,2.394,0,0,0-1.072-1.995v-3.064a.916.916,0,0,0-1.832,0V105.9H38.148a2.406,2.406,0,0,0-1.577-.6H24.984a2.408,2.408,0,0,0-1.577.6H4.294V98.53a7.866,7.866,0,0,1,7.836-7.836h3.9l3.606,5.882A5.617,5.617,0,0,0,24.4,99.24h12.76a5.617,5.617,0,0,0,4.758-2.664l3.606-5.882h3.9A7.865,7.865,0,0,1,57.26,98.53v.43a.916.916,0,0,0,1.832,0,9.921,9.921,0,0,0-.9-4.5h1.622a2.709,2.709,0,0,0,2.706-2.706V88.6A2.709,2.709,0,0,0,59.812,85.9ZM2.706,92.627a.875.875,0,0,1-.874-.874V88.6a.875.875,0,0,1,.874-.874H5.533c-.006.223-.01.447-.01.671v3.082a9.743,9.743,0,0,0-1.042,1.146Zm12.548,22.356a.9.9,0,0,1-.9.9H6.335a.9.9,0,0,1-.9-.9V112.35h9.816Zm40.863,0a.9.9,0,0,1-.9.9H47.2a.9.9,0,0,1-.9-.9V112.35h9.816Zm1.653-7.255a.534.534,0,0,1,.094.01l.038.008a.571.571,0,0,1,.431.545v1.664a.571.571,0,0,1-.563.563h-18.8v-2.79Zm-21.2-.6a.573.573,0,0,1,.563.563v2.859a.574.574,0,0,1-.563.563H24.984a.574.574,0,0,1-.563-.563v-2.859a.573.573,0,0,1,.563-.563H36.57Zm-13.981.6v2.79H3.785a.571.571,0,0,1-.563-.563v-1.664a.571.571,0,0,1,.43-.545l.039-.009a.533.533,0,0,1,.094-.01h18.8ZM10.436,89.012V88.4a15.3,15.3,0,0,1,1.952-7.843c1.027-1.687,2.256-2.615,3.458-2.615H29.122a.916.916,0,0,0,0-1.832H15.847c-1.866,0-3.65,1.241-5.023,3.494A17.14,17.14,0,0,0,8.6,88.4V89.53a9.616,9.616,0,0,0-1.25.6V88.4a18.516,18.516,0,0,1,2.4-9.446c1.608-2.64,3.771-4.094,6.09-4.094H45.708c2.319,0,4.482,1.454,6.09,4.093A18.476,18.476,0,0,1,54.2,88.4v1.73a9.623,9.623,0,0,0-1.25-.6V88.4a17.138,17.138,0,0,0-2.22-8.8c-1.372-2.253-3.156-3.494-5.023-3.494H33.4a.916.916,0,1,0,0,1.832H45.708c1.2,0,2.431.929,3.458,2.615A15.3,15.3,0,0,1,51.118,88.4v.612a9.975,9.975,0,0,0-1.621-.149,7.7,7.7,0,0,0-15.4,0H12.131a10.071,10.071,0,0,0-1.694.15Zm29.918,6.606a3.773,3.773,0,0,1-3.2,1.79H24.4a3.773,3.773,0,0,1-3.2-1.79l-3.019-4.925H43.373Zm-1.388-6.757a2.83,2.83,0,0,1,5.659,0Zm7.491,0a4.661,4.661,0,0,0-9.323,0H35.925a5.871,5.871,0,0,1,11.741,0Zm14.229,2.891a.875.875,0,0,1-.874.874H57.073a9.751,9.751,0,0,0-1.042-1.146V88.4c0-.222,0-.446-.01-.671h3.79a.875.875,0,0,1,.874.874v3.15Z" transform="translate(0 -73.028)" fill="#050402"/>
          <path id="Trazado_2647" data-name="Trazado 2647" d="M186.167,300.85a.916.916,0,1,0,0,1.832H200.65a.916.916,0,1,0,0-1.832Z" transform="translate(-162.631 -273.032)" fill="#050402"/>
          <path id="Trazado_2648" data-name="Trazado 2648" d="M379.607,245.381a4.485,4.485,0,1,0,4.486,4.485A4.491,4.491,0,0,0,379.607,245.381Zm0,7.139a2.654,2.654,0,1,1,2.654-2.654A2.657,2.657,0,0,1,379.607,252.52Z" transform="translate(-329.317 -224.336)" fill="#050402"/>
          <path id="Trazado_2649" data-name="Trazado 2649" d="M55.521,249.866a4.485,4.485,0,1,0,4.486-4.485A4.491,4.491,0,0,0,55.521,249.866Zm7.139,0a2.654,2.654,0,1,1-2.654-2.654A2.657,2.657,0,0,1,62.66,249.866Z" transform="translate(-48.742 -224.336)" fill="#050402"/>
        </g>
      </g>
    </g>
    <g id="Grupo_20848" data-name="Grupo 20848" transform="translate(774 104)">
      <circle id="Elipse_1212" data-name="Elipse 1212" cx="45" cy="45" r="45" fill="#4dd0e1"/>
      <g id="boy" transform="translate(18.749 15.512)">
        <g id="Grupo_20845" data-name="Grupo 20845" transform="translate(0.867 0.866)">
          <path id="Trazado_2650" data-name="Trazado 2650" d="M155.448,385.524h0l-.649-.851.263-.851a19.085,19.085,0,0,0-1.3-3.434l-1.11-.684.235-.888a15.546,15.546,0,0,0-3.906-4.377H132.516a15.55,15.55,0,0,0-3.906,4.377l-.007,1.026-.866.544a19.069,19.069,0,0,0-1.3,3.436l.4,1.183-.79.519a21.917,21.917,0,0,0-.348,3.935h6.658l.727-.573,1.005.573h5.792l.866-.573.866.573h5.792l1.005-.573.727.573H155.8A21.9,21.9,0,0,0,155.448,385.524Z" transform="translate(-115.093 -332.061)" fill="#ff889e"/>
          <path id="Trazado_2651" data-name="Trazado 2651" d="M129.368,384.771c0-4.149,2.043-8.333,5-10.332h-1.849a15.551,15.551,0,0,0-3.906,4.377l-.007,1.026-.866.544a19.069,19.069,0,0,0-1.3,3.436l.4,1.183-.79.519a21.915,21.915,0,0,0-.348,3.935h4.043A22.875,22.875,0,0,1,129.368,384.771Z" transform="translate(-115.092 -332.061)" fill="#ff748f"/>
          <path id="Trazado_2652" data-name="Trazado 2652" d="M46.986,31.639a24.139,24.139,0,1,1,48.278,0Z" transform="translate(-45.471 -7.5)" fill="#5c586f"/>
          <g id="Grupo_20840" data-name="Grupo 20840" transform="translate(40.011 19.671)">
            <circle id="Elipse_1218" data-name="Elipse 1218" cx="5.649" cy="5.649" r="5.649" fill="#ffbd86"/>
          </g>
          <path id="Trazado_2653" data-name="Trazado 2653" d="M54.5,38.288a27.912,27.912,0,0,1,9.351-21.083A24.182,24.182,0,0,0,46.986,40.223h7.578C54.522,39.584,54.5,38.939,54.5,38.288Z" transform="translate(-45.471 -16.084)" fill="#4f4c5f"/>
          <path id="Trazado_2654" data-name="Trazado 2654" d="M122.294,102.531a4.756,4.756,0,0,0-2.91-3.382c-4.758-1.863-7.9-6.493-7.9-6.493C107.314,99.725,97.945,99.9,97.945,99.9c2.811-2.811,1.107-7.239,1.107-7.239-3.246,3.738-8.17,5.175-11.751,5.722a4.714,4.714,0,0,0-3.856,3.437,20.006,20.006,0,1,0,38.85.715Z" transform="translate(-77.128 -82.821)" fill="#fed2a4"/>
          <path id="Trazado_2655" data-name="Trazado 2655" d="M51.2,169.581a28.02,28.02,0,0,1-8.3-20.118,29.1,29.1,0,0,1,.747-6.566,4.706,4.706,0,0,0-3.458,3.357c-.062.232-.118.467-.172.7a4.687,4.687,0,0,0-.5-.026,5.649,5.649,0,0,0,0,11.3,3.428,3.428,0,0,0,1.148-.166A20.183,20.183,0,0,0,51.2,169.581Z" transform="translate(-33.865 -127.26)" fill="#ffbd86"/>
          <g id="Grupo_20844" data-name="Grupo 20844" transform="translate(9.029 24.49)">
            <g id="Grupo_20843" data-name="Grupo 20843">
              <g id="Grupo_20841" data-name="Grupo 20841">
                <ellipse id="Elipse_1219" data-name="Elipse 1219" cx="4.481" cy="3.569" rx="4.481" ry="3.569" fill="#ff9db0"/>
              </g>
              <g id="Grupo_20842" data-name="Grupo 20842" transform="translate(24.289)">
                <ellipse id="Elipse_1220" data-name="Elipse 1220" cx="4.481" cy="3.569" rx="4.481" ry="3.569" fill="#ff9db0"/>
              </g>
            </g>
          </g>
        </g>
        <g id="Grupo_20846" data-name="Grupo 20846">
          <path id="Trazado_2656" data-name="Trazado 2656" d="M165.949,198.215v1.832a.866.866,0,1,0,1.732,0v-1.832a.866.866,0,0,0-1.732,0Z" transform="translate(-149.828 -174.557)"/>
          <path id="Trazado_2657" data-name="Trazado 2657" d="M331.9,197.349a.866.866,0,0,0-.866.866v1.832a.866.866,0,1,0,1.732,0v-1.832A.866.866,0,0,0,331.9,197.349Z" transform="translate(-295.849 -174.557)"/>
          <path id="Trazado_2658" data-name="Trazado 2658" d="M231.969,213.036a2.465,2.465,0,0,1-3.721,0,.866.866,0,1,0-1.306,1.138,4.2,4.2,0,0,0,6.333,0,.866.866,0,0,0-1.306-1.138Z" transform="translate(-203.588 -188.17)"/>
          <path id="Trazado_2659" data-name="Trazado 2659" d="M69.543,6.379A24.956,24.956,0,0,0,39.176,4.1a.866.866,0,0,0,.952,1.447A23.283,23.283,0,0,1,75.669,20.294a6.586,6.586,0,0,0-2.646-.621A5.643,5.643,0,0,0,69.8,16.387a18.231,18.231,0,0,1-7.5-6.172.867.867,0,0,0-1.463.046c-2.275,3.854-6.588,5.931-10.991,6.622a8.984,8.984,0,0,0,.11-6.492.867.867,0,0,0-1.462-.257c-2.781,3.2-7.068,4.8-11.228,5.434a5.581,5.581,0,0,0-4.572,4.106,6.586,6.586,0,0,0-2.608.621A23.269,23.269,0,0,1,37.453,7.6.866.866,0,1,0,36.3,6.3a24.971,24.971,0,0,0-8.219,15.475,6.51,6.51,0,0,0,5.393,10.9,21.112,21.112,0,0,0,9.606,10.741,20.019,20.019,0,0,0-6.119,14.852.866.866,0,0,0,.866.866h30.1a.866.866,0,0,0,.866-.866,20.045,20.045,0,0,0-6.1-14.835A20.916,20.916,0,0,0,67.1,40.281a.866.866,0,0,0-1.181-1.268,19.141,19.141,0,0,1-31.54-18.93,3.848,3.848,0,0,1,3.15-2.8,21.114,21.114,0,0,0,11.157-4.861,5.588,5.588,0,0,1-1.257,4.91.867.867,0,0,0,.628,1.479A21.213,21.213,0,0,0,53.514,17.8a15.889,15.889,0,0,0,8.12-5.6A19.281,19.281,0,0,0,69.164,18a3.848,3.848,0,0,1,2.378,2.755,19.124,19.124,0,0,1-3.4,15.794A.866.866,0,0,0,69.525,37.6,20.842,20.842,0,0,0,72.3,32.673a6.521,6.521,0,0,0,5.372-10.9A24.982,24.982,0,0,0,69.543,6.379ZM59.536,44.792v2.829H53.744V45.859A20.824,20.824,0,0,0,59.536,44.792ZM66.3,52.628h-5.03V49.353H65A17.923,17.923,0,0,1,66.3,52.628Zm-6.762,0H53.744V49.353h5.792ZM40.753,49.353h3.734v3.275h-5.03A17.916,17.916,0,0,1,40.753,49.353Zm5.466,0h5.792v3.275H46.22Zm0-4.57a20.556,20.556,0,0,0,5.792,1.075v1.763H46.22Zm5.792,9.577V57.4H46.22V54.36Zm1.732,0h5.792V57.4H53.744Zm-9.257-9.879v3.14H41.773A15.931,15.931,0,0,1,44.487,44.481ZM39.05,54.36h5.437V57.4H38.712A20.757,20.757,0,0,1,39.05,54.36ZM61.268,57.4V54.36H66.7a20.756,20.756,0,0,1,.339,3.038Zm2.714-9.778H61.268v-3.14A15.929,15.929,0,0,1,63.982,47.621ZM32.88,30.969a4.782,4.782,0,0,1-.569-9.532A20.877,20.877,0,0,0,32.88,30.969Zm40.009,0a21.087,21.087,0,0,0,.556-9.531,4.782,4.782,0,0,1-.556,9.531Z" transform="translate(-26.357)"/>
        </g>
      </g>
    </g>
    <path id="Trazado_2660" data-name="Trazado 2660" d="M6104.683,4161.333v14.782h-23.35v18.143" transform="translate(-5812.186 -4084.993)" fill="none" stroke="#111e61" stroke-linecap="round" stroke-width="3"/>
    <path id="Trazado_2661" data-name="Trazado 2661" d="M5944,4161.333v16.8h45.02v6.719" transform="translate(-5816.569 -4084.993)" fill="none" stroke="#111e61" stroke-linecap="round" stroke-width="3"/>
    <path id="Trazado_2663" data-name="Trazado 2663" d="M5982.29,4282.667v12.095h-36.957v6.72" transform="translate(-5816.559 -4084.034)" fill="none" stroke="#111e61" stroke-linecap="round" stroke-width="3"/>
    <path id="Trazado_2664" data-name="Trazado 2664" d="M5922,4233.5h13.439" transform="translate(-5816.742 -4084.423)" fill="none" stroke="#111e61" stroke-linecap="round" stroke-width="3"/>
    <path id="Trazado_2665" data-name="Trazado 2665" d="M6010.667,4278v8.735h96.087v14.11" transform="translate(-5813.412 -4084.071)" fill="none" stroke="#111e61" stroke-linecap="round" stroke-width="3"/>
    <path id="Trazado_2666" data-name="Trazado 2666" d="M6670.363,4160.667v20.158H6624v5.375" transform="translate(-5800.193 -4084.999)" fill="none" stroke="#111e61" stroke-linecap="round" stroke-width="3"/>
    <path id="Trazado_2667" data-name="Trazado 2667" d="M6500,4160.667v9.407h113.557v14.782" transform="translate(-5801.174 -4084.999)" fill="none" stroke="#111e61" stroke-linecap="round" stroke-width="3"/>
    <path id="Trazado_2668" data-name="Trazado 2668" d="M6669.5,4233.5h12.6v65.009" transform="translate(-5799.834 -4084.423)" fill="none" stroke="#111e61" stroke-linecap="round" stroke-width="3"/>
  </g>
</svg>
