<svg xmlns="http://www.w3.org/2000/svg" width="471" height="471" viewBox="0 0 471 471">
  <g id="Grupo_55173" data-name="Grupo 55173" transform="translate(11825 12237)">
    <rect id="Rectángulo_6986" data-name="Rectángulo 6986" width="471" height="471" transform="translate(-11825 -12237)" fill="none"/>
    <g id="Grupo_55172" data-name="Grupo 55172" transform="translate(-12017.467 -12235.308)">
      <path id="Trazado_5119" data-name="Trazado 5119" d="M521.411,263.856a5.167,5.167,0,0,1-2.661-.737l-15.956-9.565.966-1.611,15.956,9.565a3.286,3.286,0,0,0,3.358.019l25.969-15.189a1.3,1.3,0,0,0-.039-2.277l-34.61-18.534.886-1.657,34.611,18.535a3.181,3.181,0,0,1,.1,5.554l-25.968,15.187A5.164,5.164,0,0,1,521.411,263.856Z" transform="translate(42.221 34.914)" fill="#b2d3ea"/>
      <path id="Trazado_5120" data-name="Trazado 5120" d="M474.379,393.755a6.7,6.7,0,0,1-3.266-.846l-63.678-35.445a2.93,2.93,0,0,1-.016-5.111L436.236,336.1a1,1,0,0,0,.006-1.739l-32.062-18.41a2.878,2.878,0,0,1-.1-4.927l13.1-8.3,1.006,1.585-13.1,8.3a1,1,0,0,0,.036,1.712l32.062,18.41a2.88,2.88,0,0,1-.019,5l-28.818,16.252a1.053,1.053,0,0,0,.007,1.835l63.677,35.446a4.857,4.857,0,0,0,4.864-.089L501.1,376.294a.451.451,0,0,0,.221-.394.461.461,0,0,0-.222-.394l-17.524-10.652.975-1.6L502.076,373.9a2.339,2.339,0,0,1,.011,3.99l-24.218,14.889A6.732,6.732,0,0,1,474.379,393.755Z" transform="translate(24.715 48.71)" fill="#b2d3ea"/>
      <g id="Grupo_21821" data-name="Grupo 21821" transform="translate(485.7 183.333)">
        <path id="Trazado_5121" data-name="Trazado 5121" d="M491.879,264.7l-30.7-17.725c-1.885-1.088-1.647-2.988.528-4.244l29.643-17.114a8.171,8.171,0,0,1,7.352-.3l30.7,17.724c1.885,1.088,1.648,2.988-.527,4.244l-29.643,17.114A8.173,8.173,0,0,1,491.879,264.7Z" transform="translate(-450.982 -148.296)" fill="#b2d3ea"/>
        <g id="Grupo_21815" data-name="Grupo 21815" transform="translate(0 42.395)">
          <path id="Trazado_5122" data-name="Trazado 5122" d="M540.912,231.8h0V218.531l-29.743-.016-10.281-5.936c-2.359-1.363-6.481-1.191-9.2.382l-9.592,5.538-29.77-.016v13.641a2.669,2.669,0,0,0,1.581,2.466l38.442,22.195c2.359,1.363,6.481,1.191,9.206-.382l37.119-21.43C540.242,234.064,541,232.889,540.912,231.8Z" transform="translate(-452.31 -192.95)" fill="#396caa"/>
          <path id="Trazado_5123" data-name="Trazado 5123" d="M496.618,211.665a10.613,10.613,0,0,0-4.934,1.295l-9.592,5.538-29.77-.016v13.641a2.669,2.669,0,0,0,1.581,2.466l38.442,22.195a8.335,8.335,0,0,0,4.272.913Z" transform="translate(-452.31 -192.949)" fill="#396caa"/>
          <path id="Trazado_5124" data-name="Trazado 5124" d="M455.692,217.467h-3.37v13.641a2.669,2.669,0,0,0,1.581,2.466l1.788,1.033Z" transform="translate(-452.31 -191.934)" fill="#5793ce"/>
          <path id="Trazado_5125" data-name="Trazado 5125" d="M486.889,252.631a10.491,10.491,0,0,0,7.359-.083V237.058h-7.359Z" transform="translate(-446.262 -188.507)" fill="#5793ce"/>
          <path id="Trazado_5126" data-name="Trazado 5126" d="M492.346,245.978,453.9,223.783c-2.359-1.363-2.064-3.742.66-5.315l37.12-21.431c2.724-1.572,6.845-1.744,9.2-.381l38.443,22.195c2.359,1.362,2.063,3.741-.661,5.314L501.552,245.6C498.827,247.17,494.706,247.34,492.346,245.978Z" transform="translate(-452.311 -195.736)" fill="#d4ecff"/>
          <path id="Trazado_5127" data-name="Trazado 5127" d="M491.97,241.366l-32.215-18.6c-1.977-1.142-1.73-3.136.553-4.454l31.107-17.959c2.283-1.318,5.736-1.462,7.714-.32l32.216,18.6c1.977,1.141,1.728,3.135-.555,4.453l-31.107,17.96C497.4,242.364,493.947,242.507,491.97,241.366Z" transform="translate(-451.242 -195.119)" fill="#5793ce"/>
          <g id="Grupo_21814" data-name="Grupo 21814" transform="translate(71.357 35.469)">
            <path id="Trazado_5128" data-name="Trazado 5128" d="M516.148,231.941a3.431,3.431,0,0,1-1.553,2.689c-.858.495-1.552.094-1.552-.9a3.432,3.432,0,0,1,1.552-2.689C515.453,230.55,516.148,230.951,516.148,231.941Z" transform="translate(-513.043 -225.064)" fill="#d4ecff"/>
            <path id="Trazado_5129" data-name="Trazado 5129" d="M520.4,229.486a3.431,3.431,0,0,1-1.553,2.689c-.858.5-1.553.094-1.553-.9a3.435,3.435,0,0,1,1.553-2.689C519.705,228.095,520.4,228.5,520.4,229.486Z" transform="translate(-512.299 -225.494)" fill="#d4ecff"/>
            <path id="Trazado_5130" data-name="Trazado 5130" d="M524.651,227.032a3.433,3.433,0,0,1-1.552,2.689c-.858.495-1.553.093-1.553-.9a3.431,3.431,0,0,1,1.553-2.688C523.957,225.64,524.651,226.042,524.651,227.032Z" transform="translate(-511.555 -225.923)" fill="#d4ecff"/>
          </g>
        </g>
        <g id="Grupo_21817" data-name="Grupo 21817" transform="translate(0 21.197)">
          <path id="Trazado_5131" data-name="Trazado 5131" d="M540.912,213.754h0V200.49l-29.743-.016-10.281-5.936c-2.359-1.362-6.481-1.191-9.2.382l-9.592,5.538-29.77-.016v13.641a2.669,2.669,0,0,0,1.581,2.466l38.442,22.195c2.359,1.363,6.481,1.191,9.206-.381l37.119-21.431C540.242,216.023,541,214.848,540.912,213.754Z" transform="translate(-452.31 -174.909)" fill="#396caa"/>
          <path id="Trazado_5132" data-name="Trazado 5132" d="M496.618,193.624a10.613,10.613,0,0,0-4.934,1.295l-9.592,5.538-29.77-.016v13.641a2.669,2.669,0,0,0,1.581,2.466l38.442,22.195a8.335,8.335,0,0,0,4.272.913Z" transform="translate(-452.31 -174.908)" fill="#396caa"/>
          <path id="Trazado_5133" data-name="Trazado 5133" d="M455.692,199.426h-3.37v13.641a2.669,2.669,0,0,0,1.581,2.466l1.788,1.033Z" transform="translate(-452.31 -173.893)" fill="#5793ce"/>
          <path id="Trazado_5134" data-name="Trazado 5134" d="M486.889,234.59a10.491,10.491,0,0,0,7.359-.083V219.017h-7.359Z" transform="translate(-446.262 -170.466)" fill="#5793ce"/>
          <path id="Trazado_5135" data-name="Trazado 5135" d="M492.346,227.937,453.9,205.742c-2.359-1.363-2.064-3.742.66-5.315L491.685,179c2.724-1.572,6.845-1.744,9.2-.381l38.443,22.195c2.359,1.362,2.063,3.741-.661,5.314l-37.119,21.431C498.827,229.129,494.706,229.3,492.346,227.937Z" transform="translate(-452.311 -177.695)" fill="#d4ecff"/>
          <path id="Trazado_5136" data-name="Trazado 5136" d="M491.97,223.325l-32.215-18.6c-1.977-1.142-1.73-3.136.553-4.454l31.107-17.959c2.283-1.318,5.736-1.462,7.714-.32l32.216,18.6c1.977,1.141,1.728,3.136-.555,4.453l-31.107,17.96C497.4,224.324,493.947,224.466,491.97,223.325Z" transform="translate(-451.242 -177.078)" fill="#5793ce"/>
          <g id="Grupo_21816" data-name="Grupo 21816" transform="translate(71.357 35.469)">
            <path id="Trazado_5137" data-name="Trazado 5137" d="M516.148,213.9a3.431,3.431,0,0,1-1.553,2.689c-.858.495-1.552.094-1.552-.9A3.432,3.432,0,0,1,514.6,213C515.453,212.509,516.148,212.91,516.148,213.9Z" transform="translate(-513.043 -207.023)" fill="#d4ecff"/>
            <path id="Trazado_5138" data-name="Trazado 5138" d="M520.4,211.445a3.431,3.431,0,0,1-1.553,2.689c-.858.5-1.553.094-1.553-.9a3.435,3.435,0,0,1,1.553-2.689C519.705,210.054,520.4,210.456,520.4,211.445Z" transform="translate(-512.299 -207.453)" fill="#d4ecff"/>
            <path id="Trazado_5139" data-name="Trazado 5139" d="M524.651,208.991a3.43,3.43,0,0,1-1.552,2.688c-.858.5-1.553.094-1.553-.9a3.431,3.431,0,0,1,1.553-2.689C523.957,207.6,524.651,208,524.651,208.991Z" transform="translate(-511.555 -207.882)" fill="#d4ecff"/>
          </g>
        </g>
        <g id="Grupo_21820" data-name="Grupo 21820">
          <path id="Trazado_5140" data-name="Trazado 5140" d="M540.912,195.713h0V182.449l-29.743-.016L500.888,176.5c-2.359-1.363-6.481-1.191-9.2.382l-9.592,5.538-29.77-.016v13.641a2.669,2.669,0,0,0,1.581,2.466L492.345,220.7c2.359,1.363,6.481,1.191,9.206-.381L538.67,198.89C540.242,197.982,541,196.807,540.912,195.713Z" transform="translate(-452.31 -156.868)" fill="#396caa"/>
          <path id="Trazado_5141" data-name="Trazado 5141" d="M496.618,175.583a10.613,10.613,0,0,0-4.934,1.295l-9.592,5.538-29.77-.016V196.04a2.669,2.669,0,0,0,1.581,2.466L492.345,220.7a8.335,8.335,0,0,0,4.272.913Z" transform="translate(-452.31 -156.867)" fill="#396caa"/>
          <path id="Trazado_5142" data-name="Trazado 5142" d="M455.692,181.385h-3.37v13.641a2.669,2.669,0,0,0,1.581,2.466l1.788,1.033Z" transform="translate(-452.31 -155.852)" fill="#5793ce"/>
          <path id="Trazado_5143" data-name="Trazado 5143" d="M486.889,216.549a10.491,10.491,0,0,0,7.359-.083V200.976h-7.359Z" transform="translate(-446.262 -152.425)" fill="#5793ce"/>
          <path id="Trazado_5144" data-name="Trazado 5144" d="M492.346,209.9,453.9,187.7c-2.359-1.363-2.064-3.742.66-5.314l37.12-21.431c2.724-1.573,6.845-1.745,9.2-.382l38.443,22.195c2.359,1.362,2.063,3.741-.661,5.314l-37.119,21.431C498.827,211.087,494.706,211.258,492.346,209.9Z" transform="translate(-452.311 -159.654)" fill="#d4ecff"/>
          <path id="Trazado_5145" data-name="Trazado 5145" d="M538.671,181.875l-37.119,21.431c-2.725,1.573-6.846,1.745-9.206.382L453.9,181.493a3.548,3.548,0,0,1-1.177-1.045c-.811,1.3-.443,2.72,1.177,3.655L492.346,206.3c2.359,1.362,6.481,1.191,9.206-.382l37.119-21.431c2.117-1.222,2.76-2.929,1.839-4.27A5.147,5.147,0,0,1,538.671,181.875Z" transform="translate(-452.311 -156.057)" fill="#fff"/>
          <g id="Grupo_21818" data-name="Grupo 21818" transform="translate(71.357 35.468)">
            <path id="Trazado_5146" data-name="Trazado 5146" d="M516.148,195.859a3.431,3.431,0,0,1-1.553,2.689c-.858.5-1.552.094-1.552-.9a3.434,3.434,0,0,1,1.552-2.689C515.453,194.468,516.148,194.869,516.148,195.859Z" transform="translate(-513.043 -188.982)" fill="#d4ecff"/>
            <path id="Trazado_5147" data-name="Trazado 5147" d="M520.4,193.4a3.431,3.431,0,0,1-1.553,2.689c-.858.5-1.553.094-1.553-.9a3.435,3.435,0,0,1,1.553-2.689C519.705,192.013,520.4,192.415,520.4,193.4Z" transform="translate(-512.299 -189.412)" fill="#d4ecff"/>
            <path id="Trazado_5148" data-name="Trazado 5148" d="M524.651,190.95a3.433,3.433,0,0,1-1.552,2.689c-.858.495-1.553.093-1.553-.9a3.431,3.431,0,0,1,1.553-2.689C523.957,189.558,524.651,189.96,524.651,190.95Z" transform="translate(-511.555 -189.841)" fill="#d4ecff"/>
          </g>
          <g id="Grupo_21819" data-name="Grupo 21819" transform="translate(23.574 12.97)">
            <path id="Trazado_5149" data-name="Trazado 5149" d="M491.11,194.2l-17.99-10.385c-1.1-.638-.966-1.752.309-2.487L490.8,171.3a4.787,4.787,0,0,1,4.307-.177L513.1,181.51c1.1.638.966,1.751-.309,2.487l-17.37,10.028A4.783,4.783,0,0,1,491.11,194.2Z" transform="translate(-472.375 -170.693)" fill="#5793ce"/>
            <path id="Trazado_5150" data-name="Trazado 5150" d="M490.172,183.786l-2.49-1.437c-.153-.088-.133-.242.043-.344l2.4-1.388a.663.663,0,0,1,.6-.025l2.489,1.437c.153.088.134.242-.043.344l-2.4,1.388A.661.661,0,0,1,490.172,183.786Z" transform="translate(-469.715 -168.972)" fill="#d4ecff"/>
            <path id="Trazado_5151" data-name="Trazado 5151" d="M473.12,183.818l.052.029a2.915,2.915,0,0,1,.257-.179l17.37-10.028a4.784,4.784,0,0,1,4.307-.179l17.939,10.357c1.018-.73,1.07-1.721.051-2.31l-17.99-10.387a4.791,4.791,0,0,0-4.307.179l-17.37,10.029C472.154,182.066,472.017,183.18,473.12,183.818Z" transform="translate(-472.375 -170.693)" fill="#396caa"/>
          </g>
        </g>
      </g>
      <g id="Grupo_21841" data-name="Grupo 21841" transform="translate(385.162 123.479)">
        <g id="Grupo_21833" data-name="Grupo 21833">
          <g id="Grupo_21824" data-name="Grupo 21824">
            <path id="Trazado_5152" data-name="Trazado 5152" d="M438.386,322.785l-66.351-37.833c-2.427-1.4-2.123-3.849.679-5.467l38.177-22.041c2.8-1.618,7.04-1.793,9.468-.392l66.351,37.835c2.427,1.4,2.123,3.848-.679,5.466l-38.176,22.041C445.051,324.01,440.812,324.185,438.386,322.785Z" transform="translate(-366.105 -82.926)" fill="#b2d3ea"/>
            <path id="Trazado_5153" data-name="Trazado 5153" d="M493.262,304.862h0v-154.9l-61.58-16.117L420.34,127.3c-2.6-1.5-7.151-1.315-10.156.421l-10.583,6.11-32.846-.018,9.726,149.535a2.945,2.945,0,0,0,1.744,2.721l61.454,46.369c2.6,1.5,7.151,1.314,10.156-.422l40.955-23.645C492.523,307.366,493.36,306.069,493.262,304.862Z" transform="translate(-366.742 -105.639)" fill="#396caa"/>
            <path id="Trazado_5154" data-name="Trazado 5154" d="M415.628,126.287a11.728,11.728,0,0,0-5.444,1.428l-10.583,6.11-32.846-.018V289.124a2.944,2.944,0,0,0,1.745,2.721l71.179,40.588a9.208,9.208,0,0,0,4.714,1.007l.733-156.289Z" transform="translate(-366.743 -105.638)" fill="#d4ecff"/>
            <path id="Trazado_5155" data-name="Trazado 5155" d="M429.377,325.453a11.568,11.568,0,0,0,8.118-.093V168.005h-8.118Z" transform="translate(-355.786 -98.339)" fill="#5793ce"/>
            <path id="Trazado_5156" data-name="Trazado 5156" d="M439.68,180.244,368.5,139.657c-2.6-1.5-2.277-4.128.728-5.863l40.955-23.646c3.005-1.735,7.553-1.923,10.156-.421l71.179,40.586c2.6,1.5,2.277,4.129-.728,5.864l-40.955,23.645C446.831,181.558,442.284,181.747,439.68,180.244Z" transform="translate(-366.744 -108.712)" fill="#d4ecff"/>
            <path id="Trazado_5157" data-name="Trazado 5157" d="M490.792,149.291l-40.955,23.645c-3.005,1.735-7.553,1.925-10.156.421L368.5,132.77a3.932,3.932,0,0,1-1.3-1.153c-.894,1.439-.489,3,1.3,4.032l71.179,40.588c2.6,1.5,7.151,1.314,10.156-.422l40.955-23.645c2.335-1.349,3.044-3.232,2.028-4.712A5.692,5.692,0,0,1,490.792,149.291Z" transform="translate(-366.744 -104.705)" fill="#fafdff"/>
            <g id="Grupo_21823" data-name="Grupo 21823" transform="translate(26.738 13.131)">
              <path id="Trazado_5158" data-name="Trazado 5158" d="M437.713,161.84l-47.389-27.47c-1.218-.7-1.066-1.932.341-2.745l19.165-11.065a5.285,5.285,0,0,1,4.753-.2l47.389,27.472c1.218.7,1.066,1.932-.341,2.744l-19.165,11.065A5.286,5.286,0,0,1,437.713,161.84Z" transform="translate(-389.501 -119.888)" fill="#173d7a"/>
              <g id="Grupo_21822" data-name="Grupo 21822" transform="translate(19.768 12.125)">
                <path id="Trazado_5159" data-name="Trazado 5159" d="M409.185,133.8l-2.746-1.586c-.168-.1-.147-.267.047-.38l2.652-1.531a.733.733,0,0,1,.658-.027l2.746,1.586c.168.1.147.267-.047.38l-2.652,1.531A.733.733,0,0,1,409.185,133.8Z" transform="translate(-406.325 -130.208)" fill="#d4ecff"/>
                <path id="Trazado_5160" data-name="Trazado 5160" d="M416.993,138.288l-2.746-1.586c-.168-.1-.147-.267.047-.38l2.652-1.531a.73.73,0,0,1,.658-.027l2.746,1.585c.168.1.147.268-.047.38l-2.652,1.531A.734.734,0,0,1,416.993,138.288Z" transform="translate(-404.959 -129.423)" fill="#d4ecff"/>
                <path id="Trazado_5161" data-name="Trazado 5161" d="M424.8,142.776l-2.747-1.585c-.168-.1-.147-.268.048-.38l2.651-1.531a.73.73,0,0,1,.658-.027l2.746,1.585c.169.1.148.267-.047.38l-2.652,1.531A.727.727,0,0,1,424.8,142.776Z" transform="translate(-403.593 -128.637)" fill="#d4ecff"/>
                <path id="Trazado_5162" data-name="Trazado 5162" d="M432.61,147.266l-2.747-1.586c-.168-.1-.147-.267.048-.38l2.651-1.531a.733.733,0,0,1,.658-.027l2.746,1.586c.169.1.148.267-.047.38l-2.652,1.531A.731.731,0,0,1,432.61,147.266Z" transform="translate(-402.227 -127.852)" fill="#d4ecff"/>
              </g>
              <path id="Trazado_5163" data-name="Trazado 5163" d="M390.323,134.369l.056.032a3.168,3.168,0,0,1,.284-.2l19.165-11.066a5.281,5.281,0,0,1,4.753-.2l47.334,27.437c1.122-.8,1.181-1.9.055-2.548l-47.389-27.47a5.285,5.285,0,0,0-4.753.2l-19.165,11.065C389.258,132.438,389.105,133.665,390.323,134.369Z" transform="translate(-389.501 -119.888)" fill="#5793ce"/>
            </g>
          </g>
          <g id="Grupo_21826" data-name="Grupo 21826" transform="translate(88.344 69.508)">
            <path id="Trazado_5164" data-name="Trazado 5164" d="M444.679,200.583l26.944-15.426a6.579,6.579,0,0,0,2.746-5.246v-9.636c0-2.021-1.23-2.95-2.746-2.075l-26.944,15.427a6.573,6.573,0,0,0-2.746,5.245v9.636C441.933,200.53,443.162,201.459,444.679,200.583Z" transform="translate(-441.933 -167.871)" fill="#173d7a"/>
            <path id="Trazado_5165" data-name="Trazado 5165" d="M472.854,167.9a2.687,2.687,0,0,1,.69,2v9.636a6.574,6.574,0,0,1-2.746,5.245l-26.944,15.427a1.982,1.982,0,0,1-1.334.29,1.636,1.636,0,0,0,2.056.071l26.944-15.426a6.577,6.577,0,0,0,2.746-5.246v-9.636C474.266,168.9,473.693,168.046,472.854,167.9Z" transform="translate(-441.83 -167.865)" fill="#fff"/>
            <g id="Grupo_21825" data-name="Grupo 21825" transform="translate(10.251 11.739)">
              <path id="Trazado_5166" data-name="Trazado 5166" d="M451.256,187.658l2.472-1.428a1.433,1.433,0,0,0,.6-1.143v-2.64c0-.441-.268-.643-.6-.452l-2.472,1.428a1.433,1.433,0,0,0-.6,1.143v2.64C450.658,187.646,450.926,187.848,451.256,187.658Z" transform="translate(-450.658 -177.152)" fill="#396caa"/>
              <path id="Trazado_5167" data-name="Trazado 5167" d="M458.29,183.6l2.472-1.428a1.433,1.433,0,0,0,.6-1.143v-2.64c0-.441-.268-.643-.6-.452l-2.472,1.428a1.433,1.433,0,0,0-.6,1.143v2.64C457.692,183.585,457.96,183.787,458.29,183.6Z" transform="translate(-449.427 -177.862)" fill="#fff"/>
            </g>
          </g>
          <g id="Grupo_21828" data-name="Grupo 21828" transform="translate(88.344 139.136)">
            <path id="Trazado_5168" data-name="Trazado 5168" d="M444.679,259.844l26.944-15.427a6.577,6.577,0,0,0,2.746-5.246v-9.636c0-2.021-1.23-2.95-2.746-2.075l-26.944,15.427a6.574,6.574,0,0,0-2.746,5.245v9.636C441.933,259.79,443.162,260.719,444.679,259.844Z" transform="translate(-441.933 -227.131)" fill="#173d7a"/>
            <path id="Trazado_5169" data-name="Trazado 5169" d="M472.854,227.164a2.687,2.687,0,0,1,.69,2V238.8a6.574,6.574,0,0,1-2.746,5.245l-26.944,15.427a1.976,1.976,0,0,1-1.334.29,1.637,1.637,0,0,0,2.056.072l26.944-15.427a6.577,6.577,0,0,0,2.746-5.246v-9.636C474.266,228.157,473.693,227.306,472.854,227.164Z" transform="translate(-441.83 -227.125)" fill="#fff"/>
            <g id="Grupo_21827" data-name="Grupo 21827" transform="translate(10.251 11.739)">
              <path id="Trazado_5170" data-name="Trazado 5170" d="M451.256,246.918l2.472-1.426a1.437,1.437,0,0,0,.6-1.144v-2.64c0-.441-.268-.643-.6-.452l-2.472,1.428a1.433,1.433,0,0,0-.6,1.143v2.64C450.658,246.906,450.926,247.108,451.256,246.918Z" transform="translate(-450.658 -236.412)" fill="#396caa"/>
              <path id="Trazado_5171" data-name="Trazado 5171" d="M458.29,242.857l2.472-1.428a1.433,1.433,0,0,0,.6-1.143v-2.64c0-.441-.268-.643-.6-.452l-2.472,1.428a1.433,1.433,0,0,0-.6,1.143v2.64C457.692,242.845,457.96,243.047,458.29,242.857Z" transform="translate(-449.427 -237.122)" fill="#396caa"/>
            </g>
          </g>
          <g id="Grupo_21830" data-name="Grupo 21830" transform="translate(88.344 173.95)">
            <path id="Trazado_5172" data-name="Trazado 5172" d="M444.679,289.474l26.944-15.427a6.577,6.577,0,0,0,2.746-5.246v-9.635c0-2.022-1.23-2.952-2.746-2.076l-26.944,15.427a6.574,6.574,0,0,0-2.746,5.246V287.4C441.933,289.42,443.162,290.349,444.679,289.474Z" transform="translate(-441.933 -256.761)" fill="#173d7a"/>
            <path id="Trazado_5173" data-name="Trazado 5173" d="M472.854,256.794a2.687,2.687,0,0,1,.69,2v9.636a6.574,6.574,0,0,1-2.746,5.245l-26.944,15.427a1.976,1.976,0,0,1-1.334.29,1.637,1.637,0,0,0,2.056.072l26.944-15.427a6.577,6.577,0,0,0,2.746-5.246v-9.636C474.266,257.787,473.693,256.936,472.854,256.794Z" transform="translate(-441.83 -256.755)" fill="#fff"/>
            <g id="Grupo_21829" data-name="Grupo 21829" transform="translate(10.251 11.739)">
              <path id="Trazado_5174" data-name="Trazado 5174" d="M451.256,276.548l2.472-1.426a1.437,1.437,0,0,0,.6-1.144v-2.639c0-.441-.268-.644-.6-.454l-2.472,1.428a1.433,1.433,0,0,0-.6,1.143v2.64C450.658,276.536,450.926,276.738,451.256,276.548Z" transform="translate(-450.658 -266.042)" fill="#fff"/>
              <path id="Trazado_5175" data-name="Trazado 5175" d="M458.29,272.487l2.472-1.428a1.433,1.433,0,0,0,.6-1.143v-2.64c0-.441-.268-.643-.6-.452l-2.472,1.428a1.433,1.433,0,0,0-.6,1.143v2.64C457.692,272.475,457.96,272.678,458.29,272.487Z" transform="translate(-449.427 -266.752)" fill="#396caa"/>
            </g>
          </g>
          <g id="Grupo_21832" data-name="Grupo 21832" transform="translate(88.344 104.322)">
            <path id="Trazado_5176" data-name="Trazado 5176" d="M444.679,230.213l26.944-15.426a6.577,6.577,0,0,0,2.746-5.246V199.9c0-2.021-1.23-2.95-2.746-2.075l-26.944,15.427a6.574,6.574,0,0,0-2.746,5.245v9.636C441.933,230.16,443.162,231.089,444.679,230.213Z" transform="translate(-441.933 -197.501)" fill="#173d7a"/>
            <path id="Trazado_5177" data-name="Trazado 5177" d="M472.854,197.534a2.687,2.687,0,0,1,.69,2v9.636a6.574,6.574,0,0,1-2.746,5.245l-26.944,15.427a1.976,1.976,0,0,1-1.334.29,1.636,1.636,0,0,0,2.056.07l26.944-15.426a6.577,6.577,0,0,0,2.746-5.246V199.9C474.266,198.527,473.693,197.676,472.854,197.534Z" transform="translate(-441.83 -197.495)" fill="#fff"/>
            <g id="Grupo_21831" data-name="Grupo 21831" transform="translate(10.251 11.739)">
              <path id="Trazado_5178" data-name="Trazado 5178" d="M451.256,217.288l2.472-1.428a1.433,1.433,0,0,0,.6-1.143v-2.64c0-.441-.268-.643-.6-.452l-2.472,1.428a1.433,1.433,0,0,0-.6,1.143v2.64C450.658,217.276,450.926,217.478,451.256,217.288Z" transform="translate(-450.658 -206.782)" fill="#fff"/>
              <path id="Trazado_5179" data-name="Trazado 5179" d="M458.29,213.227l2.472-1.428a1.433,1.433,0,0,0,.6-1.143v-2.64c0-.441-.268-.643-.6-.452l-2.472,1.428a1.433,1.433,0,0,0-.6,1.143v2.64C457.692,213.215,457.96,213.417,458.29,213.227Z" transform="translate(-449.427 -207.492)" fill="#fff"/>
            </g>
          </g>
        </g>
        <g id="Grupo_21834" data-name="Grupo 21834" transform="translate(3.07 37.594)">
          <path id="Trazado_5180" data-name="Trazado 5180" d="M434.039,195.472l-62.163-35.89a6.035,6.035,0,0,1-2.519-4.814V142.916c0-1.855,1.128-2.708,2.519-1.9l62.163,35.89a6.031,6.031,0,0,1,2.519,4.813v11.854C436.558,195.422,435.43,196.275,434.039,195.472Z" transform="translate(-369.357 -140.709)" fill="#5793ce"/>
          <path id="Trazado_5181" data-name="Trazado 5181" d="M431.8,190.674,373.21,156.845a3.06,3.06,0,0,1-1.278-2.442v-8.912c0-.941.572-1.374,1.278-.966L431.8,178.355a3.062,3.062,0,0,1,1.278,2.442v8.912C433.082,190.65,432.51,191.082,431.8,190.674Z" transform="translate(-368.906 -140.068)" fill="#d4ecff" opacity="0.4"/>
          <path id="Trazado_5182" data-name="Trazado 5182" d="M384.9,158.421l-8.744-5.048A2.975,2.975,0,0,1,374.914,151h0c0-.914.556-1.334,1.241-.938l8.744,5.048a2.973,2.973,0,0,1,1.242,2.372h0C386.141,158.4,385.585,158.817,384.9,158.421Z" transform="translate(-368.385 -139.098)" fill="#d4ecff"/>
          <path id="Trazado_5183" data-name="Trazado 5183" d="M390.181,159.806c0,.914-.642,1.285-1.432.828a3.167,3.167,0,0,1-1.433-2.483c0-.914.642-1.284,1.433-.827A3.169,3.169,0,0,1,390.181,159.806Z" transform="translate(-366.215 -137.836)" fill="#173d7a"/>
          <path id="Trazado_5184" data-name="Trazado 5184" d="M394.485,162.291c0,.914-.642,1.284-1.433.827a3.167,3.167,0,0,1-1.433-2.482c0-.914.642-1.285,1.433-.828A3.168,3.168,0,0,1,394.485,162.291Z" transform="translate(-365.462 -137.401)" fill="#173d7a"/>
          <path id="Trazado_5185" data-name="Trazado 5185" d="M398.788,164.775c0,.914-.641,1.285-1.433.828a3.168,3.168,0,0,1-1.433-2.483c0-.914.642-1.284,1.433-.827A3.167,3.167,0,0,1,398.788,164.775Z" transform="translate(-364.71 -136.967)" fill="#d4ecff"/>
          <path id="Trazado_5186" data-name="Trazado 5186" d="M403.091,167.26c0,.914-.642,1.284-1.433.827a3.171,3.171,0,0,1-1.433-2.483c0-.913.643-1.284,1.433-.827A3.167,3.167,0,0,1,403.091,167.26Z" transform="translate(-363.957 -136.532)" fill="#173d7a"/>
          <path id="Trazado_5187" data-name="Trazado 5187" d="M421.348,180.6l-2.946-1.7a1.907,1.907,0,0,1-.8-1.522v-3.116c0-.586.356-.857.8-.6l2.946,1.7a1.905,1.905,0,0,1,.8,1.522V180C422.145,180.588,421.789,180.859,421.348,180.6Z" transform="translate(-360.916 -134.96)" fill="#173d7a"/>
        </g>
        <g id="Grupo_21835" data-name="Grupo 21835" transform="translate(3.07 58.496)">
          <path id="Trazado_5188" data-name="Trazado 5188" d="M434.039,213.262l-62.163-35.89a6.035,6.035,0,0,1-2.519-4.814V160.706c0-1.855,1.128-2.708,2.519-1.9l62.163,35.889a6.035,6.035,0,0,1,2.519,4.814v11.854C436.558,213.213,435.43,214.065,434.039,213.262Z" transform="translate(-369.357 -158.499)" fill="#5793ce"/>
          <path id="Trazado_5189" data-name="Trazado 5189" d="M431.8,208.464,373.21,174.635a3.06,3.06,0,0,1-1.278-2.442v-8.912c0-.941.572-1.374,1.278-.966L431.8,196.145a3.06,3.06,0,0,1,1.278,2.443V207.5C433.082,208.44,432.51,208.872,431.8,208.464Z" transform="translate(-368.906 -157.858)" fill="#d4ecff" opacity="0.4"/>
          <path id="Trazado_5190" data-name="Trazado 5190" d="M384.9,176.211l-8.744-5.049a2.971,2.971,0,0,1-1.241-2.371h0c0-.914.556-1.334,1.241-.938L384.9,172.9a2.973,2.973,0,0,1,1.242,2.372h0C386.141,176.187,385.585,176.607,384.9,176.211Z" transform="translate(-368.385 -156.888)" fill="#d4ecff"/>
          <path id="Trazado_5191" data-name="Trazado 5191" d="M390.181,177.6c0,.913-.642,1.284-1.432.827a3.167,3.167,0,0,1-1.433-2.483c0-.914.642-1.284,1.433-.827A3.169,3.169,0,0,1,390.181,177.6Z" transform="translate(-366.215 -155.626)" fill="#fff"/>
          <path id="Trazado_5192" data-name="Trazado 5192" d="M394.485,180.081c0,.914-.642,1.284-1.433.827a3.168,3.168,0,0,1-1.433-2.483c0-.913.642-1.284,1.433-.827A3.168,3.168,0,0,1,394.485,180.081Z" transform="translate(-365.462 -155.191)" fill="#173d7a"/>
          <path id="Trazado_5193" data-name="Trazado 5193" d="M398.788,182.565c0,.914-.641,1.285-1.433.828a3.168,3.168,0,0,1-1.433-2.483c0-.914.642-1.284,1.433-.827A3.167,3.167,0,0,1,398.788,182.565Z" transform="translate(-364.71 -154.757)" fill="#d4ecff"/>
          <path id="Trazado_5194" data-name="Trazado 5194" d="M403.091,185.05c0,.914-.642,1.284-1.433.827a3.171,3.171,0,0,1-1.433-2.483c0-.914.643-1.284,1.433-.827A3.167,3.167,0,0,1,403.091,185.05Z" transform="translate(-363.957 -154.322)" fill="#173d7a"/>
          <path id="Trazado_5195" data-name="Trazado 5195" d="M421.348,198.395l-2.946-1.7a1.907,1.907,0,0,1-.8-1.522v-3.116c0-.587.356-.857.8-.6l2.946,1.7a1.905,1.905,0,0,1,.8,1.522v3.116C422.145,198.378,421.789,198.649,421.348,198.395Z" transform="translate(-360.916 -152.75)" fill="#173d7a"/>
        </g>
        <g id="Grupo_21836" data-name="Grupo 21836" transform="translate(3.07 79.399)">
          <path id="Trazado_5196" data-name="Trazado 5196" d="M434.039,231.051l-62.163-35.889a6.035,6.035,0,0,1-2.519-4.814V178.5c0-1.855,1.128-2.708,2.519-1.9l62.163,35.889a6.035,6.035,0,0,1,2.519,4.814v11.853C436.558,231,435.43,231.855,434.039,231.051Z" transform="translate(-369.357 -176.289)" fill="#5793ce"/>
          <path id="Trazado_5197" data-name="Trazado 5197" d="M431.8,226.254,373.21,192.425a3.06,3.06,0,0,1-1.278-2.442v-8.912c0-.941.572-1.374,1.278-.966L431.8,213.935a3.06,3.06,0,0,1,1.278,2.442v8.912C433.082,226.23,432.51,226.662,431.8,226.254Z" transform="translate(-368.906 -175.648)" fill="#d4ecff" opacity="0.4"/>
          <path id="Trazado_5198" data-name="Trazado 5198" d="M384.9,194l-8.744-5.049a2.971,2.971,0,0,1-1.241-2.371h0c0-.914.556-1.334,1.241-.938l8.744,5.048a2.973,2.973,0,0,1,1.242,2.372h0C386.141,193.976,385.585,194.4,384.9,194Z" transform="translate(-368.385 -174.678)" fill="#d4ecff"/>
          <path id="Trazado_5199" data-name="Trazado 5199" d="M390.181,195.386c0,.914-.642,1.285-1.432.828a3.168,3.168,0,0,1-1.433-2.483c0-.914.642-1.284,1.433-.827A3.169,3.169,0,0,1,390.181,195.386Z" transform="translate(-366.215 -173.416)" fill="#fff"/>
          <path id="Trazado_5200" data-name="Trazado 5200" d="M394.485,197.871c0,.914-.642,1.284-1.433.827a3.167,3.167,0,0,1-1.433-2.483c0-.914.642-1.284,1.433-.827A3.168,3.168,0,0,1,394.485,197.871Z" transform="translate(-365.462 -172.981)" fill="#173d7a"/>
          <path id="Trazado_5201" data-name="Trazado 5201" d="M398.788,200.355c0,.914-.641,1.285-1.433.827a3.164,3.164,0,0,1-1.433-2.482c0-.914.642-1.284,1.433-.827A3.165,3.165,0,0,1,398.788,200.355Z" transform="translate(-364.71 -172.547)" fill="#d4ecff"/>
          <path id="Trazado_5202" data-name="Trazado 5202" d="M403.091,202.84c0,.914-.642,1.284-1.433.827a3.171,3.171,0,0,1-1.433-2.483c0-.914.643-1.284,1.433-.827A3.167,3.167,0,0,1,403.091,202.84Z" transform="translate(-363.957 -172.112)" fill="#173d7a"/>
          <path id="Trazado_5203" data-name="Trazado 5203" d="M421.348,216.185l-2.946-1.7a1.907,1.907,0,0,1-.8-1.522v-3.116c0-.586.356-.857.8-.6l2.946,1.7a1.909,1.909,0,0,1,.8,1.523v3.116C422.145,216.168,421.789,216.439,421.348,216.185Z" transform="translate(-360.916 -170.54)" fill="#173d7a"/>
        </g>
        <g id="Grupo_21837" data-name="Grupo 21837" transform="translate(3.07 100.301)">
          <path id="Trazado_5204" data-name="Trazado 5204" d="M434.039,248.841l-62.163-35.889a6.035,6.035,0,0,1-2.519-4.814V196.286c0-1.855,1.128-2.708,2.519-1.9l62.163,35.889a6.035,6.035,0,0,1,2.519,4.814v11.853C436.558,248.792,435.43,249.645,434.039,248.841Z" transform="translate(-369.357 -194.079)" fill="#5793ce"/>
          <path id="Trazado_5205" data-name="Trazado 5205" d="M431.8,244.044,373.21,210.215a3.06,3.06,0,0,1-1.278-2.442v-8.912c0-.941.572-1.374,1.278-.966L431.8,231.725a3.06,3.06,0,0,1,1.278,2.442v8.912C433.082,244.02,432.51,244.452,431.8,244.044Z" transform="translate(-368.906 -193.438)" fill="#d4ecff" opacity="0.4"/>
          <path id="Trazado_5206" data-name="Trazado 5206" d="M384.9,211.791l-8.744-5.049a2.973,2.973,0,0,1-1.241-2.371h0c0-.914.556-1.334,1.241-.939l8.744,5.049a2.973,2.973,0,0,1,1.242,2.372h0C386.141,211.766,385.585,212.187,384.9,211.791Z" transform="translate(-368.385 -192.468)" fill="#d4ecff"/>
          <path id="Trazado_5207" data-name="Trazado 5207" d="M390.181,213.176c0,.914-.642,1.285-1.432.828a3.167,3.167,0,0,1-1.433-2.483c0-.914.642-1.284,1.433-.827A3.167,3.167,0,0,1,390.181,213.176Z" transform="translate(-366.215 -191.206)" fill="#173d7a"/>
          <path id="Trazado_5208" data-name="Trazado 5208" d="M394.485,215.661c0,.914-.642,1.284-1.433.827a3.168,3.168,0,0,1-1.433-2.483c0-.914.642-1.284,1.433-.827A3.168,3.168,0,0,1,394.485,215.661Z" transform="translate(-365.462 -190.771)" fill="#173d7a"/>
          <path id="Trazado_5209" data-name="Trazado 5209" d="M398.788,218.145c0,.914-.641,1.284-1.433.827a3.165,3.165,0,0,1-1.433-2.481c0-.914.642-1.284,1.433-.828A3.168,3.168,0,0,1,398.788,218.145Z" transform="translate(-364.71 -190.337)" fill="#d4ecff"/>
          <path id="Trazado_5210" data-name="Trazado 5210" d="M403.091,220.63c0,.914-.642,1.284-1.433.827a3.171,3.171,0,0,1-1.433-2.483c0-.914.643-1.284,1.433-.827A3.168,3.168,0,0,1,403.091,220.63Z" transform="translate(-363.957 -189.902)" fill="#173d7a"/>
          <path id="Trazado_5211" data-name="Trazado 5211" d="M421.348,233.975l-2.946-1.7a1.907,1.907,0,0,1-.8-1.522v-3.116c0-.587.356-.857.8-.6l2.946,1.7a1.909,1.909,0,0,1,.8,1.523v3.116C422.145,233.958,421.789,234.229,421.348,233.975Z" transform="translate(-360.916 -188.33)" fill="#d4ecff"/>
        </g>
        <g id="Grupo_21838" data-name="Grupo 21838" transform="translate(3.07 121.204)">
          <path id="Trazado_5212" data-name="Trazado 5212" d="M434.039,266.631l-62.163-35.889a6.035,6.035,0,0,1-2.519-4.814V214.074c0-1.854,1.128-2.707,2.519-1.9l62.163,35.889a6.035,6.035,0,0,1,2.519,4.814v11.853C436.558,266.582,435.43,267.435,434.039,266.631Z" transform="translate(-369.357 -211.869)" fill="#5793ce"/>
          <path id="Trazado_5213" data-name="Trazado 5213" d="M431.8,261.834,373.21,228.005a3.06,3.06,0,0,1-1.278-2.442v-8.912c0-.941.572-1.374,1.278-.966L431.8,249.515a3.06,3.06,0,0,1,1.278,2.442v8.912C433.082,261.81,432.51,262.242,431.8,261.834Z" transform="translate(-368.906 -211.228)" fill="#d4ecff" opacity="0.4"/>
          <path id="Trazado_5214" data-name="Trazado 5214" d="M384.9,229.581l-8.744-5.049a2.973,2.973,0,0,1-1.241-2.371h0c0-.914.556-1.335,1.241-.939l8.744,5.049a2.973,2.973,0,0,1,1.242,2.372h0C386.141,229.556,385.585,229.977,384.9,229.581Z" transform="translate(-368.385 -210.258)" fill="#d4ecff"/>
          <path id="Trazado_5215" data-name="Trazado 5215" d="M390.181,230.966c0,.914-.642,1.284-1.432.827a3.164,3.164,0,0,1-1.433-2.482c0-.914.642-1.284,1.433-.827A3.166,3.166,0,0,1,390.181,230.966Z" transform="translate(-366.215 -208.996)" fill="#173d7a"/>
          <path id="Trazado_5216" data-name="Trazado 5216" d="M394.485,233.451c0,.914-.642,1.284-1.433.827a3.167,3.167,0,0,1-1.433-2.483c0-.914.642-1.284,1.433-.827A3.168,3.168,0,0,1,394.485,233.451Z" transform="translate(-365.462 -208.561)" fill="#fff"/>
          <path id="Trazado_5217" data-name="Trazado 5217" d="M398.788,235.935c0,.914-.641,1.284-1.433.827a3.164,3.164,0,0,1-1.433-2.481c0-.914.642-1.285,1.433-.827A3.164,3.164,0,0,1,398.788,235.935Z" transform="translate(-364.71 -208.127)" fill="#d4ecff"/>
          <path id="Trazado_5218" data-name="Trazado 5218" d="M403.091,238.42c0,.914-.642,1.284-1.433.827a3.171,3.171,0,0,1-1.433-2.483c0-.914.643-1.284,1.433-.827A3.167,3.167,0,0,1,403.091,238.42Z" transform="translate(-363.957 -207.692)" fill="#fff"/>
          <path id="Trazado_5219" data-name="Trazado 5219" d="M421.348,251.765l-2.946-1.7a1.907,1.907,0,0,1-.8-1.522v-3.116c0-.587.356-.857.8-.6l2.946,1.7a1.906,1.906,0,0,1,.8,1.523v3.116C422.145,251.748,421.789,252.019,421.348,251.765Z" transform="translate(-360.916 -206.12)" fill="#d4ecff"/>
        </g>
        <g id="Grupo_21839" data-name="Grupo 21839" transform="translate(3.07 142.105)">
          <path id="Trazado_5220" data-name="Trazado 5220" d="M434.039,284.421l-62.163-35.889a6.035,6.035,0,0,1-2.519-4.814V231.865c0-1.854,1.128-2.707,2.519-1.9l62.163,35.89a6.035,6.035,0,0,1,2.519,4.814v11.853C436.558,284.372,435.43,285.225,434.039,284.421Z" transform="translate(-369.357 -229.658)" fill="#5793ce"/>
          <path id="Trazado_5221" data-name="Trazado 5221" d="M431.8,279.624,373.21,245.8a3.06,3.06,0,0,1-1.278-2.442v-8.912c0-.941.572-1.374,1.278-.966L431.8,267.305a3.06,3.06,0,0,1,1.278,2.442v8.912C433.082,279.6,432.51,280.032,431.8,279.624Z" transform="translate(-368.906 -229.017)" fill="#d4ecff" opacity="0.4"/>
          <path id="Trazado_5222" data-name="Trazado 5222" d="M384.9,247.371l-8.744-5.049a2.973,2.973,0,0,1-1.241-2.371h0c0-.914.556-1.334,1.241-.939l8.744,5.049a2.973,2.973,0,0,1,1.242,2.372h0C386.141,247.346,385.585,247.767,384.9,247.371Z" transform="translate(-368.385 -228.048)" fill="#d4ecff"/>
          <path id="Trazado_5223" data-name="Trazado 5223" d="M390.181,248.756c0,.914-.642,1.284-1.432.827a3.164,3.164,0,0,1-1.433-2.482c0-.914.642-1.284,1.433-.827A3.166,3.166,0,0,1,390.181,248.756Z" transform="translate(-366.215 -226.785)" fill="#173d7a"/>
          <path id="Trazado_5224" data-name="Trazado 5224" d="M394.485,251.241c0,.914-.642,1.284-1.433.827a3.168,3.168,0,0,1-1.433-2.483c0-.914.642-1.284,1.433-.827A3.168,3.168,0,0,1,394.485,251.241Z" transform="translate(-365.462 -226.351)" fill="#173d7a"/>
          <path id="Trazado_5225" data-name="Trazado 5225" d="M398.788,253.725c0,.914-.641,1.284-1.433.827a3.167,3.167,0,0,1-1.433-2.482c0-.914.642-1.284,1.433-.828A3.167,3.167,0,0,1,398.788,253.725Z" transform="translate(-364.71 -225.916)" fill="#d4ecff"/>
          <path id="Trazado_5226" data-name="Trazado 5226" d="M403.091,256.21c0,.913-.642,1.284-1.433.827a3.171,3.171,0,0,1-1.433-2.483c0-.914.643-1.284,1.433-.827A3.168,3.168,0,0,1,403.091,256.21Z" transform="translate(-363.957 -225.481)" fill="#173d7a"/>
          <path id="Trazado_5227" data-name="Trazado 5227" d="M421.348,269.554l-2.946-1.7a1.907,1.907,0,0,1-.8-1.522v-3.117c0-.586.356-.855.8-.6l2.946,1.7a1.907,1.907,0,0,1,.8,1.523v3.116C422.145,269.538,421.789,269.809,421.348,269.554Z" transform="translate(-360.916 -223.909)" fill="#173d7a"/>
        </g>
        <g id="Grupo_21840" data-name="Grupo 21840" transform="translate(3.07 163.008)">
          <path id="Trazado_5228" data-name="Trazado 5228" d="M434.039,302.211l-62.163-35.889a6.035,6.035,0,0,1-2.519-4.814V249.655c0-1.855,1.128-2.707,2.519-1.9l62.163,35.89a6.035,6.035,0,0,1,2.519,4.814v11.853C436.558,302.162,435.43,303.015,434.039,302.211Z" transform="translate(-369.357 -247.448)" fill="#5793ce"/>
          <path id="Trazado_5229" data-name="Trazado 5229" d="M431.8,297.414,373.21,263.585a3.062,3.062,0,0,1-1.278-2.443v-8.911c0-.941.572-1.374,1.278-.966L431.8,285.1a3.058,3.058,0,0,1,1.278,2.442v8.912C433.082,297.39,432.51,297.822,431.8,297.414Z" transform="translate(-368.906 -246.807)" fill="#d4ecff" opacity="0.4"/>
          <path id="Trazado_5230" data-name="Trazado 5230" d="M384.9,265.161l-8.744-5.049a2.973,2.973,0,0,1-1.241-2.371h0c0-.914.556-1.335,1.241-.939l8.744,5.049a2.972,2.972,0,0,1,1.242,2.371h0C386.141,265.136,385.585,265.557,384.9,265.161Z" transform="translate(-368.385 -245.838)" fill="#d4ecff"/>
          <path id="Trazado_5231" data-name="Trazado 5231" d="M390.181,266.546c0,.914-.642,1.284-1.432.827a3.165,3.165,0,0,1-1.433-2.481c0-.914.642-1.284,1.433-.828A3.169,3.169,0,0,1,390.181,266.546Z" transform="translate(-366.215 -244.575)" fill="#fff"/>
          <path id="Trazado_5232" data-name="Trazado 5232" d="M394.485,269.031c0,.913-.642,1.284-1.433.827a3.168,3.168,0,0,1-1.433-2.483c0-.914.642-1.284,1.433-.827A3.168,3.168,0,0,1,394.485,269.031Z" transform="translate(-365.462 -244.141)" fill="#173d7a"/>
          <path id="Trazado_5233" data-name="Trazado 5233" d="M398.788,271.515c0,.914-.641,1.284-1.433.827a3.167,3.167,0,0,1-1.433-2.482c0-.914.642-1.285,1.433-.828A3.167,3.167,0,0,1,398.788,271.515Z" transform="translate(-364.71 -243.706)" fill="#d4ecff"/>
          <path id="Trazado_5234" data-name="Trazado 5234" d="M403.091,274c0,.913-.642,1.284-1.433.827a3.171,3.171,0,0,1-1.433-2.483c0-.914.643-1.284,1.433-.827A3.168,3.168,0,0,1,403.091,274Z" transform="translate(-363.957 -243.271)" fill="#173d7a"/>
          <path id="Trazado_5235" data-name="Trazado 5235" d="M421.348,287.344l-2.946-1.7a1.907,1.907,0,0,1-.8-1.522V281c0-.586.356-.855.8-.6l2.946,1.7a1.906,1.906,0,0,1,.8,1.523v3.116C422.145,287.328,421.789,287.6,421.348,287.344Z" transform="translate(-360.916 -241.699)" fill="#d4ecff"/>
        </g>
      </g>
      <g id="Grupo_21845" data-name="Grupo 21845" transform="translate(429.394 88.653)">
        <path id="Trazado_5236" data-name="Trazado 5236" d="M409.159,138.044a.938.938,0,0,1-.938-.939V98.464a.938.938,0,1,1,1.876,0v38.642A.938.938,0,0,1,409.159,138.044Z" transform="translate(-403.719 -75.843)" fill="#5793ce"/>
        <g id="Grupo_21844" data-name="Grupo 21844">
          <g id="Grupo_21842" data-name="Grupo 21842" transform="translate(2.082 20.191)">
            <rect id="Rectángulo_5291" data-name="Rectángulo 5291" width="6.713" height="14.487" transform="translate(0)" fill="#5793ce"/>
            <path id="Trazado_5237" data-name="Trazado 5237" d="M411.892,110.245a5.247,5.247,0,0,1-4.747,0c-1.311-.757-1.311-1.984,0-2.741a5.247,5.247,0,0,1,4.747,0C413.2,108.261,413.2,109.488,411.892,110.245Z" transform="translate(-406.162 -94.387)" fill="#5793ce"/>
          </g>
          <g id="Grupo_21843" data-name="Grupo 21843">
            <rect id="Rectángulo_5292" data-name="Rectángulo 5292" width="10.879" height="22.722" fill="#5793ce"/>
            <path id="Trazado_5238" data-name="Trazado 5238" d="M406.162,98.384v4.9a8.684,8.684,0,0,0,6.714,0v-4.9A8.685,8.685,0,0,0,406.162,98.384Z" transform="translate(-404.08 -75.811)" fill="#396caa"/>
            <path id="Trazado_5239" data-name="Trazado 5239" d="M413.676,101.1a8.5,8.5,0,0,1-7.692,0c-2.124-1.227-2.124-3.215,0-4.441a8.5,8.5,0,0,1,7.691,0C415.8,97.884,415.8,99.872,413.676,101.1Z" transform="translate(-404.39 -76.156)" fill="#5793ce"/>
          </g>
        </g>
      </g>
      <g id="Grupo_21849" data-name="Grupo 21849" transform="translate(438.568 94.131)">
        <path id="Trazado_5240" data-name="Trazado 5240" d="M416.967,142.706a.939.939,0,0,1-.939-.939V103.126a.939.939,0,0,1,1.878,0v38.642A.938.938,0,0,1,416.967,142.706Z" transform="translate(-411.528 -80.506)" fill="#5793ce"/>
        <g id="Grupo_21848" data-name="Grupo 21848" transform="translate(0 0)">
          <g id="Grupo_21846" data-name="Grupo 21846" transform="translate(2.082 20.191)">
            <rect id="Rectángulo_5293" data-name="Rectángulo 5293" width="6.713" height="14.487" transform="translate(0)" fill="#5793ce"/>
            <path id="Trazado_5241" data-name="Trazado 5241" d="M419.7,114.906a5.239,5.239,0,0,1-4.747,0c-1.311-.757-1.311-1.983,0-2.74a5.247,5.247,0,0,1,4.747,0C421.012,112.923,421.012,114.15,419.7,114.906Z" transform="translate(-413.97 -99.05)" fill="#5793ce"/>
          </g>
          <g id="Grupo_21847" data-name="Grupo 21847">
            <rect id="Rectángulo_5294" data-name="Rectángulo 5294" width="10.879" height="22.721" fill="#5793ce"/>
            <path id="Trazado_5242" data-name="Trazado 5242" d="M413.97,103.047v4.9a8.684,8.684,0,0,0,6.714,0v-4.9A8.684,8.684,0,0,0,413.97,103.047Z" transform="translate(-411.888 -80.473)" fill="#396caa"/>
            <path id="Trazado_5243" data-name="Trazado 5243" d="M421.484,105.76a8.5,8.5,0,0,1-7.693,0c-2.124-1.227-2.124-3.215,0-4.441a8.507,8.507,0,0,1,7.693,0C423.607,102.545,423.608,104.534,421.484,105.76Z" transform="translate(-412.198 -80.818)" fill="#5793ce"/>
          </g>
        </g>
      </g>
      <g id="Grupo_21853" data-name="Grupo 21853" transform="translate(447.743 99.609)">
        <path id="Trazado_5244" data-name="Trazado 5244" d="M424.776,147.369a.938.938,0,0,1-.939-.939V107.789a.939.939,0,0,1,1.878,0V146.43A.938.938,0,0,1,424.776,147.369Z" transform="translate(-419.336 -85.168)" fill="#5793ce"/>
        <g id="Grupo_21852" data-name="Grupo 21852" transform="translate(0 0)">
          <g id="Grupo_21850" data-name="Grupo 21850" transform="translate(2.082 20.191)">
            <rect id="Rectángulo_5295" data-name="Rectángulo 5295" width="6.713" height="14.487" transform="translate(0.001)" fill="#5793ce"/>
            <path id="Trazado_5245" data-name="Trazado 5245" d="M427.508,119.57a5.247,5.247,0,0,1-4.747,0c-1.311-.757-1.311-1.984,0-2.741a5.247,5.247,0,0,1,4.747,0C428.819,117.585,428.819,118.813,427.508,119.57Z" transform="translate(-421.778 -103.712)" fill="#5793ce"/>
          </g>
          <g id="Grupo_21851" data-name="Grupo 21851">
            <rect id="Rectángulo_5296" data-name="Rectángulo 5296" width="10.879" height="22.721" fill="#5793ce"/>
            <path id="Trazado_5246" data-name="Trazado 5246" d="M421.778,107.709v4.9a8.684,8.684,0,0,0,6.714,0v-4.9A8.684,8.684,0,0,0,421.778,107.709Z" transform="translate(-419.696 -85.136)" fill="#396caa"/>
            <path id="Trazado_5247" data-name="Trazado 5247" d="M429.292,110.423a8.507,8.507,0,0,1-7.692,0c-2.124-1.227-2.124-3.215,0-4.441a8.5,8.5,0,0,1,7.692,0C431.416,107.209,431.416,109.2,429.292,110.423Z" transform="translate(-420.006 -85.481)" fill="#5793ce"/>
          </g>
        </g>
      </g>
      <g id="Grupo_21857" data-name="Grupo 21857" transform="translate(456.917 105.087)">
        <path id="Trazado_5248" data-name="Trazado 5248" d="M432.583,152.031a.938.938,0,0,1-.939-.939V112.451a.939.939,0,0,1,1.878,0v38.642A.938.938,0,0,1,432.583,152.031Z" transform="translate(-427.144 -89.83)" fill="#5793ce"/>
        <g id="Grupo_21856" data-name="Grupo 21856">
          <g id="Grupo_21854" data-name="Grupo 21854" transform="translate(2.083 20.191)">
            <rect id="Rectángulo_5297" data-name="Rectángulo 5297" width="6.713" height="14.487" fill="#5793ce"/>
            <path id="Trazado_5249" data-name="Trazado 5249" d="M435.316,124.232a5.247,5.247,0,0,1-4.747,0c-1.31-.757-1.31-1.983,0-2.74a5.24,5.24,0,0,1,4.747,0C436.627,122.248,436.627,123.475,435.316,124.232Z" transform="translate(-429.586 -108.375)" fill="#5793ce"/>
          </g>
          <g id="Grupo_21855" data-name="Grupo 21855">
            <rect id="Rectángulo_5298" data-name="Rectángulo 5298" width="10.879" height="22.722" fill="#5793ce"/>
            <path id="Trazado_5250" data-name="Trazado 5250" d="M429.586,112.371v4.9a8.684,8.684,0,0,0,6.714,0v-4.9A8.7,8.7,0,0,0,429.586,112.371Z" transform="translate(-427.504 -89.798)" fill="#396caa"/>
            <path id="Trazado_5251" data-name="Trazado 5251" d="M437.1,115.085a8.5,8.5,0,0,1-7.692,0c-2.124-1.227-2.124-3.215,0-4.441a8.5,8.5,0,0,1,7.692,0C439.224,111.871,439.224,113.859,437.1,115.085Z" transform="translate(-427.814 -90.143)" fill="#5793ce"/>
          </g>
        </g>
      </g>
      <g id="Grupo_21864" data-name="Grupo 21864" transform="translate(393.131 24.307)">
        <g id="Grupo_21860" data-name="Grupo 21860">
          <path id="Trazado_5252" data-name="Trazado 5252" d="M469.172,132.275l14.586-8.591-13.891-17.337-3.652,5.967Z" transform="translate(-357.31 -9.954)" fill="#5793ce"/>
          <path id="Trazado_5253" data-name="Trazado 5253" d="M378.592,49.423,401.871,36.03S401,49.4,401,49.423s-13.373,4.143-13.373,4.143Z" transform="translate(-372.64 -22.257)" fill="#5793ce"/>
          <path id="Trazado_5254" data-name="Trazado 5254" d="M485.981,103.031a14.678,14.678,0,0,0-5.037-1.866C478.6,88.829,470.014,75.73,459.78,69.821a20.717,20.717,0,0,0-8.661-2.93c-1.4-14.951-11.793-31.943-24.418-39.232-6.594-3.807-12.577-4.257-16.992-1.926v-.012l-.214.123c-.113.062-.224.127-.336.193l-13.727,8.107,4.561,3.6c-4.095,1.789-6.682,6.382-6.682,13.17,0,12.518,8.789,27.739,19.629,34l73.04,52.155c8.14,4.7,14.74.891,14.74-8.509S494.122,107.731,485.981,103.031Z" transform="translate(-370.064 -24.307)" fill="#5793ce"/>
          <path id="Trazado_5255" data-name="Trazado 5255" d="M393.89,45.406,425.4,27c-6.116-3.19-11.643-3.453-15.787-1.264v-.012l-.214.123c-.113.062-.224.127-.336.193l-13.727,8.107,4.561,3.6C397.032,39,394.91,41.623,393.89,45.406Z" transform="translate(-369.963 -24.307)" fill="#5793ce"/>
          <path id="Trazado_5256" data-name="Trazado 5256" d="M446.982,92.962,469.97,79.472c-3.943-6.819-9.371-12.776-15.383-16.247q-1.193-.689-2.355-1.211l-29.239,17.1Z" transform="translate(-364.871 -17.711)" fill="#5793ce"/>
          <path id="Trazado_5257" data-name="Trazado 5257" d="M400.631,35.562l10.244,5.915,18.762-11.05a37.327,37.327,0,0,0-4.216-2.856,26.321,26.321,0,0,0-6.556-2.754Z" transform="translate(-368.784 -24.219)" fill="#d4ecff"/>
          <path id="Trazado_5258" data-name="Trazado 5258" d="M463.549,73.494,445.2,84.3l6.382,7.118,16.655-9.834A53.377,53.377,0,0,0,463.549,73.494Z" transform="translate(-360.986 -15.702)" fill="#d4ecff"/>
          <path id="Trazado_5259" data-name="Trazado 5259" d="M475.031,110.258a14.657,14.657,0,0,0-5.037-1.867c-2.348-12.336-10.931-25.435-21.164-31.343a20.721,20.721,0,0,0-8.661-2.932c-1.4-14.951-11.793-31.942-24.418-39.232C402.176,27.047,391.17,33.4,391.17,49.077c0,.531.015,1.068.04,1.607-9.928-4.6-17.684.583-17.684,12.343,0,12.518,8.787,27.739,19.629,34L475.031,144.3c8.14,4.7,14.74.891,14.74-8.509S483.171,114.958,475.031,110.258Z" transform="translate(-373.526 -23.044)" fill="#d4ecff"/>
          <g id="Grupo_21858" data-name="Grupo 21858" transform="translate(4.489 7.316)">
            <path id="Trazado_5260" data-name="Trazado 5260" d="M390.542,48.251c-.025-.539-.04-1.076-.04-1.607,0-.022,0-.045,0-.067-5.485-2.133-10.2-1.2-13.156,2.218C380.56,46.15,385.233,45.788,390.542,48.251Z" transform="translate(-377.347 -27.927)" fill="#fff"/>
            <path id="Trazado_5261" data-name="Trazado 5261" d="M472.792,109.263a14.677,14.677,0,0,0-5.037-1.866c-2.346-12.336-10.931-25.435-21.164-31.344a20.712,20.712,0,0,0-8.661-2.93c-1.4-14.951-11.793-31.943-24.417-39.232-8.458-4.883-15.918-4.256-20.341.7,4.506-3.85,11.4-4,19.141.469,12.625,7.287,23.02,24.279,24.418,39.23a20.734,20.734,0,0,1,8.661,2.93c10.234,5.909,18.817,19.008,21.164,31.344a14.657,14.657,0,0,1,5.037,1.867c8.14,4.7,14.74,16.13,14.74,25.529a12.141,12.141,0,0,1-2.351,7.842c2.208-1.7,3.55-4.784,3.55-9.01C487.532,125.394,480.932,113.963,472.792,109.263Z" transform="translate(-374.578 -30.534)" fill="#fff"/>
          </g>
          <g id="Grupo_21859" data-name="Grupo 21859" transform="translate(4.115 12.589)">
            <path id="Trazado_5262" data-name="Trazado 5262" d="M388.866,53.806l6.156,2.854-.314-6.776c-.022-.476-.035-.949-.035-1.418,0-6.05,1.826-10.435,5.142-12.35s8.03-1.3,13.268,1.721c11.267,6.506,21.1,22.341,22.377,36.051l.323,3.454,3.459.266A16.646,16.646,0,0,1,446.16,80c8.948,5.166,17.014,17.173,19.179,28.548l.542,2.848,2.863.448a10.652,10.652,0,0,1,3.618,1.366c6.873,3.969,12.682,14.028,12.682,21.966,0,2.97-.825,5.15-2.261,5.979s-3.734.452-6.307-1.033L394.6,92.851c-9.524-5.5-17.571-19.436-17.571-30.435,0-4.316,1.272-7.6,3.492-9.021a5.974,5.974,0,0,1,3.263-.873A12.3,12.3,0,0,1,388.866,53.806Z" transform="translate(-377.028 -35.022)" fill="#396caa"/>
          </g>
        </g>
        <g id="Grupo_21863" data-name="Grupo 21863" transform="translate(38.96 52.374)">
          <path id="Trazado_5263" data-name="Trazado 5263" d="M421.882,95.085,424.042,94l-2.126-1.611Z" transform="translate(-404.026 -64.77)" fill="#5793ce"/>
          <path id="Trazado_5264" data-name="Trazado 5264" d="M416.362,70.009l2.1-1.06.038,1.1Z" transform="translate(-404.992 -68.871)" fill="#5793ce"/>
          <path id="Trazado_5265" data-name="Trazado 5265" d="M427.428,89.639l2.188-1.1L425.4,84.533Z" transform="translate(-403.41 -66.145)" fill="#5793ce"/>
          <g id="Grupo_21861" data-name="Grupo 21861" transform="translate(2.192)">
            <path id="Trazado_5266" data-name="Trazado 5266" d="M424.845,96.617l-10.227-6.022a2.184,2.184,0,0,1-.936-1.72l.034-11.839,12.106,7.13L425.787,96C425.786,96.648,425.363,96.923,424.845,96.617Z" transform="translate(-407.653 -67.456)" fill="#5793ce"/>
            <path id="Trazado_5267" data-name="Trazado 5267" d="M419.8,68.974l-11.045,7.107c-.469.3-.091,1.425.622,1.845l11.28,6.643,11.28,6.643c.712.419,1.1-.256.631-1.108L421.6,70.033C421.128,69.166,420.279,68.667,419.8,68.974Z" transform="translate(-408.551 -68.883)" fill="#5793ce"/>
          </g>
          <g id="Grupo_21862" data-name="Grupo 21862" transform="translate(0 1.104)">
            <path id="Trazado_5268" data-name="Trazado 5268" d="M422.978,97.557l-10.226-6.023a2.176,2.176,0,0,1-.936-1.719l.034-11.839,12.1,7.13-.033,11.839C423.919,97.588,423.5,97.862,422.978,97.557Z" transform="translate(-405.787 -68.396)" fill="#d4ecff"/>
            <path id="Trazado_5269" data-name="Trazado 5269" d="M417.935,69.914,406.892,77.02c-.469.3-.09,1.426.622,1.846l11.28,6.643,11.28,6.643c.712.419,1.1-.256.63-1.108L419.735,70.973C419.262,70.106,418.413,69.607,417.935,69.914Z" transform="translate(-406.685 -69.823)" fill="#d4ecff"/>
          </g>
        </g>
      </g>
      <path id="Trazado_5270" data-name="Trazado 5270" d="M452.939,289.546h-1.253V219.557l8.265-4.772V180.333H461.2v35.175l-8.265,4.772Z" transform="translate(33.279 27.297)" fill="#fff"/>
      <g id="Grupo_21865" data-name="Grupo 21865" transform="translate(261.467 280.298)">
        <path id="Trazado_5271" data-name="Trazado 5271" d="M287.534,293.846a4.294,4.294,0,0,1-2.117-.56L262.58,280.354a2.193,2.193,0,0,1-.019-3.806L319.526,243.6a10.618,10.618,0,0,1,10.6,0l65.11,37.631-.94,1.627-65.109-37.631a8.742,8.742,0,0,0-8.717,0L263.5,278.173a.315.315,0,0,0,0,.546l22.839,12.932a2.406,2.406,0,0,0,2.5-.073l9.65-6.24,1.02,1.577-9.651,6.24A4.287,4.287,0,0,1,287.534,293.846Z" transform="translate(-261.467 -242.18)" fill="#b2d3ea"/>
      </g>
      <g id="Grupo_21876" data-name="Grupo 21876" transform="translate(276.376 220.557)">
        <path id="Trazado_5272" data-name="Trazado 5272" d="M313.723,296.38l-30.7-17.724c-1.885-1.088-1.647-2.988.528-4.244L313.194,257.3a8.172,8.172,0,0,1,7.352-.3l30.7,17.724c1.885,1.088,1.648,2.989-.528,4.245l-29.643,17.114A8.172,8.172,0,0,1,313.723,296.38Z" transform="translate(-272.827 -179.977)" fill="#b2d3ea"/>
        <g id="Grupo_21867" data-name="Grupo 21867" transform="translate(0 42.395)">
          <path id="Trazado_5273" data-name="Trazado 5273" d="M362.757,263.476h0V250.212l-29.743-.016-10.281-5.936c-2.359-1.362-6.481-1.191-9.2.382l-9.592,5.538-29.77-.016v13.642a2.667,2.667,0,0,0,1.582,2.465l38.442,22.2c2.359,1.362,6.481,1.191,9.206-.382l37.119-21.431C362.087,265.746,362.845,264.57,362.757,263.476Z" transform="translate(-274.155 -224.632)" fill="#396caa"/>
          <path id="Trazado_5274" data-name="Trazado 5274" d="M318.463,243.347a10.608,10.608,0,0,0-4.934,1.294l-9.592,5.538-29.77-.016V263.8a2.667,2.667,0,0,0,1.582,2.465l38.442,22.2a8.323,8.323,0,0,0,4.272.912Z" transform="translate(-274.155 -224.631)" fill="#396caa"/>
          <path id="Trazado_5275" data-name="Trazado 5275" d="M277.537,249.149l-3.37,0v13.642a2.667,2.667,0,0,0,1.582,2.465l1.788,1.033Z" transform="translate(-274.155 -223.616)" fill="#5793ce"/>
          <path id="Trazado_5276" data-name="Trazado 5276" d="M308.734,284.313a10.491,10.491,0,0,0,7.359-.085V268.739h-7.359Z" transform="translate(-268.107 -220.188)" fill="#5793ce"/>
          <path id="Trazado_5277" data-name="Trazado 5277" d="M314.191,277.659l-38.442-22.195c-2.359-1.362-2.064-3.741.66-5.314l37.12-21.431c2.724-1.573,6.845-1.744,9.2-.382l38.443,22.195c2.359,1.363,2.063,3.742-.661,5.314L323.4,277.277C320.672,278.85,316.551,279.021,314.191,277.659Z" transform="translate(-274.156 -227.417)" fill="#d4ecff"/>
          <path id="Trazado_5278" data-name="Trazado 5278" d="M313.815,273.047l-32.215-18.6c-1.977-1.141-1.73-3.136.553-4.453l31.107-17.96c2.283-1.318,5.736-1.46,7.714-.32l32.216,18.6c1.976,1.142,1.728,3.136-.555,4.454l-31.107,17.959C319.245,274.046,315.792,274.189,313.815,273.047Z" transform="translate(-273.087 -226.8)" fill="#5793ce"/>
          <g id="Grupo_21866" data-name="Grupo 21866" transform="translate(71.357 35.468)">
            <path id="Trazado_5279" data-name="Trazado 5279" d="M337.993,263.623a3.435,3.435,0,0,1-1.553,2.689c-.858.495-1.552.093-1.552-.9a3.43,3.43,0,0,1,1.552-2.689C337.3,262.231,337.993,262.633,337.993,263.623Z" transform="translate(-334.888 -256.746)" fill="#d4ecff"/>
            <path id="Trazado_5280" data-name="Trazado 5280" d="M342.244,261.168a3.432,3.432,0,0,1-1.552,2.689c-.858.495-1.553.093-1.553-.9a3.431,3.431,0,0,1,1.553-2.689C341.55,259.776,342.244,260.178,342.244,261.168Z" transform="translate(-334.144 -257.175)" fill="#d4ecff"/>
            <path id="Trazado_5281" data-name="Trazado 5281" d="M346.5,258.713a3.432,3.432,0,0,1-1.552,2.689c-.858.495-1.553.094-1.553-.9a3.433,3.433,0,0,1,1.553-2.689C345.8,257.322,346.5,257.723,346.5,258.713Z" transform="translate(-333.4 -257.605)" fill="#d4ecff"/>
          </g>
        </g>
        <g id="Grupo_21869" data-name="Grupo 21869" transform="translate(0 21.197)">
          <path id="Trazado_5282" data-name="Trazado 5282" d="M362.757,245.435h0V232.171l-29.743-.016-10.281-5.936c-2.359-1.362-6.481-1.191-9.2.382l-9.592,5.538-29.77-.016v13.642a2.671,2.671,0,0,0,1.582,2.466l38.442,22.195c2.359,1.362,6.481,1.191,9.206-.382l37.119-21.431C362.087,247.705,362.845,246.53,362.757,245.435Z" transform="translate(-274.155 -206.591)" fill="#396caa"/>
          <path id="Trazado_5283" data-name="Trazado 5283" d="M318.463,225.306a10.594,10.594,0,0,0-4.934,1.294l-9.592,5.538-29.77-.016v13.642a2.671,2.671,0,0,0,1.582,2.466l38.442,22.195a8.334,8.334,0,0,0,4.272.912Z" transform="translate(-274.155 -206.59)" fill="#396caa"/>
          <path id="Trazado_5284" data-name="Trazado 5284" d="M277.537,231.108l-3.37,0v13.642a2.671,2.671,0,0,0,1.582,2.466l1.788,1.032Z" transform="translate(-274.155 -205.575)" fill="#5793ce"/>
          <path id="Trazado_5285" data-name="Trazado 5285" d="M308.734,266.272a10.491,10.491,0,0,0,7.359-.085V250.7h-7.359Z" transform="translate(-268.107 -202.147)" fill="#5793ce"/>
          <path id="Trazado_5286" data-name="Trazado 5286" d="M314.191,259.618l-38.442-22.195c-2.359-1.362-2.064-3.741.66-5.314l37.12-21.431c2.724-1.573,6.845-1.744,9.2-.382l38.443,22.195c2.359,1.363,2.063,3.742-.661,5.315L323.4,259.237C320.672,260.809,316.551,260.981,314.191,259.618Z" transform="translate(-274.156 -209.376)" fill="#d4ecff"/>
          <path id="Trazado_5287" data-name="Trazado 5287" d="M313.815,255.006l-32.215-18.6c-1.977-1.142-1.73-3.136.553-4.453l31.107-17.96c2.283-1.317,5.736-1.46,7.714-.32l32.216,18.6c1.976,1.142,1.728,3.136-.555,4.454l-31.107,17.959C319.245,256,315.792,256.148,313.815,255.006Z" transform="translate(-273.087 -208.759)" fill="#5793ce"/>
          <g id="Grupo_21868" data-name="Grupo 21868" transform="translate(71.357 35.468)">
            <path id="Trazado_5288" data-name="Trazado 5288" d="M337.993,245.582a3.435,3.435,0,0,1-1.553,2.689c-.858.495-1.552.093-1.552-.9a3.43,3.43,0,0,1,1.552-2.689C337.3,244.19,337.993,244.592,337.993,245.582Z" transform="translate(-334.888 -238.705)" fill="#d4ecff"/>
            <path id="Trazado_5289" data-name="Trazado 5289" d="M342.244,243.127a3.432,3.432,0,0,1-1.552,2.689c-.858.495-1.553.094-1.553-.9a3.431,3.431,0,0,1,1.553-2.689C341.55,241.736,342.244,242.137,342.244,243.127Z" transform="translate(-334.144 -239.134)" fill="#d4ecff"/>
            <path id="Trazado_5290" data-name="Trazado 5290" d="M346.5,240.672a3.43,3.43,0,0,1-1.552,2.689c-.858.495-1.553.094-1.553-.9a3.431,3.431,0,0,1,1.553-2.689C345.8,239.281,346.5,239.682,346.5,240.672Z" transform="translate(-333.4 -239.564)" fill="#d4ecff"/>
          </g>
        </g>
        <g id="Grupo_21872" data-name="Grupo 21872">
          <path id="Trazado_5291" data-name="Trazado 5291" d="M362.757,227.394h0V214.13l-29.743-.016-10.281-5.936c-2.359-1.362-6.481-1.191-9.2.382l-9.592,5.538-29.77-.016v13.642a2.67,2.67,0,0,0,1.582,2.466l38.442,22.195c2.359,1.362,6.481,1.191,9.206-.382l37.119-21.431C362.087,229.664,362.845,228.489,362.757,227.394Z" transform="translate(-274.155 -188.55)" fill="#396caa"/>
          <path id="Trazado_5292" data-name="Trazado 5292" d="M318.463,207.265a10.609,10.609,0,0,0-4.934,1.294l-9.592,5.538-29.77-.016v13.642a2.67,2.67,0,0,0,1.582,2.466l38.442,22.195a8.335,8.335,0,0,0,4.272.913Z" transform="translate(-274.155 -188.549)" fill="#396caa"/>
          <path id="Trazado_5293" data-name="Trazado 5293" d="M277.537,213.067l-3.37,0v13.642a2.67,2.67,0,0,0,1.582,2.466l1.788,1.032Z" transform="translate(-274.155 -187.534)" fill="#5793ce"/>
          <path id="Trazado_5294" data-name="Trazado 5294" d="M308.734,248.231a10.491,10.491,0,0,0,7.359-.085V232.657h-7.359Z" transform="translate(-268.107 -184.106)" fill="#5793ce"/>
          <path id="Trazado_5295" data-name="Trazado 5295" d="M314.191,241.577l-38.442-22.195c-2.359-1.362-2.064-3.741.66-5.314l37.12-21.431c2.724-1.573,6.845-1.744,9.2-.382l38.443,22.195c2.359,1.363,2.063,3.742-.661,5.315L323.4,241.2C320.672,242.768,316.551,242.94,314.191,241.577Z" transform="translate(-274.156 -191.335)" fill="#d4ecff"/>
          <path id="Trazado_5296" data-name="Trazado 5296" d="M360.516,213.557,323.4,234.988c-2.725,1.573-6.846,1.744-9.206.382l-38.442-22.2a3.535,3.535,0,0,1-1.177-1.045c-.811,1.305-.443,2.72,1.177,3.655l38.442,22.195c2.359,1.363,6.481,1.191,9.206-.382l37.119-21.43c2.117-1.223,2.76-2.93,1.839-4.271A5.147,5.147,0,0,1,360.516,213.557Z" transform="translate(-274.156 -187.738)" fill="#fff"/>
          <g id="Grupo_21870" data-name="Grupo 21870" transform="translate(71.357 35.468)">
            <path id="Trazado_5297" data-name="Trazado 5297" d="M337.993,227.541a3.435,3.435,0,0,1-1.553,2.689c-.858.495-1.552.093-1.552-.9a3.43,3.43,0,0,1,1.552-2.689C337.3,226.149,337.993,226.551,337.993,227.541Z" transform="translate(-334.888 -220.664)" fill="#d4ecff"/>
            <path id="Trazado_5298" data-name="Trazado 5298" d="M342.244,225.086a3.432,3.432,0,0,1-1.552,2.689c-.858.495-1.553.094-1.553-.9a3.431,3.431,0,0,1,1.553-2.689C341.55,223.695,342.244,224.1,342.244,225.086Z" transform="translate(-334.144 -221.093)" fill="#d4ecff"/>
            <path id="Trazado_5299" data-name="Trazado 5299" d="M346.5,222.631a3.43,3.43,0,0,1-1.552,2.689c-.858.495-1.553.094-1.553-.9a3.431,3.431,0,0,1,1.553-2.689C345.8,221.24,346.5,221.641,346.5,222.631Z" transform="translate(-333.4 -221.523)" fill="#d4ecff"/>
          </g>
          <g id="Grupo_21871" data-name="Grupo 21871" transform="translate(23.574 12.971)">
            <path id="Trazado_5300" data-name="Trazado 5300" d="M312.955,225.886,294.965,215.5c-1.1-.637-.966-1.751.309-2.487l17.37-10.028a4.787,4.787,0,0,1,4.307-.179l17.99,10.387c1.1.637.966,1.751-.309,2.486l-17.37,10.029A4.791,4.791,0,0,1,312.955,225.886Z" transform="translate(-294.22 -202.375)" fill="#5793ce"/>
            <path id="Trazado_5301" data-name="Trazado 5301" d="M312.017,215.467l-2.49-1.437c-.153-.088-.133-.242.043-.344l2.4-1.386a.661.661,0,0,1,.6-.026l2.49,1.437c.153.089.133.243-.043.344l-2.4,1.388A.661.661,0,0,1,312.017,215.467Z" transform="translate(-291.56 -200.653)" fill="#d4ecff"/>
            <path id="Trazado_5302" data-name="Trazado 5302" d="M294.965,215.5l.052.029a2.9,2.9,0,0,1,.257-.177l17.37-10.029a4.791,4.791,0,0,1,4.307-.179L334.891,215.5c1.017-.728,1.07-1.72.051-2.309l-17.99-10.387a4.787,4.787,0,0,0-4.307.179l-17.37,10.028C294,213.749,293.862,214.862,294.965,215.5Z" transform="translate(-294.22 -202.375)" fill="#396caa"/>
          </g>
        </g>
        <g id="Grupo_21873" data-name="Grupo 21873" transform="translate(32.227 50.307)">
          <path id="Trazado_5303" data-name="Trazado 5303" d="M306.433,237.686c0,.666-.469.936-1.046.6a2.312,2.312,0,0,1-1.045-1.811c0-.666.468-.936,1.045-.6A2.311,2.311,0,0,1,306.433,237.686Z" transform="translate(-301.101 -233.874)" fill="#d4ecff"/>
          <path id="Trazado_5304" data-name="Trazado 5304" d="M303.674,236.1c0,.666-.468.936-1.046.6a2.308,2.308,0,0,1-1.045-1.809c0-.666.468-.936,1.045-.6A2.306,2.306,0,0,1,303.674,236.1Z" transform="translate(-301.584 -234.151)" fill="#d4ecff"/>
          <path id="Trazado_5305" data-name="Trazado 5305" d="M306.433,241.016c0,.666-.469.936-1.046.6a2.308,2.308,0,0,1-1.045-1.809c0-.666.468-.936,1.045-.6A2.313,2.313,0,0,1,306.433,241.016Z" transform="translate(-301.101 -233.292)" fill="#d4ecff"/>
          <path id="Trazado_5306" data-name="Trazado 5306" d="M303.674,239.433c0,.667-.468.936-1.046.6a2.31,2.31,0,0,1-1.045-1.811c0-.666.468-.936,1.045-.6A2.308,2.308,0,0,1,303.674,239.433Z" transform="translate(-301.584 -233.569)" fill="#d4ecff"/>
        </g>
        <g id="Grupo_21874" data-name="Grupo 21874" transform="translate(32.227 71.399)">
          <path id="Trazado_5307" data-name="Trazado 5307" d="M306.433,255.638c0,.666-.469.936-1.046.6a2.31,2.31,0,0,1-1.045-1.809c0-.666.468-.936,1.045-.6A2.313,2.313,0,0,1,306.433,255.638Z" transform="translate(-301.101 -251.826)" fill="#d4ecff"/>
          <path id="Trazado_5308" data-name="Trazado 5308" d="M303.674,254.055c0,.667-.468.936-1.046.6a2.31,2.31,0,0,1-1.045-1.811c0-.666.468-.935,1.045-.6A2.308,2.308,0,0,1,303.674,254.055Z" transform="translate(-301.584 -252.103)" fill="#d4ecff"/>
          <path id="Trazado_5309" data-name="Trazado 5309" d="M306.433,258.967c0,.666-.469.936-1.046.6a2.312,2.312,0,0,1-1.045-1.811c0-.666.468-.936,1.045-.6A2.31,2.31,0,0,1,306.433,258.967Z" transform="translate(-301.101 -251.243)" fill="#d4ecff"/>
          <path id="Trazado_5310" data-name="Trazado 5310" d="M303.674,257.385c0,.666-.468.936-1.046.6a2.308,2.308,0,0,1-1.045-1.809c0-.666.468-.936,1.045-.6A2.31,2.31,0,0,1,303.674,257.385Z" transform="translate(-301.584 -251.52)" fill="#d4ecff"/>
        </g>
        <g id="Grupo_21875" data-name="Grupo 21875" transform="translate(32.227 92.49)">
          <path id="Trazado_5311" data-name="Trazado 5311" d="M306.433,273.589c0,.666-.469.936-1.046.6a2.308,2.308,0,0,1-1.045-1.809c0-.666.468-.936,1.045-.6A2.309,2.309,0,0,1,306.433,273.589Z" transform="translate(-301.101 -269.777)" fill="#d4ecff"/>
          <path id="Trazado_5312" data-name="Trazado 5312" d="M303.674,272.007c0,.666-.468.936-1.046.6a2.308,2.308,0,0,1-1.045-1.809c0-.666.468-.936,1.045-.6A2.31,2.31,0,0,1,303.674,272.007Z" transform="translate(-301.584 -270.054)" fill="#d4ecff"/>
          <path id="Trazado_5313" data-name="Trazado 5313" d="M306.433,276.919c0,.666-.469.936-1.046.6a2.31,2.31,0,0,1-1.045-1.809c0-.667.468-.936,1.045-.6A2.312,2.312,0,0,1,306.433,276.919Z" transform="translate(-301.101 -269.195)" fill="#d4ecff"/>
          <path id="Trazado_5314" data-name="Trazado 5314" d="M303.674,275.336c0,.666-.468.936-1.046.6a2.312,2.312,0,0,1-1.045-1.811c0-.666.468-.936,1.045-.6A2.306,2.306,0,0,1,303.674,275.336Z" transform="translate(-301.584 -269.471)" fill="#d4ecff"/>
        </g>
      </g>
      <path id="Trazado_5315" data-name="Trazado 5315" d="M315.805,307.541a6.33,6.33,0,0,1-3.179-.853l-19.371-11.242a2.11,2.11,0,0,1,0-3.652l12.739-7.388.943,1.624-12.74,7.389a.232.232,0,0,0,0,.4l19.373,11.243a4.477,4.477,0,0,0,4.441.016l37.943-21.621a6.363,6.363,0,0,1,6.319.026l31.784,18.357a4.46,4.46,0,0,0,4.472.007l15.325-8.863.941,1.627-15.325,8.863a6.345,6.345,0,0,1-6.355-.009l-31.782-18.356a4.476,4.476,0,0,0-4.448-.02L318.94,306.713A6.326,6.326,0,0,1,315.805,307.541Z" transform="translate(5.377 45.194)" fill="#b2d3ea"/>
      <g id="Grupo_21884" data-name="Grupo 21884" transform="translate(448.569 307.855)">
        <path id="Trazado_5316" data-name="Trazado 5316" d="M460.277,370.679l-30.7-17.724c-1.885-1.088-1.648-2.988.528-4.244L459.748,331.6a8.172,8.172,0,0,1,7.352-.306l30.7,17.725c1.885,1.087,1.648,2.988-.528,4.244l-29.643,17.114A8.171,8.171,0,0,1,460.277,370.679Z" transform="translate(-419.381 -254.276)" fill="#b2d3ea"/>
        <g id="Grupo_21878" data-name="Grupo 21878" transform="translate(0 42.395)">
          <path id="Trazado_5317" data-name="Trazado 5317" d="M509.311,337.776h0V324.511l-29.743-.016-10.281-5.935c-2.359-1.363-6.481-1.193-9.2.381l-9.592,5.538-29.77-.016V338.1a2.67,2.67,0,0,0,1.582,2.466l38.442,22.195c2.359,1.362,6.481,1.191,9.206-.382l37.119-21.431C508.641,340.045,509.4,338.87,509.311,337.776Z" transform="translate(-420.709 -298.931)" fill="#396caa"/>
          <path id="Trazado_5318" data-name="Trazado 5318" d="M465.017,317.646a10.608,10.608,0,0,0-4.934,1.294l-9.592,5.538-29.77-.016V338.1a2.67,2.67,0,0,0,1.582,2.466l38.442,22.195a8.336,8.336,0,0,0,4.272.913Z" transform="translate(-420.709 -298.93)" fill="#396caa"/>
          <path id="Trazado_5319" data-name="Trazado 5319" d="M424.091,323.448l-3.37,0v13.642a2.67,2.67,0,0,0,1.582,2.466l1.788,1.032Z" transform="translate(-420.709 -297.915)" fill="#5793ce"/>
          <path id="Trazado_5320" data-name="Trazado 5320" d="M455.288,358.612a10.485,10.485,0,0,0,7.359-.085V343.038h-7.359Z" transform="translate(-414.66 -294.487)" fill="#5793ce"/>
          <path id="Trazado_5321" data-name="Trazado 5321" d="M460.745,351.958,422.3,329.763c-2.36-1.362-2.064-3.741.66-5.314l37.12-21.431c2.724-1.573,6.845-1.744,9.2-.382l38.443,22.195c2.359,1.363,2.063,3.742-.662,5.315l-37.119,21.431C467.226,353.149,463.1,353.321,460.745,351.958Z" transform="translate(-420.71 -301.716)" fill="#d4ecff"/>
          <path id="Trazado_5322" data-name="Trazado 5322" d="M460.369,347.346l-32.215-18.6c-1.977-1.141-1.729-3.135.553-4.453l31.107-17.959c2.283-1.318,5.736-1.462,7.714-.321l32.216,18.6c1.976,1.142,1.728,3.136-.555,4.454l-31.107,17.959C465.8,348.345,462.346,348.488,460.369,347.346Z" transform="translate(-419.641 -301.099)" fill="#5793ce"/>
          <g id="Grupo_21877" data-name="Grupo 21877" transform="translate(71.358 35.468)">
            <path id="Trazado_5323" data-name="Trazado 5323" d="M484.547,337.922a3.433,3.433,0,0,1-1.553,2.689c-.858.495-1.552.094-1.552-.9a3.43,3.43,0,0,1,1.552-2.689C483.852,336.531,484.547,336.932,484.547,337.922Z" transform="translate(-481.442 -331.045)" fill="#d4ecff"/>
            <path id="Trazado_5324" data-name="Trazado 5324" d="M488.8,335.467a3.43,3.43,0,0,1-1.552,2.689c-.858.495-1.553.094-1.553-.9a3.433,3.433,0,0,1,1.553-2.689C488.1,334.076,488.8,334.477,488.8,335.467Z" transform="translate(-480.698 -331.474)" fill="#d4ecff"/>
            <path id="Trazado_5325" data-name="Trazado 5325" d="M493.05,333.012A3.43,3.43,0,0,1,491.5,335.7c-.858.495-1.553.094-1.553-.9a3.433,3.433,0,0,1,1.553-2.689C492.356,331.621,493.05,332.022,493.05,333.012Z" transform="translate(-479.954 -331.904)" fill="#d4ecff"/>
          </g>
        </g>
        <g id="Grupo_21880" data-name="Grupo 21880" transform="translate(0 21.197)">
          <path id="Trazado_5326" data-name="Trazado 5326" d="M509.311,319.735h0V306.47l-29.743-.016-10.281-5.936c-2.359-1.362-6.481-1.19-9.2.382l-9.592,5.539-29.77-.018v13.642a2.67,2.67,0,0,0,1.582,2.466l38.442,22.195c2.359,1.362,6.481,1.191,9.206-.382l37.119-21.431C508.641,322,509.4,320.829,509.311,319.735Z" transform="translate(-420.709 -280.89)" fill="#396caa"/>
          <path id="Trazado_5327" data-name="Trazado 5327" d="M465.017,299.605a10.608,10.608,0,0,0-4.934,1.294l-9.592,5.539-29.77-.018v13.642a2.67,2.67,0,0,0,1.582,2.466l38.442,22.195a8.335,8.335,0,0,0,4.272.913Z" transform="translate(-420.709 -280.889)" fill="#396caa"/>
          <path id="Trazado_5328" data-name="Trazado 5328" d="M424.091,305.407l-3.37,0v13.642a2.67,2.67,0,0,0,1.582,2.466l1.788,1.033Z" transform="translate(-420.709 -279.874)" fill="#5793ce"/>
          <path id="Trazado_5329" data-name="Trazado 5329" d="M455.288,340.571a10.491,10.491,0,0,0,7.359-.085V325h-7.359Z" transform="translate(-414.66 -276.446)" fill="#5793ce"/>
          <path id="Trazado_5330" data-name="Trazado 5330" d="M460.745,333.917,422.3,311.722c-2.36-1.362-2.064-3.741.66-5.314l37.12-21.431c2.724-1.573,6.845-1.744,9.2-.382l38.443,22.2c2.359,1.362,2.063,3.741-.662,5.314l-37.119,21.431C467.226,335.108,463.1,335.28,460.745,333.917Z" transform="translate(-420.71 -283.675)" fill="#d4ecff"/>
          <path id="Trazado_5331" data-name="Trazado 5331" d="M460.369,329.305l-32.215-18.6c-1.977-1.141-1.729-3.135.553-4.453l31.107-17.96c2.283-1.317,5.736-1.46,7.714-.32l32.216,18.6c1.976,1.141,1.728,3.135-.555,4.453l-31.107,17.959C465.8,330.3,462.346,330.447,460.369,329.305Z" transform="translate(-419.641 -283.058)" fill="#5793ce"/>
          <g id="Grupo_21879" data-name="Grupo 21879" transform="translate(71.358 35.468)">
            <path id="Trazado_5332" data-name="Trazado 5332" d="M484.547,319.881a3.433,3.433,0,0,1-1.553,2.689c-.858.495-1.552.094-1.552-.9a3.43,3.43,0,0,1,1.552-2.689C483.852,318.49,484.547,318.891,484.547,319.881Z" transform="translate(-481.442 -313.004)" fill="#d4ecff"/>
            <path id="Trazado_5333" data-name="Trazado 5333" d="M488.8,317.426a3.43,3.43,0,0,1-1.552,2.689c-.858.495-1.553.094-1.553-.9a3.433,3.433,0,0,1,1.553-2.689C488.1,316.035,488.8,316.436,488.8,317.426Z" transform="translate(-480.698 -313.433)" fill="#d4ecff"/>
            <path id="Trazado_5334" data-name="Trazado 5334" d="M493.05,314.971a3.43,3.43,0,0,1-1.552,2.689c-.858.495-1.553.094-1.553-.9a3.433,3.433,0,0,1,1.553-2.689C492.356,313.58,493.05,313.981,493.05,314.971Z" transform="translate(-479.954 -313.863)" fill="#d4ecff"/>
          </g>
        </g>
        <g id="Grupo_21883" data-name="Grupo 21883">
          <path id="Trazado_5335" data-name="Trazado 5335" d="M509.311,301.694h0V288.429l-29.743-.016-10.281-5.935c-2.359-1.363-6.481-1.191-9.2.381l-9.592,5.538-29.77-.016v13.642a2.669,2.669,0,0,0,1.582,2.466l38.442,22.195c2.359,1.362,6.481,1.191,9.206-.382l37.119-21.431C508.641,303.963,509.4,302.788,509.311,301.694Z" transform="translate(-420.709 -262.849)" fill="#396caa"/>
          <path id="Trazado_5336" data-name="Trazado 5336" d="M465.017,281.564a10.622,10.622,0,0,0-4.934,1.294l-9.592,5.538-29.77-.016v13.642a2.669,2.669,0,0,0,1.582,2.466l38.442,22.195a8.335,8.335,0,0,0,4.272.913Z" transform="translate(-420.709 -262.848)" fill="#396caa"/>
          <path id="Trazado_5337" data-name="Trazado 5337" d="M424.091,287.366l-3.37,0v13.642a2.669,2.669,0,0,0,1.582,2.466l1.788,1.033Z" transform="translate(-420.709 -261.833)" fill="#5793ce"/>
          <path id="Trazado_5338" data-name="Trazado 5338" d="M455.288,322.53a10.485,10.485,0,0,0,7.359-.085V306.957h-7.359Z" transform="translate(-414.66 -258.405)" fill="#5793ce"/>
          <path id="Trazado_5339" data-name="Trazado 5339" d="M460.745,315.877l-38.442-22.2c-2.36-1.362-2.064-3.741.66-5.314l37.12-21.431c2.724-1.573,6.845-1.744,9.2-.382l38.443,22.2c2.359,1.362,2.063,3.741-.662,5.314L469.951,315.5C467.226,317.067,463.1,317.239,460.745,315.877Z" transform="translate(-420.71 -265.634)" fill="#d4ecff"/>
          <path id="Trazado_5340" data-name="Trazado 5340" d="M507.07,287.856l-37.119,21.431c-2.725,1.573-6.846,1.744-9.206.382L422.3,287.474a3.561,3.561,0,0,1-1.177-1.045c-.811,1.3-.443,2.719,1.177,3.654l38.442,22.2c2.359,1.362,6.481,1.19,9.206-.382l37.119-21.431c2.117-1.223,2.76-2.93,1.839-4.27A5.145,5.145,0,0,1,507.07,287.856Z" transform="translate(-420.71 -262.037)" fill="#fff"/>
          <g id="Grupo_21881" data-name="Grupo 21881" transform="translate(71.358 35.469)">
            <path id="Trazado_5341" data-name="Trazado 5341" d="M484.547,301.84a3.433,3.433,0,0,1-1.553,2.689c-.858.495-1.552.094-1.552-.9a3.43,3.43,0,0,1,1.552-2.689C483.852,300.449,484.547,300.85,484.547,301.84Z" transform="translate(-481.442 -294.963)" fill="#d4ecff"/>
            <path id="Trazado_5342" data-name="Trazado 5342" d="M488.8,299.385a3.43,3.43,0,0,1-1.552,2.689c-.858.495-1.553.094-1.553-.9a3.433,3.433,0,0,1,1.553-2.689C488.1,297.994,488.8,298.395,488.8,299.385Z" transform="translate(-480.698 -295.392)" fill="#d4ecff"/>
            <path id="Trazado_5343" data-name="Trazado 5343" d="M493.05,296.93a3.43,3.43,0,0,1-1.552,2.689c-.858.5-1.553.094-1.553-.9a3.435,3.435,0,0,1,1.553-2.689C492.356,295.539,493.05,295.941,493.05,296.93Z" transform="translate(-479.954 -295.822)" fill="#d4ecff"/>
          </g>
          <g id="Grupo_21882" data-name="Grupo 21882" transform="translate(23.574 12.971)">
            <path id="Trazado_5344" data-name="Trazado 5344" d="M459.509,300.185,441.519,289.8c-1.1-.637-.966-1.751.309-2.486L459.2,277.283a4.791,4.791,0,0,1,4.307-.179l17.99,10.387c1.1.637.966,1.751-.309,2.486l-17.37,10.029A4.791,4.791,0,0,1,459.509,300.185Z" transform="translate(-440.773 -276.674)" fill="#5793ce"/>
            <path id="Trazado_5345" data-name="Trazado 5345" d="M458.571,289.766l-2.49-1.437c-.153-.088-.133-.242.043-.343l2.4-1.388a.661.661,0,0,1,.6-.025l2.49,1.437c.153.088.133.242-.043.344l-2.4,1.388A.661.661,0,0,1,458.571,289.766Z" transform="translate(-438.113 -274.953)" fill="#d4ecff"/>
            <path id="Trazado_5346" data-name="Trazado 5346" d="M441.519,289.8l.051.029c.085-.06.162-.121.258-.177L459.2,279.622a4.784,4.784,0,0,1,4.307-.179L481.445,289.8c1.017-.728,1.07-1.72.051-2.309L463.506,277.1a4.791,4.791,0,0,0-4.307.179l-17.371,10.029C440.553,288.048,440.415,289.161,441.519,289.8Z" transform="translate(-440.773 -276.674)" fill="#396caa"/>
          </g>
        </g>
      </g>
      <path id="Trazado_5347" data-name="Trazado 5347" d="M408.453,106.739c0,.666-.468.936-1.045.6a2.31,2.31,0,0,1-1.046-1.811c0-.666.468-.936,1.046-.6A2.31,2.31,0,0,1,408.453,106.739Z" transform="translate(25.35 14.08)" fill="#d4ecff"/>
      <path id="Trazado_5348" data-name="Trazado 5348" d="M416.286,111.489c0,.666-.468.936-1.045.6a2.312,2.312,0,0,1-1.045-1.811c0-.666.468-.936,1.045-.6A2.31,2.31,0,0,1,416.286,111.489Z" transform="translate(26.72 14.911)" fill="#d4ecff"/>
      <path id="Trazado_5349" data-name="Trazado 5349" d="M424.12,116.239c0,.666-.469.936-1.046.6a2.312,2.312,0,0,1-1.045-1.811c0-.666.468-.936,1.045-.6A2.311,2.311,0,0,1,424.12,116.239Z" transform="translate(28.091 15.742)" fill="#d4ecff"/>
      <path id="Trazado_5350" data-name="Trazado 5350" d="M431.953,120.989c0,.666-.468.936-1.045.6a2.31,2.31,0,0,1-1.046-1.811c0-.666.468-.936,1.046-.6A2.31,2.31,0,0,1,431.953,120.989Z" transform="translate(29.461 16.573)" fill="#d4ecff"/>
    </g>
  </g>
</svg>
