<?xml version="1.0" encoding="utf-8"?>
<!-- Generator: Adobe Illustrator 25.2.3, SVG Export Plug-In . SVG Version: 6.00 Build 0)  -->
<svg version="1.1" id="Layer_1" xmlns="http://www.w3.org/2000/svg" xmlns:xlink="http://www.w3.org/1999/xlink" x="0px" y="0px"
	 viewBox="0 0 1012 300" style="enable-background:new 0 0 1012 300;" xml:space="preserve">
<style type="text/css">
	.st0{fill:#1565C0;}
	.st1{fill:#FFFFFF;}
	.st2{fill:none;stroke:#111E61;}
	.st3{fill:#FFCA28;}
	.st4{fill:none;stroke:#111E61;stroke-width:3;}
	.st5{fill:#111E61;}
</style>
<g id="Grupo_55176" transform="translate(3394 8847)">
	<path id="marek-piwnicki-LGgKrtjNsoI-unsplash" class="st0" d="M-3384-8847h992c5.5,0,10,4.5,10,10v280c0,5.5-4.5,10-10,10h-992
		c-5.5,0-10-4.5-10-10v-280C-3394-8842.5-3389.5-8847-3384-8847z"/>
	<g id="Grupo_55175" transform="translate(-10638 -11587)">
		<g id="Rectángulo_4886" transform="translate(7277 2861)">
			<path class="st1" d="M10,0h181l0,0v58l0,0H10C4.5,58,0,53.5,0,48V10C0,4.5,4.5,0,10,0z"/>
			<path class="st2" d="M10,0.5h180c0.3,0,0.5,0.2,0.5,0.5v56c0,0.3-0.2,0.5-0.5,0.5H10c-5.2,0-9.5-4.3-9.5-9.5V10
				C0.5,4.8,4.8,0.5,10,0.5z"/>
		</g>
		<g id="Rectángulo_4887" transform="translate(7731 2861)">
			<path class="st1" d="M0,0h181c5.5,0,10,4.5,10,10v38c0,5.5-4.5,10-10,10H0l0,0V0L0,0z"/>
			<path class="st2" d="M1,0.5h180c5.2,0,9.5,4.3,9.5,9.5v38c0,5.2-4.3,9.5-9.5,9.5H1c-0.3,0-0.5-0.2-0.5-0.5V1
				C0.5,0.7,0.7,0.5,1,0.5z"/>
		</g>
		<g id="Rectángulo_4891" transform="translate(7952 2861)">
			<rect x="0.1" y="0.8" class="st3" width="272" height="58"/>
			<rect x="0.6" y="1.3" class="st2" width="271" height="57"/>
		</g>
		<path id="Trazado_2616" class="st4" d="M7468,2890h263"/>
		<g id="Rectángulo_4888" transform="translate(7520 2872)">
			<rect x="1" y="-1.4" class="st3" width="37" height="36"/>
			<rect x="1.5" y="-0.9" class="st2" width="36" height="35"/>
		</g>
		<g id="Rectángulo_4889" transform="translate(7641 2872)">
			<rect x="-2" y="-1.4" class="st3" width="37" height="36"/>
			<rect x="-1.5" y="-0.9" class="st2" width="36" height="35"/>
		</g>
		<circle id="Elipse_1208" class="st5" cx="7467" cy="2890" r="4"/>
		<circle id="Elipse_1209" class="st5" cx="7732" cy="2890" r="4"/>
		<path id="Trazado_101103" class="st5" d="M7537.9,2889.2l-3.8-1.1l0.8-2.2l3.7,1.5l-0.3-4.1h2.5l-0.3,4.2l3.6-1.5l0.8,2.2
			l-3.9,1.1l2.6,3.1l-2,1.4l-2.1-3.4l-2.2,3.3l-2-1.3L7537.9,2889.2z"/>
		<path id="Trazado_101102" class="st5" d="M7347.1,2885.1h-5.1v13.9h-4.1v-13.9h-5v-3.2h14.3L7347.1,2885.1z M7353.9,2899
			c-0.2-0.4-0.3-0.7-0.4-1.1c-0.7,0.9-1.9,1.4-3,1.4c-1.1,0-2.2-0.4-3-1.1c-0.8-0.7-1.3-1.7-1.3-2.7c-0.1-1.2,0.5-2.4,1.5-3.1
			c1.3-0.8,2.9-1.2,4.4-1.1h1.2v-0.7c0-1.2-0.5-1.8-1.5-1.8c-0.7-0.1-1.3,0.4-1.4,1c0,0.1,0,0.2,0,0.3h-3.9c0-1.2,0.6-2.3,1.6-3
			c1.2-0.8,2.6-1.2,4-1.1c1.4-0.1,2.7,0.3,3.8,1.2c0.9,0.8,1.5,2,1.4,3.2v5.6c0,0.9,0.1,1.8,0.5,2.7v0.2H7353.9z M7351.4,2896.4
			c0.4,0,0.9-0.1,1.2-0.3c0.3-0.2,0.5-0.4,0.7-0.7v-2h-1.1c-1.4,0-2.1,0.6-2.1,1.9c0,0.3,0.1,0.6,0.4,0.9
			C7350.7,2896.3,7351.1,2896.4,7351.4,2896.4z M7371.2,2892.8c0.1,1.7-0.3,3.4-1.3,4.8c-0.9,1.1-2.2,1.7-3.6,1.7
			c-1.2,0-2.4-0.5-3.1-1.5l-0.2,1.3h-3.5v-18h3.9v6.3c0.7-0.8,1.8-1.3,2.9-1.3c1.4-0.1,2.8,0.6,3.7,1.7c0.9,1.4,1.4,3.1,1.3,4.8
			L7371.2,2892.8z M7367.3,2892.5c0.1-0.9-0.1-1.8-0.5-2.6c-0.3-0.5-0.9-0.8-1.5-0.8c-0.8-0.1-1.5,0.3-1.9,1v5
			c0.4,0.7,1.1,1.1,1.9,1c0.8,0.1,1.6-0.5,1.8-1.4C7367.2,2894.1,7367.3,2893.3,7367.3,2892.5L7367.3,2892.5z M7377.1,2899h-4v-18h4
			V2899z M7386.7,2899c-0.2-0.4-0.3-0.7-0.4-1.1c-0.7,0.9-1.9,1.4-3,1.4c-1.1,0-2.2-0.4-3-1.1c-0.8-0.7-1.3-1.7-1.3-2.7
			c-0.1-1.2,0.5-2.4,1.5-3.1c1.3-0.8,2.9-1.2,4.4-1.1h1.2v-0.7c0-1.2-0.5-1.8-1.5-1.8c-0.7-0.1-1.3,0.4-1.4,1c0,0.1,0,0.2,0,0.3h-4
			c0-1.2,0.6-2.3,1.6-3c1.2-0.8,2.6-1.2,4-1.1c1.4-0.1,2.7,0.3,3.8,1.2c0.9,0.8,1.5,2,1.4,3.2v5.6c0,0.9,0.2,1.8,0.5,2.7v0.2H7386.7
			z M7384.2,2896.4c0.4,0,0.9-0.1,1.2-0.3c0.3-0.2,0.5-0.4,0.7-0.7v-2h-1.2c-1.4,0-2.1,0.6-2.1,1.9c0,0.3,0.1,0.6,0.4,0.9
			C7383.6,2896.3,7383.9,2896.4,7384.2,2896.4z M7408.2,2895.8h-5.6l-1,3.2h-4.4l6.3-17.1h3.9l6.3,17.1h-4.4L7408.2,2895.8z
			 M7403.5,2892.6h3.7l-1.8-5.9L7403.5,2892.6z"/>
		<path id="Trazado_101105" class="st5" d="M7801.6,2885.1h-5.1v13.9h-4.1v-13.9h-5v-3.2h14.3V2885.1z M7808.3,2899
			c-0.2-0.4-0.3-0.7-0.4-1.1c-0.7,0.9-1.9,1.4-3,1.4c-1.1,0-2.2-0.4-3-1.1c-0.8-0.7-1.3-1.7-1.3-2.7c-0.1-1.2,0.5-2.4,1.5-3.1
			c1.3-0.8,2.9-1.2,4.4-1.1h1.2v-0.7c0-1.2-0.5-1.8-1.5-1.8c-0.7-0.1-1.3,0.4-1.4,1c0,0.1,0,0.2,0,0.3h-3.9c0-1.2,0.6-2.3,1.6-3
			c1.2-0.8,2.6-1.2,4-1.1c1.4-0.1,2.7,0.3,3.8,1.2c0.9,0.8,1.5,2,1.4,3.2v5.6c0,0.9,0.1,1.8,0.5,2.7v0.2H7808.3z M7805.8,2896.4
			c0.4,0,0.9-0.1,1.2-0.3c0.3-0.2,0.5-0.4,0.7-0.7v-2h-1.1c-1.4,0-2.1,0.6-2.1,1.9c0,0.3,0.1,0.6,0.4,0.9
			C7805.2,2896.3,7805.5,2896.4,7805.8,2896.4z M7825.7,2892.8c0.1,1.7-0.3,3.4-1.3,4.8c-0.9,1.1-2.2,1.7-3.6,1.7
			c-1.2,0-2.4-0.5-3.1-1.5l-0.2,1.3h-3.5v-18h3.9v6.3c0.7-0.8,1.8-1.3,2.8-1.3c1.4-0.1,2.8,0.6,3.7,1.7c0.9,1.4,1.4,3.1,1.3,4.8
			V2892.8z M7821.7,2892.5c0.1-0.9-0.1-1.8-0.5-2.6c-0.3-0.5-0.9-0.8-1.5-0.8c-0.8-0.1-1.5,0.3-1.9,1v5c0.4,0.7,1.1,1.1,1.9,1
			c0.8,0.1,1.6-0.5,1.8-1.4C7821.7,2894.1,7821.7,2893.3,7821.7,2892.5z M7831.6,2899h-4v-18h4V2899z M7841.2,2899
			c-0.2-0.4-0.3-0.7-0.4-1.1c-0.7,0.9-1.9,1.4-3,1.4c-1.1,0-2.2-0.4-3-1.1c-0.8-0.7-1.3-1.7-1.3-2.7c-0.1-1.2,0.5-2.4,1.5-3.1
			c1.3-0.8,2.9-1.2,4.4-1.1h1.2v-0.7c0-1.2-0.5-1.8-1.5-1.8c-0.7-0.1-1.3,0.4-1.4,1c0,0.1,0,0.2,0,0.3h-4c0-1.2,0.6-2.3,1.6-3
			c1.2-0.8,2.6-1.2,4-1.1c1.4-0.1,2.7,0.3,3.8,1.2c0.9,0.8,1.5,2,1.4,3.2v5.6c0,0.9,0.1,1.8,0.5,2.7v0.2H7841.2z M7838.7,2896.4
			c0.4,0,0.9-0.1,1.2-0.3c0.3-0.2,0.5-0.4,0.7-0.7v-2h-1.2c-1.4,0-2.1,0.6-2.1,1.9c0,0.3,0.1,0.6,0.4,0.9
			C7838,2896.3,7838.3,2896.4,7838.7,2896.4z M7852.9,2899v-17.1h6.1c1.8-0.1,3.5,0.3,5,1.2c1.1,0.8,1.8,2.1,1.7,3.5
			c0,0.8-0.2,1.6-0.6,2.3c-0.4,0.6-1.1,1.1-1.8,1.4c0.8,0.2,1.5,0.7,2.1,1.3c0.5,0.7,0.7,1.5,0.7,2.3c0.1,1.4-0.5,2.8-1.6,3.8
			c-1.4,0.9-3,1.4-4.7,1.3H7852.9z M7857,2891.7v4.1h2.7c0.6,0,1.2-0.1,1.7-0.5c0.4-0.4,0.6-0.9,0.6-1.4c0.1-1-0.6-2-1.6-2.1
			c-0.2,0-0.3,0-0.5,0L7857,2891.7z M7857,2889h2.1c0.7,0.1,1.4-0.1,1.9-0.5c0.4-0.4,0.6-0.9,0.6-1.4c0.1-0.6-0.2-1.2-0.6-1.6
			c-0.6-0.4-1.3-0.5-2-0.5h-2V2889z"/>
		<path id="Trazado_101106" class="st5" d="M7970.6,2893.2h-1.9v5h-3.4V2884h5.6c1.4-0.1,2.8,0.3,4,1.1c1,0.8,1.5,1.9,1.4,3.2
			c0,0.9-0.2,1.7-0.6,2.5c-0.5,0.7-1.1,1.2-1.9,1.6l3,5.7v0.1h-3.7L7970.6,2893.2z M7968.7,2890.5h2.2c0.5,0,1.1-0.1,1.5-0.5
			c0.3-0.4,0.5-0.9,0.5-1.4c0-0.5-0.1-1-0.5-1.4c-0.4-0.4-0.9-0.6-1.5-0.5h-2.2L7968.7,2890.5z M7983.3,2898.4
			c-1.5,0.1-2.9-0.5-3.9-1.4c-1-1-1.6-2.4-1.5-3.8v-0.3c0-1,0.2-2,0.6-2.9c0.4-0.8,1-1.5,1.8-1.9c0.8-0.5,1.8-0.7,2.7-0.7
			c1.3-0.1,2.6,0.4,3.5,1.4c0.9,1.1,1.4,2.5,1.3,3.9v1.3h-6.5c0.1,0.5,0.4,1,0.8,1.4c0.4,0.4,1,0.5,1.5,0.5c0.9,0,1.8-0.4,2.4-1.1
			l1.5,1.8c-0.5,0.6-1.1,1.1-1.7,1.4C7985,2898.2,7984.1,2898.4,7983.3,2898.4z M7982.9,2890c-1,0-1.5,0.6-1.7,1.9h3.3v-0.3
			c0-0.4-0.1-0.9-0.4-1.2C7983.8,2890.1,7983.4,2889.9,7982.9,2890L7982.9,2890z M7992.5,2898.2h-3.3v-15h3.3V2898.2z
			 M8000.5,2898.2c-0.1-0.3-0.3-0.6-0.3-0.9c-0.6,0.8-1.6,1.2-2.5,1.1c-0.9,0-1.8-0.3-2.5-0.9c-0.7-0.6-1.1-1.4-1-2.3
			c-0.1-1,0.4-2,1.3-2.6c1.1-0.7,2.4-1,3.7-0.9h1v-0.6c0-1-0.4-1.5-1.3-1.5c-0.6-0.1-1.1,0.3-1.2,0.9c0,0.1,0,0.2,0,0.3h-3.3
			c0-1,0.5-1.9,1.3-2.5c1-0.7,2.1-1,3.3-1c1.1-0.1,2.3,0.3,3.2,1c0.8,0.7,1.2,1.7,1.2,2.7v4.7c0,0.8,0.1,1.5,0.4,2.2v0.2H8000.5z
			 M7998.5,2896.1c0.4,0,0.7-0.1,1-0.3c0.2-0.1,0.4-0.4,0.6-0.6v-1.7h-1c-1.1,0-1.7,0.5-1.7,1.5c0,0.3,0.1,0.5,0.3,0.7
			C7997.9,2896,7998.2,2896.1,7998.5,2896.1z M8009.7,2895.9c0.4,0,0.8-0.1,1.1-0.4c0.3-0.3,0.4-0.7,0.4-1h3.1
			c0,1.1-0.4,2.1-1.2,2.9c-0.9,0.8-2,1.2-3.2,1.1c-1.4,0.1-2.7-0.5-3.6-1.4c-0.9-1.1-1.4-2.5-1.3-4v-0.1c0-1,0.2-1.9,0.6-2.8
			c0.4-0.8,1-1.4,1.7-1.9c0.8-0.5,1.7-0.7,2.6-0.7c1.2-0.1,2.4,0.3,3.3,1.1c0.8,0.8,1.3,1.9,1.2,3.1h-3.1c0-0.5-0.1-0.9-0.4-1.3
			c-0.3-0.3-0.7-0.5-1.1-0.4c-0.9,0-1.4,0.5-1.5,1.6c-0.1,0.5-0.1,0.9-0.1,1.4c-0.1,0.8,0.1,1.5,0.4,2.2
			C8008.7,2895.7,8009.2,2895.9,8009.7,2895.9L8009.7,2895.9z M8019,2898.2h-3.3v-10.6h3.3V2898.2z M8015.5,2884.9
			c0-0.4,0.2-0.9,0.5-1.2c0.4-0.3,0.8-0.5,1.3-0.5c0.5,0,1,0.1,1.3,0.5c0.3,0.3,0.5,0.7,0.5,1.2c0,0.4-0.2,0.9-0.5,1.2
			c-0.4,0.3-0.8,0.5-1.3,0.5c-0.5,0-1-0.1-1.3-0.5C8015.7,2885.8,8015.5,2885.3,8015.5,2884.9L8015.5,2884.9z M8020.7,2892.8
			c0-1,0.2-1.9,0.6-2.8c0.4-0.8,1-1.5,1.8-1.9c0.8-0.5,1.8-0.7,2.7-0.7c1.4-0.1,2.8,0.5,3.7,1.5c1,1.1,1.4,2.5,1.4,4v0.1
			c0.1,1.4-0.4,2.8-1.4,3.9c-1,1-2.3,1.5-3.7,1.5c-1.3,0.1-2.7-0.4-3.6-1.4c-0.9-1-1.5-2.3-1.5-3.7L8020.7,2892.8z M8023.9,2893
			c-0.1,0.7,0.1,1.5,0.5,2.1c0.3,0.5,0.8,0.7,1.4,0.7c1.2,0,1.8-0.9,1.8-2.7v-0.3c0-1.9-0.6-2.8-1.8-2.8c-1.1,0-1.7,0.8-1.8,2.5
			L8023.9,2893z M8026.2,2883.2h3.5l-2.7,3.1h-2.7L8026.2,2883.2z M8035.3,2887.6l0.1,1.2c0.7-0.9,1.8-1.5,3-1.4
			c0.9-0.1,1.8,0.3,2.5,1c0.6,0.9,0.9,1.9,0.8,3v6.8h-3.3v-6.7c0-0.4-0.1-0.8-0.3-1.2c-0.3-0.3-0.7-0.4-1.2-0.4
			c-0.6,0-1.1,0.3-1.4,0.8v7.5h-3.3v-10.6H8035.3z M8051.7,2887.6l0.1,1.2c0.7-0.9,1.8-1.5,3-1.4c1.2-0.1,2.2,0.5,2.7,1.6
			c0.7-1,1.9-1.6,3.1-1.6c2.1,0,3.2,1.3,3.3,3.9v6.9h-3.3v-6.7c0-0.4-0.1-0.8-0.3-1.2c-0.3-0.3-0.6-0.4-1-0.4
			c-0.6,0-1.2,0.3-1.5,0.9l0,0.1v7.2h-3.3v-6.6c0-0.4-0.1-0.8-0.3-1.2c-0.3-0.3-0.6-0.4-1-0.4c-0.6,0-1.2,0.3-1.4,0.9v7.4h-3.3
			v-10.6H8051.7z M8072.1,2897.1c-0.7,0.9-1.7,1.4-2.8,1.3c-1,0.1-1.9-0.3-2.6-1c-0.6-0.8-1-1.9-0.9-2.9v-6.8h3.3v6.9
			c-0.1,0.6,0.3,1.3,1,1.4c0.1,0,0.2,0,0.3,0c0.6,0.1,1.3-0.3,1.6-0.8v-7.4h3.3v10.6h-3.1L8072.1,2897.1z M8081.5,2895.9
			c0.4,0,0.8-0.1,1.1-0.4c0.3-0.3,0.4-0.7,0.4-1.1h3.1c0,1.1-0.4,2.1-1.2,2.9c-0.9,0.8-2,1.2-3.2,1.1c-1.4,0.1-2.7-0.5-3.6-1.4
			c-0.9-1.1-1.4-2.5-1.3-4v-0.1c0-1,0.2-1.9,0.6-2.8c0.4-0.8,1-1.4,1.7-1.9c0.8-0.5,1.7-0.7,2.6-0.7c1.2-0.1,2.4,0.3,3.3,1.1
			c0.8,0.8,1.3,1.9,1.2,3.1h-3.1c0-0.5-0.1-0.9-0.4-1.3c-0.3-0.3-0.7-0.5-1.1-0.4c-0.9,0-1.4,0.5-1.5,1.6c-0.1,0.5-0.1,0.9-0.1,1.4
			c-0.1,0.8,0.1,1.5,0.4,2.2C8080.6,2895.7,8081.1,2895.9,8081.5,2895.9L8081.5,2895.9z M8090.7,2888.8c0.6-0.9,1.6-1.3,2.7-1.3
			c1-0.1,2,0.3,2.6,1c0.7,0.9,1,2,0.9,3.1v6.7h-3.3v-6.6c0-0.4-0.1-0.9-0.3-1.2c-0.3-0.3-0.7-0.4-1.2-0.4c-0.6-0.1-1.1,0.2-1.4,0.6
			v7.6h-3.3v-15h3.3V2888.8z M8098.3,2892.8c0-1,0.2-1.9,0.6-2.8c0.4-0.8,1-1.5,1.8-1.9c0.8-0.5,1.8-0.7,2.7-0.7
			c1.4-0.1,2.8,0.5,3.7,1.5c1,1.1,1.4,2.5,1.4,4v0.1c0.1,1.4-0.4,2.8-1.4,3.9c-1,1-2.3,1.5-3.7,1.5c-1.3,0.1-2.7-0.4-3.6-1.4
			c-0.9-1-1.5-2.3-1.5-3.7L8098.3,2892.8z M8101.6,2893c-0.1,0.7,0.1,1.5,0.5,2.1c0.3,0.5,0.8,0.7,1.4,0.7c1.2,0,1.8-0.9,1.8-2.7
			v-0.3c0-1.9-0.6-2.8-1.8-2.8c-1.1,0-1.7,0.8-1.8,2.5L8101.6,2893z M8115.5,2895.2c0-0.3-0.2-0.6-0.4-0.7c-0.5-0.2-1.1-0.4-1.7-0.5
			c-0.7-0.1-1.4-0.4-2-0.7c-0.5-0.3-0.9-0.6-1.2-1.1c-0.3-0.4-0.4-0.9-0.4-1.5c0-0.9,0.4-1.8,1.2-2.4c0.9-0.7,2-1,3.1-0.9
			c1.2-0.1,2.4,0.3,3.4,0.9c0.8,0.6,1.3,1.5,1.3,2.5h-3.3c0-0.8-0.4-1.3-1.3-1.3c-0.3,0-0.6,0.1-0.9,0.3c-0.2,0.2-0.4,0.4-0.4,0.7
			c0,0.3,0.2,0.6,0.4,0.7c0.4,0.2,0.9,0.4,1.4,0.4c0.6,0.1,1.1,0.2,1.7,0.4c1.4,0.3,2.4,1.5,2.4,2.9c0,1-0.5,1.8-1.3,2.4
			c-1,0.6-2.1,1-3.3,0.9c-0.8,0-1.7-0.2-2.4-0.5c-0.7-0.3-1.2-0.7-1.7-1.3c-0.4-0.5-0.6-1.1-0.6-1.8h3.1c0,0.4,0.2,0.8,0.5,1.1
			c0.4,0.2,0.8,0.4,1.2,0.3c0.4,0,0.7-0.1,1-0.3C8115.4,2895.8,8115.5,2895.5,8115.5,2895.2z M8131.2,2898.2
			c-0.1-0.3-0.3-0.6-0.3-0.9c-0.6,0.8-1.6,1.2-2.5,1.1c-0.9,0-1.8-0.3-2.5-0.9c-0.7-0.6-1.1-1.4-1-2.3c-0.1-1,0.4-2,1.3-2.6
			c1.1-0.7,2.4-1,3.7-0.9h1v-0.6c0-1-0.4-1.5-1.3-1.5c-0.6-0.1-1.1,0.3-1.2,0.9c0,0.1,0,0.2,0,0.3h-3.3c0-1,0.5-1.9,1.3-2.5
			c1-0.7,2.1-1,3.3-1c1.1-0.1,2.3,0.3,3.2,1c0.8,0.7,1.2,1.7,1.2,2.7v4.7c0,0.8,0.1,1.5,0.4,2.2v0.2H8131.2z M8129.1,2896.1
			c0.4,0,0.7-0.1,1-0.3c0.2-0.1,0.4-0.4,0.6-0.6v-1.7h-1c-1.1,0-1.7,0.5-1.7,1.5c0,0.3,0.1,0.5,0.3,0.7
			C8128.5,2896,8128.8,2896.1,8129.1,2896.1z M8143.9,2887.6l0.1,1.2c0.7-0.9,1.8-1.5,3-1.4c1.2-0.1,2.2,0.5,2.7,1.6
			c0.7-1,1.9-1.6,3.1-1.6c2.1,0,3.2,1.3,3.3,3.9v6.9h-3.3v-6.7c0-0.4-0.1-0.8-0.3-1.2c-0.3-0.3-0.6-0.4-1-0.4
			c-0.6,0-1.2,0.3-1.5,0.9l0,0.1v7.2h-3.3v-6.6c0-0.4-0.1-0.8-0.3-1.2c-0.3-0.3-0.6-0.4-1-0.4c-0.6,0-1.2,0.3-1.4,0.9v7.4h-3.3
			v-10.6H8143.9z M8164.3,2897.1c-0.7,0.9-1.7,1.4-2.8,1.3c-1,0.1-1.9-0.3-2.6-1c-0.6-0.8-1-1.9-0.9-2.9v-6.8h3.3v6.9
			c-0.1,0.6,0.3,1.3,1,1.4c0.1,0,0.2,0,0.3,0c0.6,0.1,1.3-0.3,1.6-0.8v-7.4h3.3v10.6h-3.1L8164.3,2897.1z M8173.8,2895.9
			c0.4,0,0.8-0.1,1.1-0.4c0.3-0.3,0.4-0.7,0.4-1.1h3.1c0,1.1-0.4,2.1-1.2,2.9c-0.9,0.8-2,1.2-3.2,1.1c-1.4,0.1-2.7-0.5-3.6-1.4
			c-0.9-1.1-1.4-2.5-1.3-4v-0.1c0-1,0.2-1.9,0.6-2.8c0.4-0.8,1-1.4,1.7-1.9c0.8-0.5,1.7-0.7,2.6-0.7c1.2-0.1,2.4,0.3,3.3,1.1
			c0.8,0.8,1.3,1.9,1.2,3.1h-3.1c0-0.5-0.1-0.9-0.4-1.3c-0.3-0.3-0.7-0.5-1.1-0.4c-0.9,0-1.4,0.5-1.5,1.6c-0.1,0.5-0.1,0.9-0.1,1.4
			c-0.1,0.8,0.1,1.5,0.4,2.2C8172.8,2895.7,8173.3,2895.9,8173.8,2895.9L8173.8,2895.9z M8182.9,2888.8c0.6-0.9,1.6-1.3,2.7-1.3
			c1-0.1,2,0.3,2.6,1c0.7,0.9,1,2,0.9,3.1v6.7h-3.3v-6.6c0-0.4-0.1-0.9-0.3-1.2c-0.3-0.3-0.7-0.4-1.2-0.4c-0.6-0.1-1.1,0.2-1.4,0.6
			v7.6h-3.3v-15h3.3V2888.8z M8190.6,2892.8c0-1,0.2-1.9,0.6-2.8c0.4-0.8,1-1.5,1.8-1.9c0.8-0.5,1.8-0.7,2.7-0.7
			c1.4-0.1,2.8,0.5,3.7,1.5c1,1.1,1.4,2.5,1.4,4v0.1c0.1,1.4-0.4,2.8-1.4,3.9c-1,1-2.3,1.5-3.7,1.5c-1.3,0.1-2.7-0.4-3.6-1.4
			c-0.9-1-1.5-2.3-1.5-3.7L8190.6,2892.8z M8193.9,2893c-0.1,0.7,0.1,1.5,0.5,2.1c0.3,0.5,0.8,0.7,1.4,0.7c1.2,0,1.8-0.9,1.8-2.7
			v-0.3c0-1.9-0.6-2.8-1.8-2.8c-1.1,0-1.7,0.8-1.8,2.5L8193.9,2893z M8207.8,2895.2c0-0.3-0.2-0.6-0.4-0.7c-0.5-0.2-1.1-0.4-1.7-0.5
			c-0.7-0.1-1.4-0.4-2-0.7c-0.5-0.3-0.9-0.6-1.2-1.1c-0.3-0.4-0.4-0.9-0.4-1.5c0-0.9,0.4-1.8,1.2-2.4c0.9-0.7,2-1,3.1-0.9
			c1.2-0.1,2.4,0.3,3.4,0.9c0.8,0.6,1.3,1.5,1.3,2.5h-3.3c0-0.8-0.4-1.3-1.3-1.3c-0.3,0-0.6,0.1-0.9,0.3c-0.2,0.2-0.4,0.4-0.4,0.7
			c0,0.3,0.2,0.6,0.4,0.7c0.4,0.2,0.9,0.4,1.4,0.4c0.6,0.1,1.1,0.2,1.7,0.4c1.4,0.3,2.4,1.5,2.4,2.9c0,1-0.5,1.8-1.3,2.4
			c-1,0.6-2.2,1-3.3,0.9c-0.8,0-1.7-0.2-2.4-0.5c-0.7-0.3-1.2-0.7-1.7-1.3c-0.4-0.5-0.6-1.1-0.6-1.8h3.1c0,0.4,0.2,0.8,0.5,1.1
			c0.4,0.2,0.8,0.4,1.2,0.3c0.4,0,0.7-0.1,1-0.3C8207.6,2895.8,8207.8,2895.5,8207.8,2895.2L8207.8,2895.2z"/>
		<path id="Trazado_101104" class="st5" d="M7655.9,2889.2l-3.8-1.1l0.8-2.2l3.7,1.5l-0.3-4.1h2.5l-0.3,4.2l3.6-1.5l0.8,2.2
			l-3.9,1.1l2.6,3.1l-2,1.4l-2.1-3.4l-2.2,3.3l-2-1.3L7655.9,2889.2z"/>
	</g>
</g>
</svg>
