<svg xmlns="http://www.w3.org/2000/svg" width="85" height="84.056" viewBox="0 0 85 84.056">
  <g id="datos" transform="translate(0 -0.432)">
    <g id="Grupo_54987" data-name="Grupo 54987" transform="translate(5.808 4.788)">
      <path id="Trazado_100633" data-name="Trazado 100633" d="M33.452,65.144A1.452,1.452,0,0,1,32,63.692V57.884a1.452,1.452,0,0,1,2.9,0v5.808A1.452,1.452,0,0,1,33.452,65.144Z" transform="translate(-32 -50.624)" fill="#29485a"/>
      <path id="Trazado_100634" data-name="Trazado 100634" d="M273.452,65.144A1.452,1.452,0,0,1,272,63.692V57.884a1.452,1.452,0,1,1,2.9,0v5.808A1.452,1.452,0,0,1,273.452,65.144Z" transform="translate(-228.441 -50.624)" fill="#29485a"/>
      <path id="Trazado_100635" data-name="Trazado 100635" d="M332.327,57.192a1.452,1.452,0,0,1-1.452-1.452v-28.4H313.452a1.452,1.452,0,0,1,0-2.9h18.875a1.452,1.452,0,0,1,1.452,1.452V55.74A1.452,1.452,0,0,1,332.327,57.192Z" transform="translate(-261.182 -24.432)" fill="#29485a"/>
      <path id="Trazado_100636" data-name="Trazado 100636" d="M33.452,161.144A1.452,1.452,0,0,1,32,159.692v-5.808a1.452,1.452,0,1,1,2.9,0v5.808A1.452,1.452,0,0,1,33.452,161.144Z" transform="translate(-32 -129.201)" fill="#29485a"/>
      <path id="Trazado_100637" data-name="Trazado 100637" d="M33.452,257.144A1.452,1.452,0,0,1,32,255.692v-5.808a1.452,1.452,0,0,1,2.9,0v5.808A1.452,1.452,0,0,1,33.452,257.144Z" transform="translate(-32 -207.777)" fill="#29485a"/>
      <path id="Trazado_100638" data-name="Trazado 100638" d="M70.2,357.5H33.452A1.452,1.452,0,0,1,32,356.048V345.884a1.452,1.452,0,1,1,2.9,0V354.6H70.2a1.452,1.452,0,1,1,0,2.9Z" transform="translate(-32 -286.354)" fill="#29485a"/>
    </g>
    <g id="Grupo_54988" data-name="Grupo 54988" transform="translate(0 0.432)">
      <path id="Trazado_100639" data-name="Trazado 100639" d="M2.9.432h52.27a2.9,2.9,0,0,1,2.9,2.9V9.144a2.9,2.9,0,0,1-2.9,2.9H2.9A2.9,2.9,0,0,1,0,9.144V3.336A2.9,2.9,0,0,1,2.9.432Z" transform="translate(0 -0.432)" fill="#06aae9"/>
      <path id="Trazado_100640" data-name="Trazado 100640" d="M2.9,192.432h52.27a2.9,2.9,0,0,1,2.9,2.9v5.808a2.9,2.9,0,0,1-2.9,2.9H2.9a2.9,2.9,0,0,1-2.9-2.9v-5.808A2.9,2.9,0,0,1,2.9,192.432Z" transform="translate(0 -157.585)" fill="#06aae9"/>
    </g>
    <path id="Trazado_100641" data-name="Trazado 100641" d="M266.9,22.24a2.9,2.9,0,1,1,2.9-2.9A2.9,2.9,0,0,1,266.9,22.24Z" transform="translate(-216.086 -13.096)" fill="#ed1c24"/>
    <path id="Trazado_100642" data-name="Trazado 100642" d="M54.491,27.336H25.452a1.452,1.452,0,1,1,0-2.9H54.491a1.452,1.452,0,1,1,0,2.9Z" transform="translate(-19.644 -19.644)" fill="#e6e6e6"/>
    <path id="Trazado_100643" data-name="Trazado 100643" d="M221.808,27.336h-4.356a1.452,1.452,0,0,1,0-2.9h4.356a1.452,1.452,0,1,1,0,2.9Z" transform="translate(-176.797 -19.644)" fill="#f8cf26"/>
    <g id="Grupo_54989" data-name="Grupo 54989" transform="translate(0 17.855)">
      <path id="Trazado_100644" data-name="Trazado 100644" d="M2.9,96.432h52.27a2.9,2.9,0,0,1,2.9,2.9v5.808a2.9,2.9,0,0,1-2.9,2.9H2.9a2.9,2.9,0,0,1-2.9-2.9V99.336A2.9,2.9,0,0,1,2.9,96.432Z" transform="translate(0 -96.432)" fill="#3b6882"/>
      <path id="Trazado_100645" data-name="Trazado 100645" d="M2.9,287.568h52.27a2.9,2.9,0,0,1,2.9,2.9v5.808a2.9,2.9,0,0,1-2.9,2.9H2.9a2.9,2.9,0,0,1-2.9-2.9v-5.808A2.9,2.9,0,0,1,2.9,287.568Z" transform="translate(0 -252.878)" fill="#3b6882"/>
    </g>
    <path id="Trazado_100646" data-name="Trazado 100646" d="M266.9,118.24a2.9,2.9,0,1,1,2.9-2.9A2.9,2.9,0,0,1,266.9,118.24Z" transform="translate(-216.086 -91.673)" fill="#ed1c24"/>
    <path id="Trazado_100647" data-name="Trazado 100647" d="M54.491,123.336H25.452a1.452,1.452,0,1,1,0-2.9H54.491a1.452,1.452,0,1,1,0,2.9Z" transform="translate(-19.644 -98.221)" fill="#e6e6e6"/>
    <g id="Grupo_54990" data-name="Grupo 54990" transform="translate(39.203 22.211)">
      <path id="Trazado_100648" data-name="Trazado 100648" d="M221.808,123.336h-4.356a1.452,1.452,0,0,1,0-2.9h4.356a1.452,1.452,0,1,1,0,2.9Z" transform="translate(-216 -120.432)" fill="#f8cf26"/>
      <path id="Trazado_100649" data-name="Trazado 100649" d="M221.808,218.9h-4.356a1.452,1.452,0,0,1,0-2.9h4.356a1.452,1.452,0,1,1,0,2.9Z" transform="translate(-216 -198.655)" fill="#f8cf26"/>
      <path id="Trazado_100650" data-name="Trazado 100650" d="M221.808,314.472h-4.356a1.452,1.452,0,0,1,0-2.9h4.356a1.452,1.452,0,1,1,0,2.9Z" transform="translate(-216 -276.878)" fill="#f8cf26"/>
    </g>
    <path id="Trazado_100651" data-name="Trazado 100651" d="M54.491,219.336H25.452a1.452,1.452,0,0,1,0-2.9H54.491a1.452,1.452,0,0,1,0,2.9Z" transform="translate(-19.644 -176.797)" fill="#e6e6e6"/>
    <path id="Trazado_100652" data-name="Trazado 100652" d="M232,360.432v12.289c0,3.551,9.426,6.429,21.053,6.429s21.053-2.878,21.053-6.429V360.432" transform="translate(-189.893 -294.662)" fill="#025a7a"/>
    <path id="Trazado_100653" data-name="Trazado 100653" d="M232,288.432v12.289c0,3.552,9.426,6.429,21.053,6.429s21.053-2.878,21.053-6.429V288.432" transform="translate(-189.893 -235.73)" fill="#0378a3"/>
    <path id="Trazado_100654" data-name="Trazado 100654" d="M232,216.432v12.289c0,3.551,9.426,6.429,21.053,6.429s21.053-2.878,21.053-6.429V216.432" transform="translate(-189.893 -176.797)" fill="#3593b5"/>
    <path id="Trazado_100655" data-name="Trazado 100655" d="M54.491,315.336H25.452a1.452,1.452,0,1,1,0-2.9H54.491a1.452,1.452,0,1,1,0,2.9Z" transform="translate(-19.644 -255.374)" fill="#e6e6e6"/>
    <ellipse id="Elipse_4047" data-name="Elipse 4047" cx="21.549" cy="5.986" rx="21.549" ry="5.986" transform="translate(41.901 32.846)" fill="#68aec8"/>
  </g>
</svg>
